<mxfile host="app.diagrams.net" agent="Mozilla/5.0 (Windows NT 10.0; Win64; x64) AppleWebKit/537.36 (KHTML, like Gecko) Chrome/137.0.0.0 Safari/537.36" version="27.1.1">
  <diagram id="cSZ9ZnKpUpaGA6hDx35d" name="Sayfa -1">
    <mxGraphModel dx="3432" dy="2574" grid="1" gridSize="10" guides="1" tooltips="1" connect="1" arrows="1" fold="1" page="1" pageScale="1" pageWidth="827" pageHeight="1169" math="0" shadow="0">
      <root>
        <mxCell id="0" />
        <mxCell id="1" parent="0" />
        <mxCell id="F3PNHzyJ3Ug69kJnkNaL-1" value="PersonelProjeler" style="rounded=0;whiteSpace=wrap;html=1;" vertex="1" parent="1">
          <mxGeometry x="-380" y="72.5" width="97.75" height="37.5" as="geometry" />
        </mxCell>
        <mxCell id="F3PNHzyJ3Ug69kJnkNaL-2" value="" style="whiteSpace=wrap;html=1;align=center;" vertex="1" parent="1">
          <mxGeometry x="948.59" y="168" width="121.41" height="60" as="geometry" />
        </mxCell>
        <mxCell id="F3PNHzyJ3Ug69kJnkNaL-3" style="edgeStyle=orthogonalEdgeStyle;rounded=0;orthogonalLoop=1;jettySize=auto;html=1;entryX=0.5;entryY=1;entryDx=0;entryDy=0;" edge="1" parent="1" source="F3PNHzyJ3Ug69kJnkNaL-4" target="F3PNHzyJ3Ug69kJnkNaL-394">
          <mxGeometry relative="1" as="geometry">
            <mxPoint x="-470" y="148" as="targetPoint" />
            <Array as="points">
              <mxPoint x="20" y="220" />
              <mxPoint x="-498" y="220" />
            </Array>
          </mxGeometry>
        </mxCell>
        <mxCell id="F3PNHzyJ3Ug69kJnkNaL-4" value="Personel" style="whiteSpace=wrap;html=1;align=center;" vertex="1" parent="1">
          <mxGeometry x="-30" y="150" width="100" height="40" as="geometry" />
        </mxCell>
        <mxCell id="F3PNHzyJ3Ug69kJnkNaL-5" value="Görev" style="whiteSpace=wrap;html=1;align=center;" vertex="1" parent="1">
          <mxGeometry x="-120" y="310" width="100" height="40" as="geometry" />
        </mxCell>
        <mxCell id="F3PNHzyJ3Ug69kJnkNaL-6" value="Departman" style="whiteSpace=wrap;html=1;align=center;" vertex="1" parent="1">
          <mxGeometry x="70" y="310" width="100" height="40" as="geometry" />
        </mxCell>
        <mxCell id="F3PNHzyJ3Ug69kJnkNaL-7" value="Kasa" style="whiteSpace=wrap;html=1;align=center;" vertex="1" parent="1">
          <mxGeometry x="460" y="93.12" width="100" height="40" as="geometry" />
        </mxCell>
        <mxCell id="F3PNHzyJ3Ug69kJnkNaL-8" value="Durum" style="whiteSpace=wrap;html=1;align=center;" vertex="1" parent="1">
          <mxGeometry x="470" y="310" width="100" height="40" as="geometry" />
        </mxCell>
        <mxCell id="F3PNHzyJ3Ug69kJnkNaL-9" value="Misafir" style="whiteSpace=wrap;html=1;align=center;" vertex="1" parent="1">
          <mxGeometry x="940.0000000000001" y="-95.71000000000001" width="100" height="40" as="geometry" />
        </mxCell>
        <mxCell id="F3PNHzyJ3Ug69kJnkNaL-10" value="İller" style="whiteSpace=wrap;html=1;align=center;" vertex="1" parent="1">
          <mxGeometry x="1470.0000000000002" y="-55.309999999999995" width="100" height="40" as="geometry" />
        </mxCell>
        <mxCell id="F3PNHzyJ3Ug69kJnkNaL-11" value="İlçeler" style="whiteSpace=wrap;html=1;align=center;" vertex="1" parent="1">
          <mxGeometry x="1470.0000000000002" y="44.69" width="100" height="40" as="geometry" />
        </mxCell>
        <mxCell id="F3PNHzyJ3Ug69kJnkNaL-12" value="Rezervasyon" style="whiteSpace=wrap;html=1;align=center;" vertex="1" parent="1">
          <mxGeometry x="954.2900000000001" y="176.03" width="111.41" height="43.97" as="geometry" />
        </mxCell>
        <mxCell id="F3PNHzyJ3Ug69kJnkNaL-13" value="Oda" style="whiteSpace=wrap;html=1;align=center;" vertex="1" parent="1">
          <mxGeometry x="958.5900000000001" y="385" width="100" height="40" as="geometry" />
        </mxCell>
        <mxCell id="F3PNHzyJ3Ug69kJnkNaL-14" value="Kur" style="whiteSpace=wrap;html=1;align=center;" vertex="1" parent="1">
          <mxGeometry x="1080" y="585" width="100" height="40" as="geometry" />
        </mxCell>
        <mxCell id="F3PNHzyJ3Ug69kJnkNaL-15" value="Telefon" style="whiteSpace=wrap;html=1;align=center;" vertex="1" parent="1">
          <mxGeometry x="839" y="634.44" width="100" height="40" as="geometry" />
        </mxCell>
        <mxCell id="F3PNHzyJ3Ug69kJnkNaL-16" value="Ürün Grup" style="whiteSpace=wrap;html=1;align=center;" vertex="1" parent="1">
          <mxGeometry x="592" y="625" width="100" height="40" as="geometry" />
        </mxCell>
        <mxCell id="F3PNHzyJ3Ug69kJnkNaL-17" value="Ürün" style="whiteSpace=wrap;html=1;align=center;" vertex="1" parent="1">
          <mxGeometry x="246" y="623.71" width="100" height="40" as="geometry" />
        </mxCell>
        <mxCell id="F3PNHzyJ3Ug69kJnkNaL-18" value="Birim" style="whiteSpace=wrap;html=1;align=center;" vertex="1" parent="1">
          <mxGeometry x="-74.5" y="625" width="100" height="40" as="geometry" />
        </mxCell>
        <mxCell id="F3PNHzyJ3Ug69kJnkNaL-19" value="Ürün Hareket" style="whiteSpace=wrap;html=1;align=center;" vertex="1" parent="1">
          <mxGeometry x="248" y="875" width="100" height="40" as="geometry" />
        </mxCell>
        <mxCell id="F3PNHzyJ3Ug69kJnkNaL-20" value="" style="endArrow=none;html=1;rounded=0;entryX=0.25;entryY=1;entryDx=0;entryDy=0;exitX=0.5;exitY=0;exitDx=0;exitDy=0;" edge="1" parent="1" source="F3PNHzyJ3Ug69kJnkNaL-5" target="F3PNHzyJ3Ug69kJnkNaL-4">
          <mxGeometry relative="1" as="geometry">
            <mxPoint x="-60" y="300" as="sourcePoint" />
            <mxPoint x="-10" y="210" as="targetPoint" />
          </mxGeometry>
        </mxCell>
        <mxCell id="F3PNHzyJ3Ug69kJnkNaL-21" value="N" style="resizable=0;html=1;whiteSpace=wrap;align=right;verticalAlign=bottom;" connectable="0" vertex="1" parent="F3PNHzyJ3Ug69kJnkNaL-20">
          <mxGeometry x="1" relative="1" as="geometry">
            <mxPoint x="10" y="20" as="offset" />
          </mxGeometry>
        </mxCell>
        <mxCell id="F3PNHzyJ3Ug69kJnkNaL-22" value="" style="endArrow=none;html=1;rounded=0;exitX=0.5;exitY=0;exitDx=0;exitDy=0;entryX=0.75;entryY=1;entryDx=0;entryDy=0;" edge="1" parent="1" source="F3PNHzyJ3Ug69kJnkNaL-6" target="F3PNHzyJ3Ug69kJnkNaL-4">
          <mxGeometry relative="1" as="geometry">
            <mxPoint x="280" y="450" as="sourcePoint" />
            <mxPoint x="440" y="450" as="targetPoint" />
          </mxGeometry>
        </mxCell>
        <mxCell id="F3PNHzyJ3Ug69kJnkNaL-23" value="N" style="resizable=0;html=1;whiteSpace=wrap;align=right;verticalAlign=bottom;" connectable="0" vertex="1" parent="F3PNHzyJ3Ug69kJnkNaL-22">
          <mxGeometry x="1" relative="1" as="geometry">
            <mxPoint x="2" y="19" as="offset" />
          </mxGeometry>
        </mxCell>
        <mxCell id="F3PNHzyJ3Ug69kJnkNaL-24" value="" style="endArrow=none;html=1;rounded=0;exitX=0;exitY=0.5;exitDx=0;exitDy=0;entryX=1;entryY=0.5;entryDx=0;entryDy=0;" edge="1" parent="1" source="F3PNHzyJ3Ug69kJnkNaL-6" target="F3PNHzyJ3Ug69kJnkNaL-5">
          <mxGeometry relative="1" as="geometry">
            <mxPoint x="280" y="450" as="sourcePoint" />
            <mxPoint x="440" y="450" as="targetPoint" />
          </mxGeometry>
        </mxCell>
        <mxCell id="F3PNHzyJ3Ug69kJnkNaL-25" value="N" style="resizable=0;html=1;whiteSpace=wrap;align=right;verticalAlign=bottom;" connectable="0" vertex="1" parent="F3PNHzyJ3Ug69kJnkNaL-24">
          <mxGeometry x="1" relative="1" as="geometry">
            <mxPoint x="16" as="offset" />
          </mxGeometry>
        </mxCell>
        <mxCell id="F3PNHzyJ3Ug69kJnkNaL-26" value="" style="endArrow=none;html=1;rounded=0;entryX=1;entryY=1;entryDx=0;entryDy=0;exitX=0;exitY=0.5;exitDx=0;exitDy=0;" edge="1" parent="1" source="F3PNHzyJ3Ug69kJnkNaL-8" target="F3PNHzyJ3Ug69kJnkNaL-4">
          <mxGeometry relative="1" as="geometry">
            <mxPoint x="280" y="330" as="sourcePoint" />
            <mxPoint x="440" y="330" as="targetPoint" />
          </mxGeometry>
        </mxCell>
        <mxCell id="F3PNHzyJ3Ug69kJnkNaL-27" value="N" style="resizable=0;html=1;whiteSpace=wrap;align=right;verticalAlign=bottom;" connectable="0" vertex="1" parent="F3PNHzyJ3Ug69kJnkNaL-26">
          <mxGeometry x="1" relative="1" as="geometry">
            <mxPoint x="14" y="20" as="offset" />
          </mxGeometry>
        </mxCell>
        <mxCell id="F3PNHzyJ3Ug69kJnkNaL-28" value="" style="endArrow=none;html=1;rounded=0;entryX=0.5;entryY=1;entryDx=0;entryDy=0;exitX=0.5;exitY=0;exitDx=0;exitDy=0;" edge="1" parent="1" source="F3PNHzyJ3Ug69kJnkNaL-8" target="F3PNHzyJ3Ug69kJnkNaL-7">
          <mxGeometry relative="1" as="geometry">
            <mxPoint x="280" y="330" as="sourcePoint" />
            <mxPoint x="440" y="330" as="targetPoint" />
          </mxGeometry>
        </mxCell>
        <mxCell id="F3PNHzyJ3Ug69kJnkNaL-29" value="N" style="resizable=0;html=1;whiteSpace=wrap;align=right;verticalAlign=bottom;" connectable="0" vertex="1" parent="F3PNHzyJ3Ug69kJnkNaL-28">
          <mxGeometry x="1" relative="1" as="geometry">
            <mxPoint x="-2" y="17" as="offset" />
          </mxGeometry>
        </mxCell>
        <mxCell id="F3PNHzyJ3Ug69kJnkNaL-30" value="" style="endArrow=none;html=1;rounded=0;exitX=1;exitY=0.5;exitDx=0;exitDy=0;entryX=0;entryY=0.75;entryDx=0;entryDy=0;" edge="1" parent="1" source="F3PNHzyJ3Ug69kJnkNaL-8" target="F3PNHzyJ3Ug69kJnkNaL-2">
          <mxGeometry relative="1" as="geometry">
            <mxPoint x="350" y="160" as="sourcePoint" />
            <mxPoint x="930" y="210" as="targetPoint" />
          </mxGeometry>
        </mxCell>
        <mxCell id="F3PNHzyJ3Ug69kJnkNaL-31" value="(N)" style="resizable=0;html=1;whiteSpace=wrap;align=right;verticalAlign=bottom;" connectable="0" vertex="1" parent="F3PNHzyJ3Ug69kJnkNaL-30">
          <mxGeometry x="1" relative="1" as="geometry">
            <mxPoint x="23" y="5" as="offset" />
          </mxGeometry>
        </mxCell>
        <mxCell id="F3PNHzyJ3Ug69kJnkNaL-32" value="" style="endArrow=none;html=1;rounded=0;entryX=0;entryY=0.5;entryDx=0;entryDy=0;exitX=1;exitY=0;exitDx=0;exitDy=0;" edge="1" parent="1" source="F3PNHzyJ3Ug69kJnkNaL-8" target="F3PNHzyJ3Ug69kJnkNaL-9">
          <mxGeometry relative="1" as="geometry">
            <mxPoint x="510" y="200" as="sourcePoint" />
            <mxPoint x="670" y="200" as="targetPoint" />
          </mxGeometry>
        </mxCell>
        <mxCell id="F3PNHzyJ3Ug69kJnkNaL-33" value="N" style="resizable=0;html=1;whiteSpace=wrap;align=right;verticalAlign=bottom;" connectable="0" vertex="1" parent="F3PNHzyJ3Ug69kJnkNaL-32">
          <mxGeometry x="1" relative="1" as="geometry">
            <mxPoint x="-5" y="6" as="offset" />
          </mxGeometry>
        </mxCell>
        <mxCell id="F3PNHzyJ3Ug69kJnkNaL-34" value="" style="endArrow=none;html=1;rounded=0;entryX=0;entryY=0.5;entryDx=0;entryDy=0;exitX=1;exitY=1;exitDx=0;exitDy=0;" edge="1" parent="1" source="F3PNHzyJ3Ug69kJnkNaL-8" target="F3PNHzyJ3Ug69kJnkNaL-13">
          <mxGeometry relative="1" as="geometry">
            <mxPoint x="510" y="430" as="sourcePoint" />
            <mxPoint x="670" y="430" as="targetPoint" />
          </mxGeometry>
        </mxCell>
        <mxCell id="F3PNHzyJ3Ug69kJnkNaL-35" value="N" style="resizable=0;html=1;whiteSpace=wrap;align=right;verticalAlign=bottom;" connectable="0" vertex="1" parent="F3PNHzyJ3Ug69kJnkNaL-34">
          <mxGeometry x="1" relative="1" as="geometry">
            <mxPoint x="-2" y="-7" as="offset" />
          </mxGeometry>
        </mxCell>
        <mxCell id="F3PNHzyJ3Ug69kJnkNaL-36" value="" style="endArrow=none;html=1;rounded=0;entryX=0;entryY=0.25;entryDx=0;entryDy=0;exitX=0.75;exitY=1;exitDx=0;exitDy=0;" edge="1" parent="1" source="F3PNHzyJ3Ug69kJnkNaL-8" target="F3PNHzyJ3Ug69kJnkNaL-14">
          <mxGeometry relative="1" as="geometry">
            <mxPoint x="510" y="430" as="sourcePoint" />
            <mxPoint x="670" y="430" as="targetPoint" />
          </mxGeometry>
        </mxCell>
        <mxCell id="F3PNHzyJ3Ug69kJnkNaL-37" value="N" style="resizable=0;html=1;whiteSpace=wrap;align=right;verticalAlign=bottom;" connectable="0" vertex="1" parent="F3PNHzyJ3Ug69kJnkNaL-36">
          <mxGeometry x="1" relative="1" as="geometry">
            <mxPoint x="-1" y="-10" as="offset" />
          </mxGeometry>
        </mxCell>
        <mxCell id="F3PNHzyJ3Ug69kJnkNaL-38" value="" style="endArrow=none;html=1;rounded=0;exitX=0.5;exitY=1;exitDx=0;exitDy=0;entryX=0.5;entryY=0;entryDx=0;entryDy=0;" edge="1" parent="1" source="F3PNHzyJ3Ug69kJnkNaL-8" target="F3PNHzyJ3Ug69kJnkNaL-15">
          <mxGeometry relative="1" as="geometry">
            <mxPoint x="510" y="550" as="sourcePoint" />
            <mxPoint x="670" y="550" as="targetPoint" />
          </mxGeometry>
        </mxCell>
        <mxCell id="F3PNHzyJ3Ug69kJnkNaL-39" value="N" style="resizable=0;html=1;whiteSpace=wrap;align=right;verticalAlign=bottom;" connectable="0" vertex="1" parent="F3PNHzyJ3Ug69kJnkNaL-38">
          <mxGeometry x="1" relative="1" as="geometry">
            <mxPoint x="8" y="-4" as="offset" />
          </mxGeometry>
        </mxCell>
        <mxCell id="F3PNHzyJ3Ug69kJnkNaL-40" value="" style="endArrow=none;html=1;rounded=0;exitX=0.402;exitY=1.063;exitDx=0;exitDy=0;entryX=0.5;entryY=0;entryDx=0;entryDy=0;exitPerimeter=0;" edge="1" parent="1" source="F3PNHzyJ3Ug69kJnkNaL-8" target="F3PNHzyJ3Ug69kJnkNaL-16">
          <mxGeometry relative="1" as="geometry">
            <mxPoint x="510" y="550" as="sourcePoint" />
            <mxPoint x="670" y="550" as="targetPoint" />
          </mxGeometry>
        </mxCell>
        <mxCell id="F3PNHzyJ3Ug69kJnkNaL-41" value="N" style="resizable=0;html=1;whiteSpace=wrap;align=right;verticalAlign=bottom;" connectable="0" vertex="1" parent="F3PNHzyJ3Ug69kJnkNaL-40">
          <mxGeometry x="1" relative="1" as="geometry">
            <mxPoint x="-7" y="-4" as="offset" />
          </mxGeometry>
        </mxCell>
        <mxCell id="F3PNHzyJ3Ug69kJnkNaL-42" value="" style="endArrow=none;html=1;rounded=0;exitX=0.25;exitY=1;exitDx=0;exitDy=0;entryX=0.5;entryY=0;entryDx=0;entryDy=0;" edge="1" parent="1" source="F3PNHzyJ3Ug69kJnkNaL-8" target="F3PNHzyJ3Ug69kJnkNaL-17">
          <mxGeometry relative="1" as="geometry">
            <mxPoint x="510" y="670" as="sourcePoint" />
            <mxPoint x="670" y="670" as="targetPoint" />
          </mxGeometry>
        </mxCell>
        <mxCell id="F3PNHzyJ3Ug69kJnkNaL-43" value="N" style="resizable=0;html=1;whiteSpace=wrap;align=right;verticalAlign=bottom;" connectable="0" vertex="1" parent="F3PNHzyJ3Ug69kJnkNaL-42">
          <mxGeometry x="1" relative="1" as="geometry">
            <mxPoint x="-4" y="-4" as="offset" />
          </mxGeometry>
        </mxCell>
        <mxCell id="F3PNHzyJ3Ug69kJnkNaL-44" value="" style="endArrow=none;html=1;rounded=0;exitX=0;exitY=1;exitDx=0;exitDy=0;entryX=0.5;entryY=0;entryDx=0;entryDy=0;" edge="1" parent="1" source="F3PNHzyJ3Ug69kJnkNaL-8" target="F3PNHzyJ3Ug69kJnkNaL-18">
          <mxGeometry relative="1" as="geometry">
            <mxPoint x="510" y="670" as="sourcePoint" />
            <mxPoint x="670" y="670" as="targetPoint" />
          </mxGeometry>
        </mxCell>
        <mxCell id="F3PNHzyJ3Ug69kJnkNaL-45" value="N" style="resizable=0;html=1;whiteSpace=wrap;align=right;verticalAlign=bottom;" connectable="0" vertex="1" parent="F3PNHzyJ3Ug69kJnkNaL-44">
          <mxGeometry x="1" relative="1" as="geometry">
            <mxPoint x="-4" y="-3" as="offset" />
          </mxGeometry>
        </mxCell>
        <mxCell id="F3PNHzyJ3Ug69kJnkNaL-46" value="" style="endArrow=none;html=1;rounded=0;exitX=1;exitY=0.5;exitDx=0;exitDy=0;entryX=0;entryY=0.5;entryDx=0;entryDy=0;" edge="1" parent="1" source="F3PNHzyJ3Ug69kJnkNaL-18" target="F3PNHzyJ3Ug69kJnkNaL-17">
          <mxGeometry relative="1" as="geometry">
            <mxPoint x="92" y="620" as="sourcePoint" />
            <mxPoint x="622" y="630" as="targetPoint" />
          </mxGeometry>
        </mxCell>
        <mxCell id="F3PNHzyJ3Ug69kJnkNaL-47" value="N" style="resizable=0;html=1;whiteSpace=wrap;align=right;verticalAlign=bottom;" connectable="0" vertex="1" parent="F3PNHzyJ3Ug69kJnkNaL-46">
          <mxGeometry x="1" relative="1" as="geometry">
            <mxPoint x="-4" as="offset" />
          </mxGeometry>
        </mxCell>
        <mxCell id="F3PNHzyJ3Ug69kJnkNaL-48" value="" style="endArrow=none;html=1;rounded=0;exitX=0;exitY=0.5;exitDx=0;exitDy=0;entryX=1;entryY=0.5;entryDx=0;entryDy=0;" edge="1" parent="1" source="F3PNHzyJ3Ug69kJnkNaL-16" target="F3PNHzyJ3Ug69kJnkNaL-17">
          <mxGeometry relative="1" as="geometry">
            <mxPoint x="546" y="663.71" as="sourcePoint" />
            <mxPoint x="706" y="663.71" as="targetPoint" />
          </mxGeometry>
        </mxCell>
        <mxCell id="F3PNHzyJ3Ug69kJnkNaL-49" value="N" style="resizable=0;html=1;whiteSpace=wrap;align=right;verticalAlign=bottom;" connectable="0" vertex="1" parent="F3PNHzyJ3Ug69kJnkNaL-48">
          <mxGeometry x="1" relative="1" as="geometry">
            <mxPoint x="14" as="offset" />
          </mxGeometry>
        </mxCell>
        <mxCell id="F3PNHzyJ3Ug69kJnkNaL-50" value="" style="endArrow=none;html=1;rounded=0;exitX=0.5;exitY=1;exitDx=0;exitDy=0;entryX=0.5;entryY=0;entryDx=0;entryDy=0;" edge="1" parent="1" source="F3PNHzyJ3Ug69kJnkNaL-17" target="F3PNHzyJ3Ug69kJnkNaL-19">
          <mxGeometry relative="1" as="geometry">
            <mxPoint x="546" y="663.71" as="sourcePoint" />
            <mxPoint x="706" y="663.71" as="targetPoint" />
          </mxGeometry>
        </mxCell>
        <mxCell id="F3PNHzyJ3Ug69kJnkNaL-51" value="N" style="resizable=0;html=1;whiteSpace=wrap;align=right;verticalAlign=bottom;" connectable="0" vertex="1" parent="F3PNHzyJ3Ug69kJnkNaL-50">
          <mxGeometry x="1" relative="1" as="geometry">
            <mxPoint x="-4" y="-2" as="offset" />
          </mxGeometry>
        </mxCell>
        <mxCell id="F3PNHzyJ3Ug69kJnkNaL-52" value="" style="endArrow=none;html=1;rounded=0;exitX=0.596;exitY=1.019;exitDx=0;exitDy=0;exitPerimeter=0;entryX=0.5;entryY=0;entryDx=0;entryDy=0;" edge="1" parent="1" source="F3PNHzyJ3Ug69kJnkNaL-9" target="F3PNHzyJ3Ug69kJnkNaL-2">
          <mxGeometry relative="1" as="geometry">
            <mxPoint x="610" y="169.29" as="sourcePoint" />
            <mxPoint x="1020" y="150" as="targetPoint" />
          </mxGeometry>
        </mxCell>
        <mxCell id="F3PNHzyJ3Ug69kJnkNaL-53" value="(N)" style="resizable=0;html=1;whiteSpace=wrap;align=right;verticalAlign=bottom;" connectable="0" vertex="1" parent="F3PNHzyJ3Ug69kJnkNaL-52">
          <mxGeometry x="1" relative="1" as="geometry">
            <mxPoint x="10" y="23" as="offset" />
          </mxGeometry>
        </mxCell>
        <mxCell id="F3PNHzyJ3Ug69kJnkNaL-54" value="" style="endArrow=none;html=1;rounded=0;entryX=1;entryY=0.75;entryDx=0;entryDy=0;exitX=0;exitY=0.5;exitDx=0;exitDy=0;" edge="1" parent="1" source="F3PNHzyJ3Ug69kJnkNaL-10" target="F3PNHzyJ3Ug69kJnkNaL-9">
          <mxGeometry relative="1" as="geometry">
            <mxPoint x="610" y="169.29" as="sourcePoint" />
            <mxPoint x="770" y="169.29" as="targetPoint" />
          </mxGeometry>
        </mxCell>
        <mxCell id="F3PNHzyJ3Ug69kJnkNaL-55" value="N" style="resizable=0;html=1;whiteSpace=wrap;align=right;verticalAlign=bottom;" connectable="0" vertex="1" parent="F3PNHzyJ3Ug69kJnkNaL-54">
          <mxGeometry x="1" relative="1" as="geometry">
            <mxPoint x="16" y="17" as="offset" />
          </mxGeometry>
        </mxCell>
        <mxCell id="F3PNHzyJ3Ug69kJnkNaL-56" value="" style="endArrow=none;html=1;rounded=0;entryX=0.88;entryY=1.018;entryDx=0;entryDy=0;exitX=0;exitY=0.5;exitDx=0;exitDy=0;entryPerimeter=0;" edge="1" parent="1" source="F3PNHzyJ3Ug69kJnkNaL-11" target="F3PNHzyJ3Ug69kJnkNaL-9">
          <mxGeometry relative="1" as="geometry">
            <mxPoint x="610" y="169.29" as="sourcePoint" />
            <mxPoint x="770" y="169.29" as="targetPoint" />
          </mxGeometry>
        </mxCell>
        <mxCell id="F3PNHzyJ3Ug69kJnkNaL-57" value="N" style="resizable=0;html=1;whiteSpace=wrap;align=right;verticalAlign=bottom;" connectable="0" vertex="1" parent="F3PNHzyJ3Ug69kJnkNaL-56">
          <mxGeometry x="1" relative="1" as="geometry">
            <mxPoint x="7" y="21" as="offset" />
          </mxGeometry>
        </mxCell>
        <mxCell id="F3PNHzyJ3Ug69kJnkNaL-58" value="" style="endArrow=none;html=1;rounded=0;entryX=0.5;entryY=0;entryDx=0;entryDy=0;exitX=0.5;exitY=1;exitDx=0;exitDy=0;" edge="1" parent="1" source="F3PNHzyJ3Ug69kJnkNaL-10" target="F3PNHzyJ3Ug69kJnkNaL-11">
          <mxGeometry relative="1" as="geometry">
            <mxPoint x="1130" y="104.68999999999997" as="sourcePoint" />
            <mxPoint x="1290.0000000000002" y="104.68999999999997" as="targetPoint" />
          </mxGeometry>
        </mxCell>
        <mxCell id="F3PNHzyJ3Ug69kJnkNaL-59" value="N" style="resizable=0;html=1;whiteSpace=wrap;align=right;verticalAlign=bottom;" connectable="0" vertex="1" parent="F3PNHzyJ3Ug69kJnkNaL-58">
          <mxGeometry x="1" relative="1" as="geometry">
            <mxPoint x="-5" y="-2" as="offset" />
          </mxGeometry>
        </mxCell>
        <mxCell id="F3PNHzyJ3Ug69kJnkNaL-60" value="PersonelID" style="ellipse;whiteSpace=wrap;html=1;align=center;fontStyle=4;" vertex="1" parent="1">
          <mxGeometry x="-180" y="50" width="60" height="35" as="geometry" />
        </mxCell>
        <mxCell id="F3PNHzyJ3Ug69kJnkNaL-61" value="" style="endArrow=none;html=1;rounded=0;exitX=0;exitY=0;exitDx=0;exitDy=0;entryX=0.757;entryY=0.871;entryDx=0;entryDy=0;entryPerimeter=0;" edge="1" parent="1" source="F3PNHzyJ3Ug69kJnkNaL-4" target="F3PNHzyJ3Ug69kJnkNaL-60">
          <mxGeometry relative="1" as="geometry">
            <mxPoint x="160" y="170" as="sourcePoint" />
            <mxPoint x="320" y="170" as="targetPoint" />
          </mxGeometry>
        </mxCell>
        <mxCell id="F3PNHzyJ3Ug69kJnkNaL-62" value="AdSoyad" style="ellipse;whiteSpace=wrap;html=1;align=center;" vertex="1" parent="1">
          <mxGeometry x="-130" y="30" width="60" height="30" as="geometry" />
        </mxCell>
        <mxCell id="F3PNHzyJ3Ug69kJnkNaL-63" value="TC" style="ellipse;whiteSpace=wrap;html=1;align=center;" vertex="1" parent="1">
          <mxGeometry x="-80" y="10" width="60" height="30" as="geometry" />
        </mxCell>
        <mxCell id="F3PNHzyJ3Ug69kJnkNaL-64" value="Adres" style="ellipse;whiteSpace=wrap;html=1;align=center;" vertex="1" parent="1">
          <mxGeometry x="-20" width="60" height="30" as="geometry" />
        </mxCell>
        <mxCell id="F3PNHzyJ3Ug69kJnkNaL-65" value="Mail" style="ellipse;whiteSpace=wrap;html=1;align=center;" vertex="1" parent="1">
          <mxGeometry x="104" y="10" width="60" height="30" as="geometry" />
        </mxCell>
        <mxCell id="F3PNHzyJ3Ug69kJnkNaL-66" value="IseGirisTarih" style="ellipse;whiteSpace=wrap;html=1;align=center;" vertex="1" parent="1">
          <mxGeometry x="164" y="30" width="60" height="30" as="geometry" />
        </mxCell>
        <mxCell id="F3PNHzyJ3Ug69kJnkNaL-67" value="IstenCikisTarih" style="ellipse;whiteSpace=wrap;html=1;align=center;" vertex="1" parent="1">
          <mxGeometry x="200" y="60" width="60" height="30" as="geometry" />
        </mxCell>
        <mxCell id="F3PNHzyJ3Ug69kJnkNaL-68" value="Departman" style="ellipse;whiteSpace=wrap;html=1;align=center;" vertex="1" parent="1">
          <mxGeometry x="-210" y="85" width="60" height="30" as="geometry" />
        </mxCell>
        <mxCell id="F3PNHzyJ3Ug69kJnkNaL-69" value="Gorev" style="ellipse;whiteSpace=wrap;html=1;align=center;" vertex="1" parent="1">
          <mxGeometry x="-230" y="120" width="60" height="30" as="geometry" />
        </mxCell>
        <mxCell id="F3PNHzyJ3Ug69kJnkNaL-70" value="Aciklama" style="ellipse;whiteSpace=wrap;html=1;align=center;" vertex="1" parent="1">
          <mxGeometry x="-240" y="155" width="60" height="30" as="geometry" />
        </mxCell>
        <mxCell id="F3PNHzyJ3Ug69kJnkNaL-71" value="Durum" style="ellipse;whiteSpace=wrap;html=1;align=center;" vertex="1" parent="1">
          <mxGeometry x="-210" y="190" width="60" height="30" as="geometry" />
        </mxCell>
        <mxCell id="F3PNHzyJ3Ug69kJnkNaL-72" value="KimlikOn" style="ellipse;whiteSpace=wrap;html=1;align=center;" vertex="1" parent="1">
          <mxGeometry x="-170" y="220" width="60" height="30" as="geometry" />
        </mxCell>
        <mxCell id="F3PNHzyJ3Ug69kJnkNaL-73" value="Yetki" style="ellipse;whiteSpace=wrap;html=1;align=center;" vertex="1" parent="1">
          <mxGeometry x="250" y="165" width="60" height="30" as="geometry" />
        </mxCell>
        <mxCell id="F3PNHzyJ3Ug69kJnkNaL-74" value="KimlkArka" style="ellipse;whiteSpace=wrap;html=1;align=center;" vertex="1" parent="1">
          <mxGeometry x="240" y="90" width="60" height="30" as="geometry" />
        </mxCell>
        <mxCell id="F3PNHzyJ3Ug69kJnkNaL-75" value="Sifre" style="ellipse;whiteSpace=wrap;html=1;align=center;" vertex="1" parent="1">
          <mxGeometry x="250" y="125" width="60" height="30" as="geometry" />
        </mxCell>
        <mxCell id="F3PNHzyJ3Ug69kJnkNaL-76" value="" style="endArrow=none;html=1;rounded=0;exitX=0.5;exitY=1;exitDx=0;exitDy=0;entryX=0.098;entryY=-0.005;entryDx=0;entryDy=0;entryPerimeter=0;" edge="1" parent="1" source="F3PNHzyJ3Ug69kJnkNaL-62" target="F3PNHzyJ3Ug69kJnkNaL-4">
          <mxGeometry relative="1" as="geometry">
            <mxPoint x="160" y="160" as="sourcePoint" />
            <mxPoint x="320" y="160" as="targetPoint" />
          </mxGeometry>
        </mxCell>
        <mxCell id="F3PNHzyJ3Ug69kJnkNaL-77" value="" style="endArrow=none;html=1;rounded=0;exitX=0.5;exitY=1;exitDx=0;exitDy=0;entryX=0.25;entryY=0;entryDx=0;entryDy=0;" edge="1" parent="1" source="F3PNHzyJ3Ug69kJnkNaL-63" target="F3PNHzyJ3Ug69kJnkNaL-4">
          <mxGeometry relative="1" as="geometry">
            <mxPoint x="-30" y="70" as="sourcePoint" />
            <mxPoint x="-10" y="160" as="targetPoint" />
          </mxGeometry>
        </mxCell>
        <mxCell id="F3PNHzyJ3Ug69kJnkNaL-78" value="" style="endArrow=none;html=1;rounded=0;exitX=0.5;exitY=1;exitDx=0;exitDy=0;entryX=0.4;entryY=0;entryDx=0;entryDy=0;entryPerimeter=0;" edge="1" parent="1" source="F3PNHzyJ3Ug69kJnkNaL-64" target="F3PNHzyJ3Ug69kJnkNaL-4">
          <mxGeometry relative="1" as="geometry">
            <mxPoint x="-20" y="80" as="sourcePoint" />
            <mxPoint y="170" as="targetPoint" />
          </mxGeometry>
        </mxCell>
        <mxCell id="F3PNHzyJ3Ug69kJnkNaL-79" value="" style="endArrow=none;html=1;rounded=0;exitX=0.5;exitY=1;exitDx=0;exitDy=0;entryX=0.658;entryY=-0.045;entryDx=0;entryDy=0;entryPerimeter=0;" edge="1" parent="1" source="F3PNHzyJ3Ug69kJnkNaL-470" target="F3PNHzyJ3Ug69kJnkNaL-4">
          <mxGeometry relative="1" as="geometry">
            <mxPoint x="74" y="30" as="sourcePoint" />
            <mxPoint x="10" y="180" as="targetPoint" />
          </mxGeometry>
        </mxCell>
        <mxCell id="F3PNHzyJ3Ug69kJnkNaL-80" value="" style="endArrow=none;html=1;rounded=0;exitX=0.5;exitY=1;exitDx=0;exitDy=0;entryX=0.882;entryY=-0.085;entryDx=0;entryDy=0;entryPerimeter=0;" edge="1" parent="1" source="F3PNHzyJ3Ug69kJnkNaL-65" target="F3PNHzyJ3Ug69kJnkNaL-4">
          <mxGeometry relative="1" as="geometry">
            <mxPoint y="100" as="sourcePoint" />
            <mxPoint x="20" y="190" as="targetPoint" />
          </mxGeometry>
        </mxCell>
        <mxCell id="F3PNHzyJ3Ug69kJnkNaL-81" value="" style="endArrow=none;html=1;rounded=0;exitX=0.5;exitY=1;exitDx=0;exitDy=0;" edge="1" parent="1" source="F3PNHzyJ3Ug69kJnkNaL-66">
          <mxGeometry relative="1" as="geometry">
            <mxPoint x="10" y="110" as="sourcePoint" />
            <mxPoint x="70" y="160" as="targetPoint" />
          </mxGeometry>
        </mxCell>
        <mxCell id="F3PNHzyJ3Ug69kJnkNaL-82" value="" style="endArrow=none;html=1;rounded=0;exitX=0.5;exitY=1;exitDx=0;exitDy=0;entryX=1;entryY=0.5;entryDx=0;entryDy=0;" edge="1" parent="1" source="F3PNHzyJ3Ug69kJnkNaL-67" target="F3PNHzyJ3Ug69kJnkNaL-4">
          <mxGeometry relative="1" as="geometry">
            <mxPoint x="20" y="120" as="sourcePoint" />
            <mxPoint x="150" y="150" as="targetPoint" />
          </mxGeometry>
        </mxCell>
        <mxCell id="F3PNHzyJ3Ug69kJnkNaL-83" value="" style="endArrow=none;html=1;rounded=0;exitX=1;exitY=1;exitDx=0;exitDy=0;entryX=0;entryY=0.25;entryDx=0;entryDy=0;" edge="1" parent="1" source="F3PNHzyJ3Ug69kJnkNaL-68" target="F3PNHzyJ3Ug69kJnkNaL-4">
          <mxGeometry relative="1" as="geometry">
            <mxPoint x="30" y="130" as="sourcePoint" />
            <mxPoint x="50" y="220" as="targetPoint" />
          </mxGeometry>
        </mxCell>
        <mxCell id="F3PNHzyJ3Ug69kJnkNaL-84" value="" style="endArrow=none;html=1;rounded=0;exitX=1;exitY=0.5;exitDx=0;exitDy=0;entryX=0;entryY=0.5;entryDx=0;entryDy=0;" edge="1" parent="1" source="F3PNHzyJ3Ug69kJnkNaL-69" target="F3PNHzyJ3Ug69kJnkNaL-4">
          <mxGeometry relative="1" as="geometry">
            <mxPoint x="40" y="140" as="sourcePoint" />
            <mxPoint x="60" y="230" as="targetPoint" />
          </mxGeometry>
        </mxCell>
        <mxCell id="F3PNHzyJ3Ug69kJnkNaL-85" value="" style="endArrow=none;html=1;rounded=0;exitX=1;exitY=0.5;exitDx=0;exitDy=0;entryX=0;entryY=0.75;entryDx=0;entryDy=0;" edge="1" parent="1" source="F3PNHzyJ3Ug69kJnkNaL-70" target="F3PNHzyJ3Ug69kJnkNaL-4">
          <mxGeometry relative="1" as="geometry">
            <mxPoint x="50" y="150" as="sourcePoint" />
            <mxPoint x="70" y="240" as="targetPoint" />
          </mxGeometry>
        </mxCell>
        <mxCell id="F3PNHzyJ3Ug69kJnkNaL-86" value="" style="endArrow=none;html=1;rounded=0;exitX=1;exitY=0.5;exitDx=0;exitDy=0;entryX=0;entryY=1;entryDx=0;entryDy=0;" edge="1" parent="1" source="F3PNHzyJ3Ug69kJnkNaL-71" target="F3PNHzyJ3Ug69kJnkNaL-4">
          <mxGeometry relative="1" as="geometry">
            <mxPoint x="60" y="160" as="sourcePoint" />
            <mxPoint x="80" y="250" as="targetPoint" />
          </mxGeometry>
        </mxCell>
        <mxCell id="F3PNHzyJ3Ug69kJnkNaL-87" value="" style="endArrow=none;html=1;rounded=0;exitX=1;exitY=0;exitDx=0;exitDy=0;entryX=0.098;entryY=1.055;entryDx=0;entryDy=0;entryPerimeter=0;" edge="1" parent="1" source="F3PNHzyJ3Ug69kJnkNaL-72" target="F3PNHzyJ3Ug69kJnkNaL-4">
          <mxGeometry relative="1" as="geometry">
            <mxPoint x="70" y="170" as="sourcePoint" />
            <mxPoint x="90" y="260" as="targetPoint" />
          </mxGeometry>
        </mxCell>
        <mxCell id="F3PNHzyJ3Ug69kJnkNaL-88" value="" style="endArrow=none;html=1;rounded=0;exitX=0;exitY=0.5;exitDx=0;exitDy=0;entryX=1;entryY=0.75;entryDx=0;entryDy=0;" edge="1" parent="1" source="F3PNHzyJ3Ug69kJnkNaL-74" target="F3PNHzyJ3Ug69kJnkNaL-4">
          <mxGeometry relative="1" as="geometry">
            <mxPoint x="80" y="180" as="sourcePoint" />
            <mxPoint x="100" y="270" as="targetPoint" />
          </mxGeometry>
        </mxCell>
        <mxCell id="F3PNHzyJ3Ug69kJnkNaL-89" value="" style="endArrow=none;html=1;rounded=0;exitX=0;exitY=1;exitDx=0;exitDy=0;entryX=1;entryY=0.75;entryDx=0;entryDy=0;" edge="1" parent="1" source="F3PNHzyJ3Ug69kJnkNaL-75" target="F3PNHzyJ3Ug69kJnkNaL-4">
          <mxGeometry relative="1" as="geometry">
            <mxPoint x="90" y="190" as="sourcePoint" />
            <mxPoint x="110" y="280" as="targetPoint" />
          </mxGeometry>
        </mxCell>
        <mxCell id="F3PNHzyJ3Ug69kJnkNaL-90" value="" style="endArrow=none;html=1;rounded=0;exitX=0;exitY=0.5;exitDx=0;exitDy=0;entryX=1;entryY=1;entryDx=0;entryDy=0;" edge="1" parent="1" source="F3PNHzyJ3Ug69kJnkNaL-73" target="F3PNHzyJ3Ug69kJnkNaL-4">
          <mxGeometry relative="1" as="geometry">
            <mxPoint x="100" y="200" as="sourcePoint" />
            <mxPoint x="120" y="290" as="targetPoint" />
          </mxGeometry>
        </mxCell>
        <mxCell id="F3PNHzyJ3Ug69kJnkNaL-91" value="GorevID" style="ellipse;whiteSpace=wrap;html=1;align=center;fontStyle=4;" vertex="1" parent="1">
          <mxGeometry x="-230" y="312.5" width="60" height="35" as="geometry" />
        </mxCell>
        <mxCell id="F3PNHzyJ3Ug69kJnkNaL-92" value="GorevAd" style="ellipse;whiteSpace=wrap;html=1;align=center;" vertex="1" parent="1">
          <mxGeometry x="-220" y="360" width="60" height="30" as="geometry" />
        </mxCell>
        <mxCell id="F3PNHzyJ3Ug69kJnkNaL-93" value="Departman" style="ellipse;whiteSpace=wrap;html=1;align=center;" vertex="1" parent="1">
          <mxGeometry x="-180" y="390" width="60" height="30" as="geometry" />
        </mxCell>
        <mxCell id="F3PNHzyJ3Ug69kJnkNaL-94" value="Durum" style="ellipse;whiteSpace=wrap;html=1;align=center;" vertex="1" parent="1">
          <mxGeometry x="-111" y="400" width="60" height="30" as="geometry" />
        </mxCell>
        <mxCell id="F3PNHzyJ3Ug69kJnkNaL-95" value="" style="endArrow=none;html=1;rounded=0;exitX=1;exitY=0.5;exitDx=0;exitDy=0;entryX=0;entryY=0.5;entryDx=0;entryDy=0;" edge="1" parent="1" source="F3PNHzyJ3Ug69kJnkNaL-91" target="F3PNHzyJ3Ug69kJnkNaL-5">
          <mxGeometry relative="1" as="geometry">
            <mxPoint x="-108" y="235" as="sourcePoint" />
            <mxPoint x="-10" y="202" as="targetPoint" />
          </mxGeometry>
        </mxCell>
        <mxCell id="F3PNHzyJ3Ug69kJnkNaL-96" value="" style="endArrow=none;html=1;rounded=0;exitX=1;exitY=0;exitDx=0;exitDy=0;entryX=0;entryY=0.75;entryDx=0;entryDy=0;" edge="1" parent="1" source="F3PNHzyJ3Ug69kJnkNaL-92" target="F3PNHzyJ3Ug69kJnkNaL-5">
          <mxGeometry relative="1" as="geometry">
            <mxPoint x="-98" y="245" as="sourcePoint" />
            <mxPoint y="212" as="targetPoint" />
          </mxGeometry>
        </mxCell>
        <mxCell id="F3PNHzyJ3Ug69kJnkNaL-97" value="" style="endArrow=none;html=1;rounded=0;exitX=0.5;exitY=0;exitDx=0;exitDy=0;entryX=0.25;entryY=1;entryDx=0;entryDy=0;" edge="1" parent="1" source="F3PNHzyJ3Ug69kJnkNaL-93" target="F3PNHzyJ3Ug69kJnkNaL-5">
          <mxGeometry relative="1" as="geometry">
            <mxPoint x="-88" y="255" as="sourcePoint" />
            <mxPoint x="10" y="222" as="targetPoint" />
          </mxGeometry>
        </mxCell>
        <mxCell id="F3PNHzyJ3Ug69kJnkNaL-98" value="" style="endArrow=none;html=1;rounded=0;exitX=0.5;exitY=0;exitDx=0;exitDy=0;entryX=0.5;entryY=1;entryDx=0;entryDy=0;" edge="1" parent="1" source="F3PNHzyJ3Ug69kJnkNaL-94" target="F3PNHzyJ3Ug69kJnkNaL-5">
          <mxGeometry relative="1" as="geometry">
            <mxPoint x="-78" y="265" as="sourcePoint" />
            <mxPoint x="20" y="232" as="targetPoint" />
          </mxGeometry>
        </mxCell>
        <mxCell id="F3PNHzyJ3Ug69kJnkNaL-99" value="DepartmanID" style="ellipse;whiteSpace=wrap;html=1;align=center;fontStyle=4;" vertex="1" parent="1">
          <mxGeometry x="50" y="385" width="60" height="35" as="geometry" />
        </mxCell>
        <mxCell id="F3PNHzyJ3Ug69kJnkNaL-100" value="DepartmanAd" style="ellipse;whiteSpace=wrap;html=1;align=center;" vertex="1" parent="1">
          <mxGeometry x="130" y="390" width="60" height="30" as="geometry" />
        </mxCell>
        <mxCell id="F3PNHzyJ3Ug69kJnkNaL-101" value="Telefon" style="ellipse;whiteSpace=wrap;html=1;align=center;" vertex="1" parent="1">
          <mxGeometry x="200" y="380" width="60" height="30" as="geometry" />
        </mxCell>
        <mxCell id="F3PNHzyJ3Ug69kJnkNaL-102" value="Durum" style="ellipse;whiteSpace=wrap;html=1;align=center;" vertex="1" parent="1">
          <mxGeometry x="230" y="347.5" width="60" height="30" as="geometry" />
        </mxCell>
        <mxCell id="F3PNHzyJ3Ug69kJnkNaL-103" value="" style="endArrow=none;html=1;rounded=0;exitX=0.25;exitY=1;exitDx=0;exitDy=0;entryX=0.5;entryY=0;entryDx=0;entryDy=0;" edge="1" parent="1" source="F3PNHzyJ3Ug69kJnkNaL-6" target="F3PNHzyJ3Ug69kJnkNaL-99">
          <mxGeometry relative="1" as="geometry">
            <mxPoint x="-158" y="375" as="sourcePoint" />
            <mxPoint x="-110" y="350" as="targetPoint" />
          </mxGeometry>
        </mxCell>
        <mxCell id="F3PNHzyJ3Ug69kJnkNaL-104" value="" style="endArrow=none;html=1;rounded=0;exitX=0.75;exitY=1;exitDx=0;exitDy=0;entryX=0.5;entryY=0;entryDx=0;entryDy=0;" edge="1" parent="1" source="F3PNHzyJ3Ug69kJnkNaL-6" target="F3PNHzyJ3Ug69kJnkNaL-100">
          <mxGeometry relative="1" as="geometry">
            <mxPoint x="-148" y="385" as="sourcePoint" />
            <mxPoint x="-100" y="360" as="targetPoint" />
          </mxGeometry>
        </mxCell>
        <mxCell id="F3PNHzyJ3Ug69kJnkNaL-105" value="" style="endArrow=none;html=1;rounded=0;exitX=1;exitY=1;exitDx=0;exitDy=0;entryX=0.5;entryY=0;entryDx=0;entryDy=0;" edge="1" parent="1" source="F3PNHzyJ3Ug69kJnkNaL-6" target="F3PNHzyJ3Ug69kJnkNaL-101">
          <mxGeometry relative="1" as="geometry">
            <mxPoint x="-138" y="395" as="sourcePoint" />
            <mxPoint x="-90" y="370" as="targetPoint" />
          </mxGeometry>
        </mxCell>
        <mxCell id="F3PNHzyJ3Ug69kJnkNaL-106" value="" style="endArrow=none;html=1;rounded=0;exitX=1;exitY=0.5;exitDx=0;exitDy=0;entryX=0;entryY=0.5;entryDx=0;entryDy=0;" edge="1" parent="1" source="F3PNHzyJ3Ug69kJnkNaL-6" target="F3PNHzyJ3Ug69kJnkNaL-102">
          <mxGeometry relative="1" as="geometry">
            <mxPoint x="-128" y="405" as="sourcePoint" />
            <mxPoint x="-80" y="380" as="targetPoint" />
          </mxGeometry>
        </mxCell>
        <mxCell id="F3PNHzyJ3Ug69kJnkNaL-107" value="DurumID" style="ellipse;whiteSpace=wrap;html=1;align=center;fontStyle=4;" vertex="1" parent="1">
          <mxGeometry x="340" y="315" width="60" height="35" as="geometry" />
        </mxCell>
        <mxCell id="F3PNHzyJ3Ug69kJnkNaL-108" value="DurumAd" style="ellipse;whiteSpace=wrap;html=1;align=center;" vertex="1" parent="1">
          <mxGeometry x="340" y="362.5" width="60" height="30" as="geometry" />
        </mxCell>
        <mxCell id="F3PNHzyJ3Ug69kJnkNaL-109" value="" style="endArrow=none;html=1;rounded=0;exitX=1;exitY=0.5;exitDx=0;exitDy=0;entryX=0;entryY=0.75;entryDx=0;entryDy=0;" edge="1" parent="1" source="F3PNHzyJ3Ug69kJnkNaL-107" target="F3PNHzyJ3Ug69kJnkNaL-8">
          <mxGeometry relative="1" as="geometry">
            <mxPoint x="180" y="380" as="sourcePoint" />
            <mxPoint x="240" y="413" as="targetPoint" />
          </mxGeometry>
        </mxCell>
        <mxCell id="F3PNHzyJ3Ug69kJnkNaL-110" value="" style="endArrow=none;html=1;rounded=0;exitX=1;exitY=0;exitDx=0;exitDy=0;entryX=0;entryY=1;entryDx=0;entryDy=0;" edge="1" parent="1" source="F3PNHzyJ3Ug69kJnkNaL-108" target="F3PNHzyJ3Ug69kJnkNaL-8">
          <mxGeometry relative="1" as="geometry">
            <mxPoint x="190" y="390" as="sourcePoint" />
            <mxPoint x="320" y="370" as="targetPoint" />
          </mxGeometry>
        </mxCell>
        <mxCell id="F3PNHzyJ3Ug69kJnkNaL-111" value="KasaID" style="ellipse;whiteSpace=wrap;html=1;align=center;fontStyle=4;" vertex="1" parent="1">
          <mxGeometry x="340" y="55.7" width="60" height="35" as="geometry" />
        </mxCell>
        <mxCell id="F3PNHzyJ3Ug69kJnkNaL-112" value="KasaAdi" style="ellipse;whiteSpace=wrap;html=1;align=center;" vertex="1" parent="1">
          <mxGeometry x="390" y="23.12" width="60" height="30" as="geometry" />
        </mxCell>
        <mxCell id="F3PNHzyJ3Ug69kJnkNaL-113" value="Bakiye" style="ellipse;whiteSpace=wrap;html=1;align=center;" vertex="1" parent="1">
          <mxGeometry x="450" y="12.42" width="60" height="30" as="geometry" />
        </mxCell>
        <mxCell id="F3PNHzyJ3Ug69kJnkNaL-114" value="Giren" style="ellipse;whiteSpace=wrap;html=1;align=center;" vertex="1" parent="1">
          <mxGeometry x="520" y="12.42" width="60" height="30" as="geometry" />
        </mxCell>
        <mxCell id="F3PNHzyJ3Ug69kJnkNaL-115" value="Cikan" style="ellipse;whiteSpace=wrap;html=1;align=center;" vertex="1" parent="1">
          <mxGeometry x="580" y="33.120000000000005" width="60" height="30" as="geometry" />
        </mxCell>
        <mxCell id="F3PNHzyJ3Ug69kJnkNaL-116" value="Durum" style="ellipse;whiteSpace=wrap;html=1;align=center;" vertex="1" parent="1">
          <mxGeometry x="610" y="63.120000000000005" width="60" height="30" as="geometry" />
        </mxCell>
        <mxCell id="F3PNHzyJ3Ug69kJnkNaL-117" value="" style="endArrow=none;html=1;rounded=0;exitX=1;exitY=1;exitDx=0;exitDy=0;entryX=0;entryY=0.75;entryDx=0;entryDy=0;" edge="1" parent="1" source="F3PNHzyJ3Ug69kJnkNaL-111" target="F3PNHzyJ3Ug69kJnkNaL-7">
          <mxGeometry relative="1" as="geometry">
            <mxPoint x="391.6416196309078" y="77.73930699330822" as="sourcePoint" />
            <mxPoint x="240" y="366.12" as="targetPoint" />
          </mxGeometry>
        </mxCell>
        <mxCell id="F3PNHzyJ3Ug69kJnkNaL-118" value="" style="endArrow=none;html=1;rounded=0;exitX=0.5;exitY=1;exitDx=0;exitDy=0;entryX=0;entryY=0;entryDx=0;entryDy=0;" edge="1" parent="1" source="F3PNHzyJ3Ug69kJnkNaL-112" target="F3PNHzyJ3Ug69kJnkNaL-7">
          <mxGeometry relative="1" as="geometry">
            <mxPoint x="190" y="343.12" as="sourcePoint" />
            <mxPoint x="250" y="376.12" as="targetPoint" />
          </mxGeometry>
        </mxCell>
        <mxCell id="F3PNHzyJ3Ug69kJnkNaL-119" value="" style="endArrow=none;html=1;rounded=0;exitX=0.5;exitY=1;exitDx=0;exitDy=0;entryX=0.374;entryY=0.054;entryDx=0;entryDy=0;entryPerimeter=0;" edge="1" parent="1" source="F3PNHzyJ3Ug69kJnkNaL-113" target="F3PNHzyJ3Ug69kJnkNaL-7">
          <mxGeometry relative="1" as="geometry">
            <mxPoint x="490.7399999999998" y="40.74999999999996" as="sourcePoint" />
            <mxPoint x="495" y="103.12" as="targetPoint" />
          </mxGeometry>
        </mxCell>
        <mxCell id="F3PNHzyJ3Ug69kJnkNaL-120" value="" style="endArrow=none;html=1;rounded=0;exitX=0.5;exitY=1;exitDx=0;exitDy=0;entryX=0.75;entryY=0;entryDx=0;entryDy=0;" edge="1" parent="1" source="F3PNHzyJ3Ug69kJnkNaL-114" target="F3PNHzyJ3Ug69kJnkNaL-7">
          <mxGeometry relative="1" as="geometry">
            <mxPoint x="541.6000000000004" y="44.529999999999816" as="sourcePoint" />
            <mxPoint x="505" y="113.12" as="targetPoint" />
          </mxGeometry>
        </mxCell>
        <mxCell id="F3PNHzyJ3Ug69kJnkNaL-121" value="" style="endArrow=none;html=1;rounded=0;exitX=0;exitY=1;exitDx=0;exitDy=0;entryX=1;entryY=0;entryDx=0;entryDy=0;" edge="1" parent="1" source="F3PNHzyJ3Ug69kJnkNaL-115" target="F3PNHzyJ3Ug69kJnkNaL-7">
          <mxGeometry relative="1" as="geometry">
            <mxPoint x="540" y="68.12" as="sourcePoint" />
            <mxPoint x="515" y="123.12" as="targetPoint" />
          </mxGeometry>
        </mxCell>
        <mxCell id="F3PNHzyJ3Ug69kJnkNaL-122" value="" style="endArrow=none;html=1;rounded=0;exitX=0;exitY=1;exitDx=0;exitDy=0;entryX=1;entryY=0.75;entryDx=0;entryDy=0;" edge="1" parent="1" source="F3PNHzyJ3Ug69kJnkNaL-116" target="F3PNHzyJ3Ug69kJnkNaL-7">
          <mxGeometry relative="1" as="geometry">
            <mxPoint x="550" y="78.12" as="sourcePoint" />
            <mxPoint x="525" y="133.11999999999998" as="targetPoint" />
          </mxGeometry>
        </mxCell>
        <mxCell id="F3PNHzyJ3Ug69kJnkNaL-123" style="edgeStyle=orthogonalEdgeStyle;rounded=0;orthogonalLoop=1;jettySize=auto;html=1;exitX=0.5;exitY=1;exitDx=0;exitDy=0;" edge="1" parent="1" source="F3PNHzyJ3Ug69kJnkNaL-115" target="F3PNHzyJ3Ug69kJnkNaL-115">
          <mxGeometry relative="1" as="geometry" />
        </mxCell>
        <mxCell id="F3PNHzyJ3Ug69kJnkNaL-124" value="MisafirID" style="ellipse;whiteSpace=wrap;html=1;align=center;fontStyle=4;" vertex="1" parent="1">
          <mxGeometry x="755" y="-170" width="60" height="35" as="geometry" />
        </mxCell>
        <mxCell id="F3PNHzyJ3Ug69kJnkNaL-125" value="AdSoyad" style="ellipse;whiteSpace=wrap;html=1;align=center;" vertex="1" parent="1">
          <mxGeometry x="780" y="-213.29" width="60" height="30" as="geometry" />
        </mxCell>
        <mxCell id="F3PNHzyJ3Ug69kJnkNaL-126" value="TC" style="ellipse;whiteSpace=wrap;html=1;align=center;" vertex="1" parent="1">
          <mxGeometry x="815" y="-249.99999999999997" width="60" height="30" as="geometry" />
        </mxCell>
        <mxCell id="F3PNHzyJ3Ug69kJnkNaL-127" value="Mail" style="ellipse;whiteSpace=wrap;html=1;align=center;" vertex="1" parent="1">
          <mxGeometry x="870.0000000000001" y="-289.99999999999994" width="60" height="30" as="geometry" />
        </mxCell>
        <mxCell id="F3PNHzyJ3Ug69kJnkNaL-128" value="Telefon" style="ellipse;whiteSpace=wrap;html=1;align=center;" vertex="1" parent="1">
          <mxGeometry x="940.0000000000001" y="-309.99999999999994" width="60" height="30" as="geometry" />
        </mxCell>
        <mxCell id="F3PNHzyJ3Ug69kJnkNaL-129" value="Adres" style="ellipse;whiteSpace=wrap;html=1;align=center;" vertex="1" parent="1">
          <mxGeometry x="1010.0000000000002" y="-309.99999999999994" width="60" height="30" as="geometry" />
        </mxCell>
        <mxCell id="F3PNHzyJ3Ug69kJnkNaL-130" value="Aciklama" style="ellipse;whiteSpace=wrap;html=1;align=center;" vertex="1" parent="1">
          <mxGeometry x="1080.0000000000002" y="-294.17" width="60" height="30" as="geometry" />
        </mxCell>
        <mxCell id="F3PNHzyJ3Ug69kJnkNaL-131" value="KimlikFoto1" style="ellipse;whiteSpace=wrap;html=1;align=center;" vertex="1" parent="1">
          <mxGeometry x="1140.0000000000002" y="-264.16999999999996" width="60" height="30" as="geometry" />
        </mxCell>
        <mxCell id="F3PNHzyJ3Ug69kJnkNaL-132" value="KimlikFoto2" style="ellipse;whiteSpace=wrap;html=1;align=center;" vertex="1" parent="1">
          <mxGeometry x="1173.5900000000001" y="-230" width="60" height="30" as="geometry" />
        </mxCell>
        <mxCell id="F3PNHzyJ3Ug69kJnkNaL-133" value="Ulke" style="ellipse;whiteSpace=wrap;html=1;align=center;" vertex="1" parent="1">
          <mxGeometry x="1216.0000000000002" y="-196.00000000000003" width="60" height="30" as="geometry" />
        </mxCell>
        <mxCell id="F3PNHzyJ3Ug69kJnkNaL-134" value="Durum" style="ellipse;whiteSpace=wrap;html=1;align=center;" vertex="1" parent="1">
          <mxGeometry x="1234.0000000000002" y="-160" width="60" height="30" as="geometry" />
        </mxCell>
        <mxCell id="F3PNHzyJ3Ug69kJnkNaL-135" value="sehir" style="ellipse;whiteSpace=wrap;html=1;align=center;" vertex="1" parent="1">
          <mxGeometry x="1235.0000000000002" y="-123.71000000000001" width="60" height="30" as="geometry" />
        </mxCell>
        <mxCell id="F3PNHzyJ3Ug69kJnkNaL-136" value="ilce" style="ellipse;whiteSpace=wrap;html=1;align=center;" vertex="1" parent="1">
          <mxGeometry x="1217.0000000000002" y="-89.71000000000001" width="60" height="30" as="geometry" />
        </mxCell>
        <mxCell id="F3PNHzyJ3Ug69kJnkNaL-137" value="" style="endArrow=none;html=1;rounded=0;exitX=0.5;exitY=1;exitDx=0;exitDy=0;entryX=0;entryY=0.25;entryDx=0;entryDy=0;" edge="1" parent="1" source="F3PNHzyJ3Ug69kJnkNaL-124" target="F3PNHzyJ3Ug69kJnkNaL-9">
          <mxGeometry relative="1" as="geometry">
            <mxPoint x="430.00000000000006" y="-5.710000000000001" as="sourcePoint" />
            <mxPoint x="250.00000000000006" y="4.289999999999999" as="targetPoint" />
          </mxGeometry>
        </mxCell>
        <mxCell id="F3PNHzyJ3Ug69kJnkNaL-138" value="" style="endArrow=none;html=1;rounded=0;exitX=0.5;exitY=1;exitDx=0;exitDy=0;entryX=0;entryY=0;entryDx=0;entryDy=0;" edge="1" parent="1" source="F3PNHzyJ3Ug69kJnkNaL-125" target="F3PNHzyJ3Ug69kJnkNaL-9">
          <mxGeometry relative="1" as="geometry">
            <mxPoint x="840" y="-208.71" as="sourcePoint" />
            <mxPoint x="950.0000000000001" y="-75.71000000000001" as="targetPoint" />
          </mxGeometry>
        </mxCell>
        <mxCell id="F3PNHzyJ3Ug69kJnkNaL-139" value="" style="endArrow=none;html=1;rounded=0;exitX=0.5;exitY=1;exitDx=0;exitDy=0;entryX=0.149;entryY=-0.011;entryDx=0;entryDy=0;entryPerimeter=0;" edge="1" parent="1" source="F3PNHzyJ3Ug69kJnkNaL-126" target="F3PNHzyJ3Ug69kJnkNaL-9">
          <mxGeometry relative="1" as="geometry">
            <mxPoint x="850" y="-198.71" as="sourcePoint" />
            <mxPoint x="960.0000000000001" y="-65.71000000000001" as="targetPoint" />
          </mxGeometry>
        </mxCell>
        <mxCell id="F3PNHzyJ3Ug69kJnkNaL-140" value="" style="endArrow=none;html=1;rounded=0;entryX=0.25;entryY=0;entryDx=0;entryDy=0;exitX=0.5;exitY=1;exitDx=0;exitDy=0;" edge="1" parent="1" source="F3PNHzyJ3Ug69kJnkNaL-127" target="F3PNHzyJ3Ug69kJnkNaL-9">
          <mxGeometry relative="1" as="geometry">
            <mxPoint x="980.0000000000001" y="-295.71" as="sourcePoint" />
            <mxPoint x="970.0000000000001" y="-55.71000000000001" as="targetPoint" />
          </mxGeometry>
        </mxCell>
        <mxCell id="F3PNHzyJ3Ug69kJnkNaL-141" value="" style="endArrow=none;html=1;rounded=0;exitX=0.5;exitY=1;exitDx=0;exitDy=0;entryX=0.377;entryY=0.075;entryDx=0;entryDy=0;entryPerimeter=0;" edge="1" parent="1" source="F3PNHzyJ3Ug69kJnkNaL-128" target="F3PNHzyJ3Ug69kJnkNaL-9">
          <mxGeometry relative="1" as="geometry">
            <mxPoint x="997.0000000000001" y="-283.71" as="sourcePoint" />
            <mxPoint x="1020.0000000000001" y="-145.71" as="targetPoint" />
          </mxGeometry>
        </mxCell>
        <mxCell id="F3PNHzyJ3Ug69kJnkNaL-142" value="" style="endArrow=none;html=1;rounded=0;entryX=0.5;entryY=0;entryDx=0;entryDy=0;exitX=0.5;exitY=1;exitDx=0;exitDy=0;" edge="1" parent="1" source="F3PNHzyJ3Ug69kJnkNaL-129" target="F3PNHzyJ3Ug69kJnkNaL-9">
          <mxGeometry relative="1" as="geometry">
            <mxPoint x="1007.0000000000001" y="-273.71" as="sourcePoint" />
            <mxPoint x="985.0000000000001" y="-75.71000000000001" as="targetPoint" />
          </mxGeometry>
        </mxCell>
        <mxCell id="F3PNHzyJ3Ug69kJnkNaL-143" value="" style="endArrow=none;html=1;rounded=0;entryX=0.64;entryY=0.075;entryDx=0;entryDy=0;exitX=0.5;exitY=1;exitDx=0;exitDy=0;entryPerimeter=0;" edge="1" parent="1" source="F3PNHzyJ3Ug69kJnkNaL-130" target="F3PNHzyJ3Ug69kJnkNaL-9">
          <mxGeometry relative="1" as="geometry">
            <mxPoint x="1017.0000000000001" y="-263.71" as="sourcePoint" />
            <mxPoint x="995.0000000000001" y="-65.71000000000001" as="targetPoint" />
          </mxGeometry>
        </mxCell>
        <mxCell id="F3PNHzyJ3Ug69kJnkNaL-144" value="" style="endArrow=none;html=1;rounded=0;entryX=0.857;entryY=0.046;entryDx=0;entryDy=0;exitX=0.5;exitY=1;exitDx=0;exitDy=0;entryPerimeter=0;" edge="1" parent="1" source="F3PNHzyJ3Ug69kJnkNaL-131" target="F3PNHzyJ3Ug69kJnkNaL-9">
          <mxGeometry relative="1" as="geometry">
            <mxPoint x="1027" y="-253.71" as="sourcePoint" />
            <mxPoint x="1005.0000000000001" y="-55.71000000000001" as="targetPoint" />
          </mxGeometry>
        </mxCell>
        <mxCell id="F3PNHzyJ3Ug69kJnkNaL-145" value="" style="endArrow=none;html=1;rounded=0;entryX=1;entryY=0;entryDx=0;entryDy=0;exitX=0;exitY=1;exitDx=0;exitDy=0;" edge="1" parent="1" source="F3PNHzyJ3Ug69kJnkNaL-132" target="F3PNHzyJ3Ug69kJnkNaL-9">
          <mxGeometry relative="1" as="geometry">
            <mxPoint x="1037" y="-243.71" as="sourcePoint" />
            <mxPoint x="1015.0000000000001" y="-45.71000000000001" as="targetPoint" />
          </mxGeometry>
        </mxCell>
        <mxCell id="F3PNHzyJ3Ug69kJnkNaL-146" value="" style="endArrow=none;html=1;rounded=0;entryX=1;entryY=0;entryDx=0;entryDy=0;exitX=0;exitY=0.5;exitDx=0;exitDy=0;" edge="1" parent="1" source="F3PNHzyJ3Ug69kJnkNaL-133" target="F3PNHzyJ3Ug69kJnkNaL-9">
          <mxGeometry relative="1" as="geometry">
            <mxPoint x="1047.0000000000002" y="-233.71" as="sourcePoint" />
            <mxPoint x="1025" y="-35.71000000000001" as="targetPoint" />
          </mxGeometry>
        </mxCell>
        <mxCell id="F3PNHzyJ3Ug69kJnkNaL-147" value="" style="endArrow=none;html=1;rounded=0;entryX=1;entryY=0.25;entryDx=0;entryDy=0;exitX=0;exitY=0.5;exitDx=0;exitDy=0;" edge="1" parent="1" source="F3PNHzyJ3Ug69kJnkNaL-134" target="F3PNHzyJ3Ug69kJnkNaL-9">
          <mxGeometry relative="1" as="geometry">
            <mxPoint x="1057.0000000000002" y="-223.71" as="sourcePoint" />
            <mxPoint x="1035" y="-25.71" as="targetPoint" />
          </mxGeometry>
        </mxCell>
        <mxCell id="F3PNHzyJ3Ug69kJnkNaL-148" value="" style="endArrow=none;html=1;rounded=0;entryX=1;entryY=0.25;entryDx=0;entryDy=0;exitX=0;exitY=0.5;exitDx=0;exitDy=0;" edge="1" parent="1" source="F3PNHzyJ3Ug69kJnkNaL-135" target="F3PNHzyJ3Ug69kJnkNaL-9">
          <mxGeometry relative="1" as="geometry">
            <mxPoint x="1067.0000000000002" y="-213.71" as="sourcePoint" />
            <mxPoint x="1045.0000000000002" y="-15.71" as="targetPoint" />
          </mxGeometry>
        </mxCell>
        <mxCell id="F3PNHzyJ3Ug69kJnkNaL-149" value="" style="endArrow=none;html=1;rounded=0;entryX=1;entryY=0.5;entryDx=0;entryDy=0;exitX=0;exitY=1;exitDx=0;exitDy=0;" edge="1" parent="1" source="F3PNHzyJ3Ug69kJnkNaL-136" target="F3PNHzyJ3Ug69kJnkNaL-9">
          <mxGeometry relative="1" as="geometry">
            <mxPoint x="1077.0000000000002" y="-203.71" as="sourcePoint" />
            <mxPoint x="1055.0000000000002" y="-5.710000000000001" as="targetPoint" />
          </mxGeometry>
        </mxCell>
        <mxCell id="F3PNHzyJ3Ug69kJnkNaL-150" value="id" style="ellipse;whiteSpace=wrap;html=1;align=center;fontStyle=4;" vertex="1" parent="1">
          <mxGeometry x="1563.0000000000002" y="-112.19000000000001" width="60" height="35" as="geometry" />
        </mxCell>
        <mxCell id="F3PNHzyJ3Ug69kJnkNaL-151" value="sehir" style="ellipse;whiteSpace=wrap;html=1;align=center;" vertex="1" parent="1">
          <mxGeometry x="1603.0000000000002" y="-70.31" width="60" height="30" as="geometry" />
        </mxCell>
        <mxCell id="F3PNHzyJ3Ug69kJnkNaL-152" value="" style="endArrow=none;html=1;rounded=0;entryX=0.5;entryY=0;entryDx=0;entryDy=0;exitX=0;exitY=1;exitDx=0;exitDy=0;" edge="1" parent="1" source="F3PNHzyJ3Ug69kJnkNaL-150" target="F3PNHzyJ3Ug69kJnkNaL-10">
          <mxGeometry relative="1" as="geometry">
            <mxPoint x="1631.0000000000002" y="-140.31" as="sourcePoint" />
            <mxPoint x="1705.0000000000002" y="-70.31" as="targetPoint" />
          </mxGeometry>
        </mxCell>
        <mxCell id="F3PNHzyJ3Ug69kJnkNaL-153" value="" style="endArrow=none;html=1;rounded=0;exitX=0;exitY=0.5;exitDx=0;exitDy=0;entryX=1;entryY=0.25;entryDx=0;entryDy=0;" edge="1" parent="1" source="F3PNHzyJ3Ug69kJnkNaL-151" target="F3PNHzyJ3Ug69kJnkNaL-10">
          <mxGeometry relative="1" as="geometry">
            <mxPoint x="1481.0000000000002" y="-115.31000000000002" as="sourcePoint" />
            <mxPoint x="1623.0000000000002" y="-15.309999999999995" as="targetPoint" />
          </mxGeometry>
        </mxCell>
        <mxCell id="F3PNHzyJ3Ug69kJnkNaL-154" value="id" style="ellipse;whiteSpace=wrap;html=1;align=center;fontStyle=4;" vertex="1" parent="1">
          <mxGeometry x="1609.5000000000002" y="44.69" width="60" height="35" as="geometry" />
        </mxCell>
        <mxCell id="F3PNHzyJ3Ug69kJnkNaL-155" value="" style="endArrow=none;html=1;rounded=0;entryX=1;entryY=0.25;entryDx=0;entryDy=0;exitX=0;exitY=0.5;exitDx=0;exitDy=0;" edge="1" parent="1" source="F3PNHzyJ3Ug69kJnkNaL-154" target="F3PNHzyJ3Ug69kJnkNaL-11">
          <mxGeometry relative="1" as="geometry">
            <mxPoint x="1618.5000000000002" y="-45.309999999999995" as="sourcePoint" />
            <mxPoint x="1576.4999999999998" y="79.69" as="targetPoint" />
          </mxGeometry>
        </mxCell>
        <mxCell id="F3PNHzyJ3Ug69kJnkNaL-156" value="ilce" style="ellipse;whiteSpace=wrap;html=1;align=center;" vertex="1" parent="1">
          <mxGeometry x="1609.5000000000002" y="92.19" width="60" height="30" as="geometry" />
        </mxCell>
        <mxCell id="F3PNHzyJ3Ug69kJnkNaL-157" value="sehir" style="ellipse;whiteSpace=wrap;html=1;align=center;" vertex="1" parent="1">
          <mxGeometry x="1563.0000000000002" y="132.18999999999997" width="60" height="30" as="geometry" />
        </mxCell>
        <mxCell id="F3PNHzyJ3Ug69kJnkNaL-158" value="" style="endArrow=none;html=1;rounded=0;entryX=1;entryY=0.75;entryDx=0;entryDy=0;exitX=0;exitY=0.5;exitDx=0;exitDy=0;" edge="1" parent="1" source="F3PNHzyJ3Ug69kJnkNaL-156" target="F3PNHzyJ3Ug69kJnkNaL-11">
          <mxGeometry relative="1" as="geometry">
            <mxPoint x="1619.5000000000002" y="72.69" as="sourcePoint" />
            <mxPoint x="1576.4999999999998" y="99.68999999999997" as="targetPoint" />
          </mxGeometry>
        </mxCell>
        <mxCell id="F3PNHzyJ3Ug69kJnkNaL-159" value="" style="endArrow=none;html=1;rounded=0;entryX=0.75;entryY=1;entryDx=0;entryDy=0;exitX=0;exitY=0;exitDx=0;exitDy=0;" edge="1" parent="1" source="F3PNHzyJ3Ug69kJnkNaL-157" target="F3PNHzyJ3Ug69kJnkNaL-11">
          <mxGeometry relative="1" as="geometry">
            <mxPoint x="1623.0000000000002" y="47.69" as="sourcePoint" />
            <mxPoint x="1590.0000000000002" y="64.69" as="targetPoint" />
          </mxGeometry>
        </mxCell>
        <mxCell id="F3PNHzyJ3Ug69kJnkNaL-160" value="BirimID" style="ellipse;whiteSpace=wrap;html=1;align=center;fontStyle=4;" vertex="1" parent="1">
          <mxGeometry x="-204.5" y="585" width="60" height="35" as="geometry" />
        </mxCell>
        <mxCell id="F3PNHzyJ3Ug69kJnkNaL-161" value="BirimAd" style="ellipse;whiteSpace=wrap;html=1;align=center;" vertex="1" parent="1">
          <mxGeometry x="-225.5" y="625" width="60" height="30" as="geometry" />
        </mxCell>
        <mxCell id="F3PNHzyJ3Ug69kJnkNaL-162" value="Durum" style="ellipse;whiteSpace=wrap;html=1;align=center;" vertex="1" parent="1">
          <mxGeometry x="-214.5" y="665" width="60" height="30" as="geometry" />
        </mxCell>
        <mxCell id="F3PNHzyJ3Ug69kJnkNaL-163" value="UrunGrup" style="ellipse;whiteSpace=wrap;html=1;align=center;" vertex="1" parent="1">
          <mxGeometry x="152" y="730" width="60" height="30" as="geometry" />
        </mxCell>
        <mxCell id="F3PNHzyJ3Ug69kJnkNaL-164" value="UrunAd" style="ellipse;whiteSpace=wrap;html=1;align=center;" vertex="1" parent="1">
          <mxGeometry x="122" y="690" width="60" height="30" as="geometry" />
        </mxCell>
        <mxCell id="F3PNHzyJ3Ug69kJnkNaL-165" value="UrunID" style="ellipse;whiteSpace=wrap;html=1;align=center;fontStyle=4;" vertex="1" parent="1">
          <mxGeometry x="112" y="645" width="60" height="35" as="geometry" />
        </mxCell>
        <mxCell id="F3PNHzyJ3Ug69kJnkNaL-166" value="" style="endArrow=none;html=1;rounded=0;exitX=0;exitY=0;exitDx=0;exitDy=0;entryX=1;entryY=0.5;entryDx=0;entryDy=0;" edge="1" parent="1" source="F3PNHzyJ3Ug69kJnkNaL-18" target="F3PNHzyJ3Ug69kJnkNaL-160">
          <mxGeometry relative="1" as="geometry">
            <mxPoint x="-9.5" y="125" as="sourcePoint" />
            <mxPoint x="-24.5" y="160" as="targetPoint" />
          </mxGeometry>
        </mxCell>
        <mxCell id="F3PNHzyJ3Ug69kJnkNaL-167" value="" style="endArrow=none;html=1;rounded=0;exitX=0;exitY=0.25;exitDx=0;exitDy=0;entryX=1;entryY=0.5;entryDx=0;entryDy=0;" edge="1" parent="1" source="F3PNHzyJ3Ug69kJnkNaL-18" target="F3PNHzyJ3Ug69kJnkNaL-161">
          <mxGeometry relative="1" as="geometry">
            <mxPoint x="0.5" y="135" as="sourcePoint" />
            <mxPoint x="-174.5" y="635" as="targetPoint" />
          </mxGeometry>
        </mxCell>
        <mxCell id="F3PNHzyJ3Ug69kJnkNaL-168" value="" style="endArrow=none;html=1;rounded=0;exitX=0;exitY=1;exitDx=0;exitDy=0;entryX=1;entryY=0;entryDx=0;entryDy=0;" edge="1" parent="1" source="F3PNHzyJ3Ug69kJnkNaL-18" target="F3PNHzyJ3Ug69kJnkNaL-162">
          <mxGeometry relative="1" as="geometry">
            <mxPoint x="10.5" y="145" as="sourcePoint" />
            <mxPoint x="-4.5" y="180" as="targetPoint" />
          </mxGeometry>
        </mxCell>
        <mxCell id="F3PNHzyJ3Ug69kJnkNaL-169" value="Birim" style="ellipse;whiteSpace=wrap;html=1;align=center;" vertex="1" parent="1">
          <mxGeometry x="212" y="750" width="60" height="30" as="geometry" />
        </mxCell>
        <mxCell id="F3PNHzyJ3Ug69kJnkNaL-170" value="Fiyat" style="ellipse;whiteSpace=wrap;html=1;align=center;" vertex="1" parent="1">
          <mxGeometry x="326" y="750" width="60" height="30" as="geometry" />
        </mxCell>
        <mxCell id="F3PNHzyJ3Ug69kJnkNaL-171" value="Toplam" style="ellipse;whiteSpace=wrap;html=1;align=center;" vertex="1" parent="1">
          <mxGeometry x="382" y="730" width="60" height="30" as="geometry" />
        </mxCell>
        <mxCell id="F3PNHzyJ3Ug69kJnkNaL-172" value="Kdv" style="ellipse;whiteSpace=wrap;html=1;align=center;" vertex="1" parent="1">
          <mxGeometry x="462" y="680" width="60" height="30" as="geometry" />
        </mxCell>
        <mxCell id="F3PNHzyJ3Ug69kJnkNaL-173" value="Durum" style="ellipse;whiteSpace=wrap;html=1;align=center;" vertex="1" parent="1">
          <mxGeometry x="432" y="710" width="60" height="30" as="geometry" />
        </mxCell>
        <mxCell id="F3PNHzyJ3Ug69kJnkNaL-174" value="" style="endArrow=none;html=1;rounded=0;exitX=0;exitY=0.75;exitDx=0;exitDy=0;entryX=1;entryY=0.5;entryDx=0;entryDy=0;" edge="1" parent="1" source="F3PNHzyJ3Ug69kJnkNaL-17" target="F3PNHzyJ3Ug69kJnkNaL-165">
          <mxGeometry relative="1" as="geometry">
            <mxPoint x="-38" y="610" as="sourcePoint" />
            <mxPoint x="-129" y="615" as="targetPoint" />
          </mxGeometry>
        </mxCell>
        <mxCell id="F3PNHzyJ3Ug69kJnkNaL-175" value="" style="endArrow=none;html=1;rounded=0;exitX=0;exitY=1;exitDx=0;exitDy=0;entryX=1;entryY=0;entryDx=0;entryDy=0;" edge="1" parent="1" source="F3PNHzyJ3Ug69kJnkNaL-17" target="F3PNHzyJ3Ug69kJnkNaL-164">
          <mxGeometry relative="1" as="geometry">
            <mxPoint x="-28" y="620" as="sourcePoint" />
            <mxPoint x="-119" y="625" as="targetPoint" />
          </mxGeometry>
        </mxCell>
        <mxCell id="F3PNHzyJ3Ug69kJnkNaL-176" value="" style="endArrow=none;html=1;rounded=0;exitX=0.25;exitY=1;exitDx=0;exitDy=0;entryX=0.5;entryY=0;entryDx=0;entryDy=0;" edge="1" parent="1" source="F3PNHzyJ3Ug69kJnkNaL-17" target="F3PNHzyJ3Ug69kJnkNaL-163">
          <mxGeometry relative="1" as="geometry">
            <mxPoint x="-18" y="630" as="sourcePoint" />
            <mxPoint x="-109" y="635" as="targetPoint" />
          </mxGeometry>
        </mxCell>
        <mxCell id="F3PNHzyJ3Ug69kJnkNaL-177" value="" style="endArrow=none;html=1;rounded=0;exitX=0.5;exitY=1;exitDx=0;exitDy=0;entryX=0.5;entryY=0;entryDx=0;entryDy=0;" edge="1" parent="1" source="F3PNHzyJ3Ug69kJnkNaL-17" target="F3PNHzyJ3Ug69kJnkNaL-169">
          <mxGeometry relative="1" as="geometry">
            <mxPoint x="-8" y="640" as="sourcePoint" />
            <mxPoint x="-99" y="645" as="targetPoint" />
          </mxGeometry>
        </mxCell>
        <mxCell id="F3PNHzyJ3Ug69kJnkNaL-178" value="" style="endArrow=none;html=1;rounded=0;exitX=0.5;exitY=1;exitDx=0;exitDy=0;entryX=0.5;entryY=0;entryDx=0;entryDy=0;" edge="1" parent="1" source="F3PNHzyJ3Ug69kJnkNaL-17" target="F3PNHzyJ3Ug69kJnkNaL-170">
          <mxGeometry relative="1" as="geometry">
            <mxPoint x="2" y="650" as="sourcePoint" />
            <mxPoint x="-89" y="655" as="targetPoint" />
          </mxGeometry>
        </mxCell>
        <mxCell id="F3PNHzyJ3Ug69kJnkNaL-179" value="" style="endArrow=none;html=1;rounded=0;exitX=0;exitY=0;exitDx=0;exitDy=0;entryX=0.75;entryY=1;entryDx=0;entryDy=0;" edge="1" parent="1" source="F3PNHzyJ3Ug69kJnkNaL-171" target="F3PNHzyJ3Ug69kJnkNaL-17">
          <mxGeometry relative="1" as="geometry">
            <mxPoint x="12" y="660" as="sourcePoint" />
            <mxPoint x="-79" y="665" as="targetPoint" />
          </mxGeometry>
        </mxCell>
        <mxCell id="F3PNHzyJ3Ug69kJnkNaL-180" value="" style="endArrow=none;html=1;rounded=0;exitX=1;exitY=1;exitDx=0;exitDy=0;entryX=0;entryY=0;entryDx=0;entryDy=0;" edge="1" parent="1" source="F3PNHzyJ3Ug69kJnkNaL-17" target="F3PNHzyJ3Ug69kJnkNaL-173">
          <mxGeometry relative="1" as="geometry">
            <mxPoint x="22" y="670" as="sourcePoint" />
            <mxPoint x="-69" y="675" as="targetPoint" />
          </mxGeometry>
        </mxCell>
        <mxCell id="F3PNHzyJ3Ug69kJnkNaL-181" value="" style="endArrow=none;html=1;rounded=0;exitX=1;exitY=0.75;exitDx=0;exitDy=0;entryX=0;entryY=0.5;entryDx=0;entryDy=0;" edge="1" parent="1" source="F3PNHzyJ3Ug69kJnkNaL-17" target="F3PNHzyJ3Ug69kJnkNaL-172">
          <mxGeometry relative="1" as="geometry">
            <mxPoint x="32" y="680" as="sourcePoint" />
            <mxPoint x="-59" y="685" as="targetPoint" />
          </mxGeometry>
        </mxCell>
        <mxCell id="F3PNHzyJ3Ug69kJnkNaL-182" value="Hareketid" style="ellipse;whiteSpace=wrap;html=1;align=center;fontStyle=4;" vertex="1" parent="1">
          <mxGeometry x="98" y="854" width="60" height="35" as="geometry" />
        </mxCell>
        <mxCell id="F3PNHzyJ3Ug69kJnkNaL-183" value="Urun" style="ellipse;whiteSpace=wrap;html=1;align=center;" vertex="1" parent="1">
          <mxGeometry x="108" y="915" width="60" height="30" as="geometry" />
        </mxCell>
        <mxCell id="F3PNHzyJ3Ug69kJnkNaL-184" value="HareketTuru" style="ellipse;whiteSpace=wrap;html=1;align=center;" vertex="1" parent="1">
          <mxGeometry x="138" y="964" width="60" height="30" as="geometry" />
        </mxCell>
        <mxCell id="F3PNHzyJ3Ug69kJnkNaL-185" value="Miktar" style="ellipse;whiteSpace=wrap;html=1;align=center;" vertex="1" parent="1">
          <mxGeometry x="218" y="1005" width="60" height="30" as="geometry" />
        </mxCell>
        <mxCell id="F3PNHzyJ3Ug69kJnkNaL-186" value="Tarih" style="ellipse;whiteSpace=wrap;html=1;align=center;" vertex="1" parent="1">
          <mxGeometry x="318" y="1005" width="60" height="30" as="geometry" />
        </mxCell>
        <mxCell id="F3PNHzyJ3Ug69kJnkNaL-187" value="Aciklama" style="ellipse;whiteSpace=wrap;html=1;align=center;" vertex="1" parent="1">
          <mxGeometry x="402" y="975" width="60" height="30" as="geometry" />
        </mxCell>
        <mxCell id="F3PNHzyJ3Ug69kJnkNaL-188" value="BirimFiyat" style="ellipse;whiteSpace=wrap;html=1;align=center;" vertex="1" parent="1">
          <mxGeometry x="448" y="915" width="60" height="30" as="geometry" />
        </mxCell>
        <mxCell id="F3PNHzyJ3Ug69kJnkNaL-189" value="ToplamFiyat" style="ellipse;whiteSpace=wrap;html=1;align=center;" vertex="1" parent="1">
          <mxGeometry x="448" y="854" width="60" height="30" as="geometry" />
        </mxCell>
        <mxCell id="F3PNHzyJ3Ug69kJnkNaL-190" value="" style="endArrow=none;html=1;rounded=0;exitX=0;exitY=0.25;exitDx=0;exitDy=0;entryX=1;entryY=0.5;entryDx=0;entryDy=0;" edge="1" parent="1" source="F3PNHzyJ3Ug69kJnkNaL-19" target="F3PNHzyJ3Ug69kJnkNaL-182">
          <mxGeometry relative="1" as="geometry">
            <mxPoint x="297" y="648" as="sourcePoint" />
            <mxPoint x="208" y="714" as="targetPoint" />
          </mxGeometry>
        </mxCell>
        <mxCell id="F3PNHzyJ3Ug69kJnkNaL-191" value="" style="endArrow=none;html=1;rounded=0;exitX=0;exitY=0.75;exitDx=0;exitDy=0;entryX=1;entryY=0;entryDx=0;entryDy=0;" edge="1" parent="1" source="F3PNHzyJ3Ug69kJnkNaL-19" target="F3PNHzyJ3Ug69kJnkNaL-183">
          <mxGeometry relative="1" as="geometry">
            <mxPoint x="258" y="895" as="sourcePoint" />
            <mxPoint x="168" y="882" as="targetPoint" />
          </mxGeometry>
        </mxCell>
        <mxCell id="F3PNHzyJ3Ug69kJnkNaL-192" value="" style="endArrow=none;html=1;rounded=0;exitX=0;exitY=1;exitDx=0;exitDy=0;entryX=1;entryY=0;entryDx=0;entryDy=0;" edge="1" parent="1" source="F3PNHzyJ3Ug69kJnkNaL-19" target="F3PNHzyJ3Ug69kJnkNaL-184">
          <mxGeometry relative="1" as="geometry">
            <mxPoint x="268" y="905" as="sourcePoint" />
            <mxPoint x="178" y="892" as="targetPoint" />
          </mxGeometry>
        </mxCell>
        <mxCell id="F3PNHzyJ3Ug69kJnkNaL-193" value="" style="endArrow=none;html=1;rounded=0;entryX=0.5;entryY=0;entryDx=0;entryDy=0;exitX=0.25;exitY=1;exitDx=0;exitDy=0;" edge="1" parent="1" source="F3PNHzyJ3Ug69kJnkNaL-19" target="F3PNHzyJ3Ug69kJnkNaL-185">
          <mxGeometry relative="1" as="geometry">
            <mxPoint x="308" y="944" as="sourcePoint" />
            <mxPoint x="188" y="902" as="targetPoint" />
          </mxGeometry>
        </mxCell>
        <mxCell id="F3PNHzyJ3Ug69kJnkNaL-194" value="" style="endArrow=none;html=1;rounded=0;exitX=0.5;exitY=1;exitDx=0;exitDy=0;entryX=0.5;entryY=0;entryDx=0;entryDy=0;" edge="1" parent="1" source="F3PNHzyJ3Ug69kJnkNaL-19" target="F3PNHzyJ3Ug69kJnkNaL-186">
          <mxGeometry relative="1" as="geometry">
            <mxPoint x="288" y="925" as="sourcePoint" />
            <mxPoint x="198" y="912" as="targetPoint" />
          </mxGeometry>
        </mxCell>
        <mxCell id="F3PNHzyJ3Ug69kJnkNaL-195" value="" style="endArrow=none;html=1;rounded=0;exitX=0.75;exitY=1;exitDx=0;exitDy=0;entryX=0;entryY=0;entryDx=0;entryDy=0;" edge="1" parent="1" source="F3PNHzyJ3Ug69kJnkNaL-19" target="F3PNHzyJ3Ug69kJnkNaL-187">
          <mxGeometry relative="1" as="geometry">
            <mxPoint x="298" y="935" as="sourcePoint" />
            <mxPoint x="208" y="922" as="targetPoint" />
          </mxGeometry>
        </mxCell>
        <mxCell id="F3PNHzyJ3Ug69kJnkNaL-196" value="" style="endArrow=none;html=1;rounded=0;exitX=1;exitY=0.75;exitDx=0;exitDy=0;entryX=0;entryY=0;entryDx=0;entryDy=0;" edge="1" parent="1" source="F3PNHzyJ3Ug69kJnkNaL-19" target="F3PNHzyJ3Ug69kJnkNaL-188">
          <mxGeometry relative="1" as="geometry">
            <mxPoint x="308" y="945" as="sourcePoint" />
            <mxPoint x="218" y="932" as="targetPoint" />
          </mxGeometry>
        </mxCell>
        <mxCell id="F3PNHzyJ3Ug69kJnkNaL-197" value="" style="endArrow=none;html=1;rounded=0;exitX=1;exitY=0;exitDx=0;exitDy=0;entryX=0;entryY=0.5;entryDx=0;entryDy=0;" edge="1" parent="1" source="F3PNHzyJ3Ug69kJnkNaL-19" target="F3PNHzyJ3Ug69kJnkNaL-189">
          <mxGeometry relative="1" as="geometry">
            <mxPoint x="318" y="955" as="sourcePoint" />
            <mxPoint x="228" y="942" as="targetPoint" />
          </mxGeometry>
        </mxCell>
        <mxCell id="F3PNHzyJ3Ug69kJnkNaL-198" value="UrunGrupID" style="ellipse;whiteSpace=wrap;html=1;align=center;fontStyle=4;" vertex="1" parent="1">
          <mxGeometry x="552" y="730" width="60" height="35" as="geometry" />
        </mxCell>
        <mxCell id="F3PNHzyJ3Ug69kJnkNaL-199" value="UrunGrupAd" style="ellipse;whiteSpace=wrap;html=1;align=center;" vertex="1" parent="1">
          <mxGeometry x="632" y="740" width="60" height="30" as="geometry" />
        </mxCell>
        <mxCell id="F3PNHzyJ3Ug69kJnkNaL-200" value="Durum" style="ellipse;whiteSpace=wrap;html=1;align=center;" vertex="1" parent="1">
          <mxGeometry x="702" y="732.5" width="60" height="30" as="geometry" />
        </mxCell>
        <mxCell id="F3PNHzyJ3Ug69kJnkNaL-201" value="" style="endArrow=none;html=1;rounded=0;exitX=0.25;exitY=1;exitDx=0;exitDy=0;entryX=0.5;entryY=0;entryDx=0;entryDy=0;" edge="1" parent="1" source="F3PNHzyJ3Ug69kJnkNaL-16" target="F3PNHzyJ3Ug69kJnkNaL-198">
          <mxGeometry relative="1" as="geometry">
            <mxPoint x="356" y="664" as="sourcePoint" />
            <mxPoint x="472" y="705" as="targetPoint" />
          </mxGeometry>
        </mxCell>
        <mxCell id="F3PNHzyJ3Ug69kJnkNaL-202" value="" style="endArrow=none;html=1;rounded=0;exitX=0.5;exitY=0;exitDx=0;exitDy=0;entryX=0.5;entryY=1;entryDx=0;entryDy=0;" edge="1" parent="1" source="F3PNHzyJ3Ug69kJnkNaL-199" target="F3PNHzyJ3Ug69kJnkNaL-16">
          <mxGeometry relative="1" as="geometry">
            <mxPoint x="366" y="674" as="sourcePoint" />
            <mxPoint x="482" y="715" as="targetPoint" />
          </mxGeometry>
        </mxCell>
        <mxCell id="F3PNHzyJ3Ug69kJnkNaL-203" value="" style="endArrow=none;html=1;rounded=0;exitX=0.75;exitY=1;exitDx=0;exitDy=0;entryX=0.5;entryY=0;entryDx=0;entryDy=0;" edge="1" parent="1" source="F3PNHzyJ3Ug69kJnkNaL-16" target="F3PNHzyJ3Ug69kJnkNaL-200">
          <mxGeometry relative="1" as="geometry">
            <mxPoint x="376" y="684" as="sourcePoint" />
            <mxPoint x="492" y="725" as="targetPoint" />
          </mxGeometry>
        </mxCell>
        <mxCell id="F3PNHzyJ3Ug69kJnkNaL-204" value="TelefonID" style="ellipse;whiteSpace=wrap;html=1;align=center;fontStyle=4;" vertex="1" parent="1">
          <mxGeometry x="790" y="720" width="60" height="35" as="geometry" />
        </mxCell>
        <mxCell id="F3PNHzyJ3Ug69kJnkNaL-205" value="Aciklama" style="ellipse;whiteSpace=wrap;html=1;align=center;" vertex="1" parent="1">
          <mxGeometry x="859" y="740" width="60" height="30" as="geometry" />
        </mxCell>
        <mxCell id="F3PNHzyJ3Ug69kJnkNaL-206" value="Telefon" style="ellipse;whiteSpace=wrap;html=1;align=center;" vertex="1" parent="1">
          <mxGeometry x="930" y="740" width="60" height="30" as="geometry" />
        </mxCell>
        <mxCell id="F3PNHzyJ3Ug69kJnkNaL-207" value="Durum" style="ellipse;whiteSpace=wrap;html=1;align=center;" vertex="1" parent="1">
          <mxGeometry x="980" y="710" width="60" height="30" as="geometry" />
        </mxCell>
        <mxCell id="F3PNHzyJ3Ug69kJnkNaL-208" value="" style="endArrow=none;html=1;rounded=0;exitX=0.25;exitY=1;exitDx=0;exitDy=0;entryX=0.5;entryY=0;entryDx=0;entryDy=0;" edge="1" parent="1" source="F3PNHzyJ3Ug69kJnkNaL-15" target="F3PNHzyJ3Ug69kJnkNaL-204">
          <mxGeometry relative="1" as="geometry">
            <mxPoint x="677" y="675" as="sourcePoint" />
            <mxPoint x="742" y="743" as="targetPoint" />
          </mxGeometry>
        </mxCell>
        <mxCell id="F3PNHzyJ3Ug69kJnkNaL-209" value="" style="endArrow=none;html=1;rounded=0;exitX=0.5;exitY=1;exitDx=0;exitDy=0;entryX=0.5;entryY=0;entryDx=0;entryDy=0;" edge="1" parent="1" source="F3PNHzyJ3Ug69kJnkNaL-15" target="F3PNHzyJ3Ug69kJnkNaL-205">
          <mxGeometry relative="1" as="geometry">
            <mxPoint x="687" y="685" as="sourcePoint" />
            <mxPoint x="752" y="753" as="targetPoint" />
          </mxGeometry>
        </mxCell>
        <mxCell id="F3PNHzyJ3Ug69kJnkNaL-210" value="" style="endArrow=none;html=1;rounded=0;exitX=0.75;exitY=1;exitDx=0;exitDy=0;entryX=0.5;entryY=0;entryDx=0;entryDy=0;" edge="1" parent="1" source="F3PNHzyJ3Ug69kJnkNaL-15" target="F3PNHzyJ3Ug69kJnkNaL-206">
          <mxGeometry relative="1" as="geometry">
            <mxPoint x="697" y="695" as="sourcePoint" />
            <mxPoint x="762" y="763" as="targetPoint" />
          </mxGeometry>
        </mxCell>
        <mxCell id="F3PNHzyJ3Ug69kJnkNaL-211" value="" style="endArrow=none;html=1;rounded=0;exitX=1;exitY=1;exitDx=0;exitDy=0;entryX=0;entryY=0;entryDx=0;entryDy=0;" edge="1" parent="1" source="F3PNHzyJ3Ug69kJnkNaL-15" target="F3PNHzyJ3Ug69kJnkNaL-207">
          <mxGeometry relative="1" as="geometry">
            <mxPoint x="707" y="705" as="sourcePoint" />
            <mxPoint x="772" y="773" as="targetPoint" />
          </mxGeometry>
        </mxCell>
        <mxCell id="F3PNHzyJ3Ug69kJnkNaL-212" value="KurID" style="ellipse;whiteSpace=wrap;html=1;align=center;fontStyle=4;" vertex="1" parent="1">
          <mxGeometry x="1040" y="660" width="60" height="35" as="geometry" />
        </mxCell>
        <mxCell id="F3PNHzyJ3Ug69kJnkNaL-213" value="KurAd" style="ellipse;whiteSpace=wrap;html=1;align=center;" vertex="1" parent="1">
          <mxGeometry x="1104" y="677.5" width="60" height="30" as="geometry" />
        </mxCell>
        <mxCell id="F3PNHzyJ3Ug69kJnkNaL-214" value="Sembol" style="ellipse;whiteSpace=wrap;html=1;align=center;" vertex="1" parent="1">
          <mxGeometry x="1171.59" y="678.44" width="60" height="30" as="geometry" />
        </mxCell>
        <mxCell id="F3PNHzyJ3Ug69kJnkNaL-215" value="Deger" style="ellipse;whiteSpace=wrap;html=1;align=center;" vertex="1" parent="1">
          <mxGeometry x="1233.59" y="656.5" width="60" height="30" as="geometry" />
        </mxCell>
        <mxCell id="F3PNHzyJ3Ug69kJnkNaL-216" value="Tarih" style="ellipse;whiteSpace=wrap;html=1;align=center;" vertex="1" parent="1">
          <mxGeometry x="1260" y="615" width="60" height="30" as="geometry" />
        </mxCell>
        <mxCell id="F3PNHzyJ3Ug69kJnkNaL-217" value="Durum" style="ellipse;whiteSpace=wrap;html=1;align=center;" vertex="1" parent="1">
          <mxGeometry x="1250" y="580" width="60" height="30" as="geometry" />
        </mxCell>
        <mxCell id="F3PNHzyJ3Ug69kJnkNaL-218" value="" style="endArrow=none;html=1;rounded=0;exitX=0.25;exitY=1;exitDx=0;exitDy=0;entryX=0.5;entryY=0;entryDx=0;entryDy=0;" edge="1" parent="1" source="F3PNHzyJ3Ug69kJnkNaL-14" target="F3PNHzyJ3Ug69kJnkNaL-212">
          <mxGeometry relative="1" as="geometry">
            <mxPoint x="949" y="684" as="sourcePoint" />
            <mxPoint x="999" y="724" as="targetPoint" />
          </mxGeometry>
        </mxCell>
        <mxCell id="F3PNHzyJ3Ug69kJnkNaL-219" value="" style="endArrow=none;html=1;rounded=0;exitX=0.5;exitY=1;exitDx=0;exitDy=0;entryX=0.5;entryY=0;entryDx=0;entryDy=0;" edge="1" parent="1" source="F3PNHzyJ3Ug69kJnkNaL-14" target="F3PNHzyJ3Ug69kJnkNaL-213">
          <mxGeometry relative="1" as="geometry">
            <mxPoint x="949" y="684" as="sourcePoint" />
            <mxPoint x="1140" y="650" as="targetPoint" />
          </mxGeometry>
        </mxCell>
        <mxCell id="F3PNHzyJ3Ug69kJnkNaL-220" value="" style="endArrow=none;html=1;rounded=0;exitX=0.75;exitY=1;exitDx=0;exitDy=0;entryX=0.5;entryY=0;entryDx=0;entryDy=0;" edge="1" parent="1" source="F3PNHzyJ3Ug69kJnkNaL-14" target="F3PNHzyJ3Ug69kJnkNaL-214">
          <mxGeometry relative="1" as="geometry">
            <mxPoint x="959" y="694" as="sourcePoint" />
            <mxPoint x="1009" y="734" as="targetPoint" />
          </mxGeometry>
        </mxCell>
        <mxCell id="F3PNHzyJ3Ug69kJnkNaL-221" value="" style="endArrow=none;html=1;rounded=0;exitX=1;exitY=1;exitDx=0;exitDy=0;entryX=0;entryY=0;entryDx=0;entryDy=0;" edge="1" parent="1" source="F3PNHzyJ3Ug69kJnkNaL-14" target="F3PNHzyJ3Ug69kJnkNaL-215">
          <mxGeometry relative="1" as="geometry">
            <mxPoint x="969" y="704" as="sourcePoint" />
            <mxPoint x="1019" y="744" as="targetPoint" />
          </mxGeometry>
        </mxCell>
        <mxCell id="F3PNHzyJ3Ug69kJnkNaL-222" value="" style="endArrow=none;html=1;rounded=0;exitX=1;exitY=0.75;exitDx=0;exitDy=0;entryX=0;entryY=0.5;entryDx=0;entryDy=0;" edge="1" parent="1" source="F3PNHzyJ3Ug69kJnkNaL-14" target="F3PNHzyJ3Ug69kJnkNaL-216">
          <mxGeometry relative="1" as="geometry">
            <mxPoint x="979" y="714" as="sourcePoint" />
            <mxPoint x="1029" y="754" as="targetPoint" />
          </mxGeometry>
        </mxCell>
        <mxCell id="F3PNHzyJ3Ug69kJnkNaL-223" value="" style="endArrow=none;html=1;rounded=0;exitX=1;exitY=0.5;exitDx=0;exitDy=0;entryX=0;entryY=0.5;entryDx=0;entryDy=0;" edge="1" parent="1" source="F3PNHzyJ3Ug69kJnkNaL-14" target="F3PNHzyJ3Ug69kJnkNaL-217">
          <mxGeometry relative="1" as="geometry">
            <mxPoint x="989" y="724" as="sourcePoint" />
            <mxPoint x="1039" y="764" as="targetPoint" />
          </mxGeometry>
        </mxCell>
        <mxCell id="F3PNHzyJ3Ug69kJnkNaL-224" value="OdaID" style="ellipse;whiteSpace=wrap;html=1;align=center;fontStyle=4;" vertex="1" parent="1">
          <mxGeometry x="898.59" y="455" width="60" height="35" as="geometry" />
        </mxCell>
        <mxCell id="F3PNHzyJ3Ug69kJnkNaL-225" value="OdaNo" style="ellipse;whiteSpace=wrap;html=1;align=center;" vertex="1" parent="1">
          <mxGeometry x="958.5900000000001" y="465" width="60" height="30" as="geometry" />
        </mxCell>
        <mxCell id="F3PNHzyJ3Ug69kJnkNaL-226" value="Kat" style="ellipse;whiteSpace=wrap;html=1;align=center;" vertex="1" parent="1">
          <mxGeometry x="1021.59" y="465" width="60" height="30" as="geometry" />
        </mxCell>
        <mxCell id="F3PNHzyJ3Ug69kJnkNaL-227" value="Kapasite" style="ellipse;whiteSpace=wrap;html=1;align=center;" vertex="1" parent="1">
          <mxGeometry x="1081.59" y="455" width="60" height="30" as="geometry" />
        </mxCell>
        <mxCell id="F3PNHzyJ3Ug69kJnkNaL-228" value="Aciklama" style="ellipse;whiteSpace=wrap;html=1;align=center;" vertex="1" parent="1">
          <mxGeometry x="1101.59" y="355" width="60" height="30" as="geometry" />
        </mxCell>
        <mxCell id="F3PNHzyJ3Ug69kJnkNaL-229" value="Telefon" style="ellipse;whiteSpace=wrap;html=1;align=center;" vertex="1" parent="1">
          <mxGeometry x="1101.59" y="425" width="60" height="30" as="geometry" />
        </mxCell>
        <mxCell id="F3PNHzyJ3Ug69kJnkNaL-230" value="Durum" style="ellipse;whiteSpace=wrap;html=1;align=center;" vertex="1" parent="1">
          <mxGeometry x="1111.59" y="387.5" width="60" height="30" as="geometry" />
        </mxCell>
        <mxCell id="F3PNHzyJ3Ug69kJnkNaL-231" value="" style="endArrow=none;html=1;rounded=0;exitX=0.5;exitY=0;exitDx=0;exitDy=0;entryX=0;entryY=1;entryDx=0;entryDy=0;" edge="1" parent="1" source="F3PNHzyJ3Ug69kJnkNaL-224" target="F3PNHzyJ3Ug69kJnkNaL-13">
          <mxGeometry relative="1" as="geometry">
            <mxPoint x="1126.59" y="690" as="sourcePoint" />
            <mxPoint x="1091.59" y="725" as="targetPoint" />
          </mxGeometry>
        </mxCell>
        <mxCell id="F3PNHzyJ3Ug69kJnkNaL-232" value="" style="endArrow=none;html=1;rounded=0;exitX=0.5;exitY=0;exitDx=0;exitDy=0;entryX=0.25;entryY=1;entryDx=0;entryDy=0;" edge="1" parent="1" source="F3PNHzyJ3Ug69kJnkNaL-225" target="F3PNHzyJ3Ug69kJnkNaL-13">
          <mxGeometry relative="1" as="geometry">
            <mxPoint x="1126.59" y="690" as="sourcePoint" />
            <mxPoint x="1091.59" y="725" as="targetPoint" />
          </mxGeometry>
        </mxCell>
        <mxCell id="F3PNHzyJ3Ug69kJnkNaL-233" value="" style="endArrow=none;html=1;rounded=0;exitX=0.5;exitY=0;exitDx=0;exitDy=0;entryX=0.5;entryY=1;entryDx=0;entryDy=0;" edge="1" parent="1" source="F3PNHzyJ3Ug69kJnkNaL-226" target="F3PNHzyJ3Ug69kJnkNaL-13">
          <mxGeometry relative="1" as="geometry">
            <mxPoint x="1136.59" y="700" as="sourcePoint" />
            <mxPoint x="1101.59" y="735" as="targetPoint" />
          </mxGeometry>
        </mxCell>
        <mxCell id="F3PNHzyJ3Ug69kJnkNaL-234" value="" style="endArrow=none;html=1;rounded=0;exitX=0;exitY=0;exitDx=0;exitDy=0;entryX=1;entryY=1;entryDx=0;entryDy=0;" edge="1" parent="1" source="F3PNHzyJ3Ug69kJnkNaL-227" target="F3PNHzyJ3Ug69kJnkNaL-13">
          <mxGeometry relative="1" as="geometry">
            <mxPoint x="1146.59" y="710" as="sourcePoint" />
            <mxPoint x="1111.59" y="745" as="targetPoint" />
          </mxGeometry>
        </mxCell>
        <mxCell id="F3PNHzyJ3Ug69kJnkNaL-235" value="" style="endArrow=none;html=1;rounded=0;exitX=1;exitY=0.5;exitDx=0;exitDy=0;entryX=0;entryY=0;entryDx=0;entryDy=0;" edge="1" parent="1" source="F3PNHzyJ3Ug69kJnkNaL-13" target="F3PNHzyJ3Ug69kJnkNaL-229">
          <mxGeometry relative="1" as="geometry">
            <mxPoint x="1156.59" y="720" as="sourcePoint" />
            <mxPoint x="1121.59" y="755" as="targetPoint" />
          </mxGeometry>
        </mxCell>
        <mxCell id="F3PNHzyJ3Ug69kJnkNaL-236" value="" style="endArrow=none;html=1;rounded=0;exitX=0;exitY=0.5;exitDx=0;exitDy=0;entryX=1;entryY=0;entryDx=0;entryDy=0;" edge="1" parent="1" source="F3PNHzyJ3Ug69kJnkNaL-230" target="F3PNHzyJ3Ug69kJnkNaL-13">
          <mxGeometry relative="1" as="geometry">
            <mxPoint x="1166.59" y="730" as="sourcePoint" />
            <mxPoint x="1131.59" y="765" as="targetPoint" />
          </mxGeometry>
        </mxCell>
        <mxCell id="F3PNHzyJ3Ug69kJnkNaL-237" value="RezervasyonID" style="ellipse;whiteSpace=wrap;html=1;align=center;fontStyle=4;" vertex="1" parent="1">
          <mxGeometry x="815" y="167" width="60" height="35" as="geometry" />
        </mxCell>
        <mxCell id="F3PNHzyJ3Ug69kJnkNaL-238" value="Misafir" style="ellipse;whiteSpace=wrap;html=1;align=center;" vertex="1" parent="1">
          <mxGeometry x="1130.0000000000002" y="209.99999999999997" width="60" height="30" as="geometry" />
        </mxCell>
        <mxCell id="F3PNHzyJ3Ug69kJnkNaL-239" value="GirisTarih" style="ellipse;whiteSpace=wrap;html=1;align=center;" vertex="1" parent="1">
          <mxGeometry x="1150.0000000000002" y="170" width="60" height="30" as="geometry" />
        </mxCell>
        <mxCell id="F3PNHzyJ3Ug69kJnkNaL-240" value="CikisTarih" style="ellipse;whiteSpace=wrap;html=1;align=center;" vertex="1" parent="1">
          <mxGeometry x="1140.0000000000002" y="132.18999999999997" width="60" height="30" as="geometry" />
        </mxCell>
        <mxCell id="F3PNHzyJ3Ug69kJnkNaL-241" value="Oda" style="ellipse;whiteSpace=wrap;html=1;align=center;" vertex="1" parent="1">
          <mxGeometry x="1104.0000000000002" y="63.12" width="60" height="30" as="geometry" />
        </mxCell>
        <mxCell id="F3PNHzyJ3Ug69kJnkNaL-242" value="Kisi" style="ellipse;whiteSpace=wrap;html=1;align=center;" vertex="1" parent="1">
          <mxGeometry x="1121.0000000000002" y="98" width="60" height="30" as="geometry" />
        </mxCell>
        <mxCell id="F3PNHzyJ3Ug69kJnkNaL-243" value="RezervasyonAdSoyad" style="ellipse;whiteSpace=wrap;html=1;align=center;" vertex="1" parent="1">
          <mxGeometry x="1067.0000000000002" y="33.12" width="60" height="30" as="geometry" />
        </mxCell>
        <mxCell id="F3PNHzyJ3Ug69kJnkNaL-244" value="RezervasyonAdSoyad" style="ellipse;whiteSpace=wrap;html=1;align=center;" vertex="1" parent="1">
          <mxGeometry x="870.0000000000002" y="254.99999999999997" width="60" height="30" as="geometry" />
        </mxCell>
        <mxCell id="F3PNHzyJ3Ug69kJnkNaL-245" value="Telefon" style="ellipse;whiteSpace=wrap;html=1;align=center;" vertex="1" parent="1">
          <mxGeometry x="940.0000000000002" y="270" width="60" height="30" as="geometry" />
        </mxCell>
        <mxCell id="F3PNHzyJ3Ug69kJnkNaL-246" value="Aciklama" style="ellipse;whiteSpace=wrap;html=1;align=center;" vertex="1" parent="1">
          <mxGeometry x="1020.0000000000002" y="270" width="60" height="30" as="geometry" />
        </mxCell>
        <mxCell id="F3PNHzyJ3Ug69kJnkNaL-247" value="Durum" style="ellipse;whiteSpace=wrap;html=1;align=center;" vertex="1" parent="1">
          <mxGeometry x="1090.0000000000002" y="249.99999999999997" width="60" height="30" as="geometry" />
        </mxCell>
        <mxCell id="F3PNHzyJ3Ug69kJnkNaL-248" value="Kisi2" style="ellipse;whiteSpace=wrap;html=1;align=center;" vertex="1" parent="1">
          <mxGeometry x="859.0000000000002" y="84.99999999999997" width="60" height="30" as="geometry" />
        </mxCell>
        <mxCell id="F3PNHzyJ3Ug69kJnkNaL-249" value="Kisi1" style="ellipse;whiteSpace=wrap;html=1;align=center;" vertex="1" parent="1">
          <mxGeometry x="830.0000000000002" y="122.18999999999997" width="60" height="30" as="geometry" />
        </mxCell>
        <mxCell id="F3PNHzyJ3Ug69kJnkNaL-250" value="Kisi3" style="ellipse;whiteSpace=wrap;html=1;align=center;" vertex="1" parent="1">
          <mxGeometry x="898.5900000000003" y="52.5" width="60" height="30" as="geometry" />
        </mxCell>
        <mxCell id="F3PNHzyJ3Ug69kJnkNaL-251" value="Toplam" style="ellipse;whiteSpace=wrap;html=1;align=center;" vertex="1" parent="1">
          <mxGeometry x="939.0000000000002" y="20" width="60" height="30" as="geometry" />
        </mxCell>
        <mxCell id="F3PNHzyJ3Ug69kJnkNaL-252" value="KasayaAktar" style="ellipse;whiteSpace=wrap;html=1;align=center;" vertex="1" parent="1">
          <mxGeometry x="1010.0000000000002" y="14.690000000000001" width="60" height="30" as="geometry" />
        </mxCell>
        <mxCell id="F3PNHzyJ3Ug69kJnkNaL-253" value="" style="endArrow=none;html=1;rounded=0;entryX=1;entryY=0.5;entryDx=0;entryDy=0;exitX=0;exitY=0.25;exitDx=0;exitDy=0;" edge="1" parent="1" source="F3PNHzyJ3Ug69kJnkNaL-2" target="F3PNHzyJ3Ug69kJnkNaL-237">
          <mxGeometry relative="1" as="geometry">
            <mxPoint x="930" y="180" as="sourcePoint" />
            <mxPoint x="969" y="435" as="targetPoint" />
          </mxGeometry>
        </mxCell>
        <mxCell id="F3PNHzyJ3Ug69kJnkNaL-254" value="" style="endArrow=none;html=1;rounded=0;entryX=1;entryY=0.5;entryDx=0;entryDy=0;exitX=0;exitY=0.25;exitDx=0;exitDy=0;" edge="1" parent="1" source="F3PNHzyJ3Ug69kJnkNaL-2" target="F3PNHzyJ3Ug69kJnkNaL-249">
          <mxGeometry relative="1" as="geometry">
            <mxPoint x="940" y="176" as="sourcePoint" />
            <mxPoint x="880" y="193" as="targetPoint" />
          </mxGeometry>
        </mxCell>
        <mxCell id="F3PNHzyJ3Ug69kJnkNaL-255" value="" style="endArrow=none;html=1;rounded=0;exitX=0;exitY=1;exitDx=0;exitDy=0;entryX=0.5;entryY=0;entryDx=0;entryDy=0;" edge="1" parent="1" source="F3PNHzyJ3Ug69kJnkNaL-2" target="F3PNHzyJ3Ug69kJnkNaL-244">
          <mxGeometry relative="1" as="geometry">
            <mxPoint x="979" y="206" as="sourcePoint" />
            <mxPoint x="890" y="203" as="targetPoint" />
          </mxGeometry>
        </mxCell>
        <mxCell id="F3PNHzyJ3Ug69kJnkNaL-256" value="" style="endArrow=none;html=1;rounded=0;entryX=1;entryY=1;entryDx=0;entryDy=0;exitX=0;exitY=0;exitDx=0;exitDy=0;" edge="1" parent="1" source="F3PNHzyJ3Ug69kJnkNaL-2" target="F3PNHzyJ3Ug69kJnkNaL-248">
          <mxGeometry relative="1" as="geometry">
            <mxPoint x="940" y="150" as="sourcePoint" />
            <mxPoint x="900" y="213" as="targetPoint" />
          </mxGeometry>
        </mxCell>
        <mxCell id="F3PNHzyJ3Ug69kJnkNaL-257" value="" style="endArrow=none;html=1;rounded=0;exitX=0.152;exitY=0.016;exitDx=0;exitDy=0;entryX=1;entryY=1;entryDx=0;entryDy=0;exitPerimeter=0;" edge="1" parent="1" source="F3PNHzyJ3Ug69kJnkNaL-2" target="F3PNHzyJ3Ug69kJnkNaL-250">
          <mxGeometry relative="1" as="geometry">
            <mxPoint x="999" y="226" as="sourcePoint" />
            <mxPoint x="910" y="223" as="targetPoint" />
          </mxGeometry>
        </mxCell>
        <mxCell id="F3PNHzyJ3Ug69kJnkNaL-258" value="" style="endArrow=none;html=1;rounded=0;exitX=0.25;exitY=0;exitDx=0;exitDy=0;entryX=0.5;entryY=1;entryDx=0;entryDy=0;" edge="1" parent="1" source="F3PNHzyJ3Ug69kJnkNaL-2" target="F3PNHzyJ3Ug69kJnkNaL-251">
          <mxGeometry relative="1" as="geometry">
            <mxPoint x="1009" y="236" as="sourcePoint" />
            <mxPoint x="920" y="233" as="targetPoint" />
          </mxGeometry>
        </mxCell>
        <mxCell id="F3PNHzyJ3Ug69kJnkNaL-259" value="" style="endArrow=none;html=1;rounded=0;exitX=0.75;exitY=0;exitDx=0;exitDy=0;entryX=0.336;entryY=1.081;entryDx=0;entryDy=0;entryPerimeter=0;" edge="1" parent="1" source="F3PNHzyJ3Ug69kJnkNaL-2" target="F3PNHzyJ3Ug69kJnkNaL-252">
          <mxGeometry relative="1" as="geometry">
            <mxPoint x="1019" y="246" as="sourcePoint" />
            <mxPoint x="930" y="243" as="targetPoint" />
          </mxGeometry>
        </mxCell>
        <mxCell id="F3PNHzyJ3Ug69kJnkNaL-260" value="" style="endArrow=none;html=1;rounded=0;exitX=0.911;exitY=-0.047;exitDx=0;exitDy=0;entryX=0.5;entryY=1;entryDx=0;entryDy=0;exitPerimeter=0;" edge="1" parent="1" source="F3PNHzyJ3Ug69kJnkNaL-2" target="F3PNHzyJ3Ug69kJnkNaL-243">
          <mxGeometry relative="1" as="geometry">
            <mxPoint x="1029" y="256" as="sourcePoint" />
            <mxPoint x="940" y="253" as="targetPoint" />
          </mxGeometry>
        </mxCell>
        <mxCell id="F3PNHzyJ3Ug69kJnkNaL-261" value="" style="endArrow=none;html=1;rounded=0;exitX=1;exitY=0;exitDx=0;exitDy=0;entryX=0.5;entryY=1;entryDx=0;entryDy=0;" edge="1" parent="1" source="F3PNHzyJ3Ug69kJnkNaL-2" target="F3PNHzyJ3Ug69kJnkNaL-241">
          <mxGeometry relative="1" as="geometry">
            <mxPoint x="1039" y="266" as="sourcePoint" />
            <mxPoint x="950" y="263" as="targetPoint" />
          </mxGeometry>
        </mxCell>
        <mxCell id="F3PNHzyJ3Ug69kJnkNaL-262" value="" style="endArrow=none;html=1;rounded=0;exitX=1;exitY=0.25;exitDx=0;exitDy=0;entryX=0.352;entryY=0.971;entryDx=0;entryDy=0;entryPerimeter=0;" edge="1" parent="1" source="F3PNHzyJ3Ug69kJnkNaL-2" target="F3PNHzyJ3Ug69kJnkNaL-242">
          <mxGeometry relative="1" as="geometry">
            <mxPoint x="1049" y="276" as="sourcePoint" />
            <mxPoint x="960" y="273" as="targetPoint" />
          </mxGeometry>
        </mxCell>
        <mxCell id="F3PNHzyJ3Ug69kJnkNaL-263" value="" style="endArrow=none;html=1;rounded=0;exitX=1;exitY=0.5;exitDx=0;exitDy=0;entryX=0;entryY=1;entryDx=0;entryDy=0;" edge="1" parent="1" source="F3PNHzyJ3Ug69kJnkNaL-2" target="F3PNHzyJ3Ug69kJnkNaL-240">
          <mxGeometry relative="1" as="geometry">
            <mxPoint x="1059" y="286" as="sourcePoint" />
            <mxPoint x="970" y="283" as="targetPoint" />
          </mxGeometry>
        </mxCell>
        <mxCell id="F3PNHzyJ3Ug69kJnkNaL-264" value="" style="endArrow=none;html=1;rounded=0;exitX=1;exitY=0.75;exitDx=0;exitDy=0;entryX=0;entryY=0.5;entryDx=0;entryDy=0;" edge="1" parent="1" source="F3PNHzyJ3Ug69kJnkNaL-2" target="F3PNHzyJ3Ug69kJnkNaL-239">
          <mxGeometry relative="1" as="geometry">
            <mxPoint x="1069" y="296" as="sourcePoint" />
            <mxPoint x="980" y="293" as="targetPoint" />
          </mxGeometry>
        </mxCell>
        <mxCell id="F3PNHzyJ3Ug69kJnkNaL-265" value="" style="endArrow=none;html=1;rounded=0;exitX=1;exitY=1;exitDx=0;exitDy=0;entryX=0;entryY=0.5;entryDx=0;entryDy=0;" edge="1" parent="1" source="F3PNHzyJ3Ug69kJnkNaL-2" target="F3PNHzyJ3Ug69kJnkNaL-238">
          <mxGeometry relative="1" as="geometry">
            <mxPoint x="1079" y="306" as="sourcePoint" />
            <mxPoint x="990" y="303" as="targetPoint" />
          </mxGeometry>
        </mxCell>
        <mxCell id="F3PNHzyJ3Ug69kJnkNaL-266" value="" style="endArrow=none;html=1;rounded=0;exitX=1;exitY=1;exitDx=0;exitDy=0;entryX=0;entryY=0;entryDx=0;entryDy=0;" edge="1" parent="1" source="F3PNHzyJ3Ug69kJnkNaL-2" target="F3PNHzyJ3Ug69kJnkNaL-247">
          <mxGeometry relative="1" as="geometry">
            <mxPoint x="1089" y="316" as="sourcePoint" />
            <mxPoint x="1000" y="313" as="targetPoint" />
          </mxGeometry>
        </mxCell>
        <mxCell id="F3PNHzyJ3Ug69kJnkNaL-267" value="" style="endArrow=none;html=1;rounded=0;exitX=0.75;exitY=1;exitDx=0;exitDy=0;entryX=0.5;entryY=0;entryDx=0;entryDy=0;" edge="1" parent="1" source="F3PNHzyJ3Ug69kJnkNaL-2" target="F3PNHzyJ3Ug69kJnkNaL-246">
          <mxGeometry relative="1" as="geometry">
            <mxPoint x="1099" y="326" as="sourcePoint" />
            <mxPoint x="1010" y="323" as="targetPoint" />
          </mxGeometry>
        </mxCell>
        <mxCell id="F3PNHzyJ3Ug69kJnkNaL-268" value="" style="endArrow=none;html=1;rounded=0;exitX=0.5;exitY=0;exitDx=0;exitDy=0;entryX=0.25;entryY=1;entryDx=0;entryDy=0;" edge="1" parent="1" source="F3PNHzyJ3Ug69kJnkNaL-245" target="F3PNHzyJ3Ug69kJnkNaL-2">
          <mxGeometry relative="1" as="geometry">
            <mxPoint x="1109" y="336" as="sourcePoint" />
            <mxPoint x="1020" y="333" as="targetPoint" />
          </mxGeometry>
        </mxCell>
        <mxCell id="F3PNHzyJ3Ug69kJnkNaL-269" value="" style="endArrow=none;html=1;rounded=0;exitX=0;exitY=0.5;exitDx=0;exitDy=0;entryX=0.75;entryY=0;entryDx=0;entryDy=0;" edge="1" parent="1" source="F3PNHzyJ3Ug69kJnkNaL-228" target="F3PNHzyJ3Ug69kJnkNaL-13">
          <mxGeometry relative="1" as="geometry">
            <mxPoint x="1119" y="346" as="sourcePoint" />
            <mxPoint x="1030" y="343" as="targetPoint" />
          </mxGeometry>
        </mxCell>
        <mxCell id="F3PNHzyJ3Ug69kJnkNaL-270" value="Yeni Kayıt" style="whiteSpace=wrap;html=1;align=center;" vertex="1" parent="1">
          <mxGeometry x="-335.5" y="-480" width="100" height="40" as="geometry" />
        </mxCell>
        <mxCell id="F3PNHzyJ3Ug69kJnkNaL-271" value="Ön Rezervasyon" style="whiteSpace=wrap;html=1;align=center;" vertex="1" parent="1">
          <mxGeometry x="49.5" y="-480" width="100" height="40" as="geometry" />
        </mxCell>
        <mxCell id="F3PNHzyJ3Ug69kJnkNaL-272" value="Mesaj2" style="whiteSpace=wrap;html=1;align=center;" vertex="1" parent="1">
          <mxGeometry x="442" y="-482.5" width="100" height="40" as="geometry" />
        </mxCell>
        <mxCell id="F3PNHzyJ3Ug69kJnkNaL-273" value="Mesaj" style="whiteSpace=wrap;html=1;align=center;" vertex="1" parent="1">
          <mxGeometry x="790" y="-480" width="100" height="40" as="geometry" />
        </mxCell>
        <mxCell id="F3PNHzyJ3Ug69kJnkNaL-274" value="Ülke" style="whiteSpace=wrap;html=1;align=center;" vertex="1" parent="1">
          <mxGeometry x="1190" y="-480" width="100" height="40" as="geometry" />
        </mxCell>
        <mxCell id="F3PNHzyJ3Ug69kJnkNaL-275" value="Ekibimiz" style="whiteSpace=wrap;html=1;align=center;" vertex="1" parent="1">
          <mxGeometry x="1609.5" y="-470" width="100" height="40" as="geometry" />
        </mxCell>
        <mxCell id="F3PNHzyJ3Ug69kJnkNaL-276" value="Admin" style="whiteSpace=wrap;html=1;align=center;" vertex="1" parent="1">
          <mxGeometry x="2030.0000000000002" y="-480" width="100" height="40" as="geometry" />
        </mxCell>
        <mxCell id="F3PNHzyJ3Ug69kJnkNaL-277" value="Hakkımda" style="whiteSpace=wrap;html=1;align=center;" vertex="1" parent="1">
          <mxGeometry x="2023" y="-112.18999999999997" width="100" height="40" as="geometry" />
        </mxCell>
        <mxCell id="F3PNHzyJ3Ug69kJnkNaL-278" value="İletişim" style="whiteSpace=wrap;html=1;align=center;" vertex="1" parent="1">
          <mxGeometry x="2037" y="189.4" width="100" height="40" as="geometry" />
        </mxCell>
        <mxCell id="F3PNHzyJ3Ug69kJnkNaL-279" value="Kasa Hareketi" style="whiteSpace=wrap;html=1;align=center;" vertex="1" parent="1">
          <mxGeometry x="2037" y="451.98" width="100" height="40" as="geometry" />
        </mxCell>
        <mxCell id="F3PNHzyJ3Ug69kJnkNaL-280" value="Kasa Çıkış Hareketi" style="whiteSpace=wrap;html=1;align=center;" vertex="1" parent="1">
          <mxGeometry x="2023" y="771.98" width="100" height="40" as="geometry" />
        </mxCell>
        <mxCell id="F3PNHzyJ3Ug69kJnkNaL-281" value="ID" style="ellipse;whiteSpace=wrap;html=1;align=center;fontStyle=4;" vertex="1" parent="1">
          <mxGeometry x="-435.5" y="-520" width="60" height="35" as="geometry" />
        </mxCell>
        <mxCell id="F3PNHzyJ3Ug69kJnkNaL-282" value="AdSoyad" style="ellipse;whiteSpace=wrap;html=1;align=center;" vertex="1" parent="1">
          <mxGeometry x="-385.5" y="-550" width="60" height="30" as="geometry" />
        </mxCell>
        <mxCell id="F3PNHzyJ3Ug69kJnkNaL-283" value="Mail" style="ellipse;whiteSpace=wrap;html=1;align=center;" vertex="1" parent="1">
          <mxGeometry x="-325.5" y="-560" width="60" height="30" as="geometry" />
        </mxCell>
        <mxCell id="F3PNHzyJ3Ug69kJnkNaL-284" value="Telefon" style="ellipse;whiteSpace=wrap;html=1;align=center;" vertex="1" parent="1">
          <mxGeometry x="-260" y="-550" width="60" height="30" as="geometry" />
        </mxCell>
        <mxCell id="F3PNHzyJ3Ug69kJnkNaL-285" value="Sifre" style="ellipse;whiteSpace=wrap;html=1;align=center;" vertex="1" parent="1">
          <mxGeometry x="-225.5" y="-515" width="60" height="30" as="geometry" />
        </mxCell>
        <mxCell id="F3PNHzyJ3Ug69kJnkNaL-286" value="ID" style="ellipse;whiteSpace=wrap;html=1;align=center;fontStyle=4;" vertex="1" parent="1">
          <mxGeometry x="-74.5" y="-475" width="60" height="35" as="geometry" />
        </mxCell>
        <mxCell id="F3PNHzyJ3Ug69kJnkNaL-287" value="Mail" style="ellipse;whiteSpace=wrap;html=1;align=center;" vertex="1" parent="1">
          <mxGeometry x="-64.5" y="-520" width="60" height="30" as="geometry" />
        </mxCell>
        <mxCell id="F3PNHzyJ3Ug69kJnkNaL-288" value="AdSoyad" style="ellipse;whiteSpace=wrap;html=1;align=center;" vertex="1" parent="1">
          <mxGeometry x="-34.5" y="-560" width="60" height="30" as="geometry" />
        </mxCell>
        <mxCell id="F3PNHzyJ3Ug69kJnkNaL-289" value="GirisTarih" style="ellipse;whiteSpace=wrap;html=1;align=center;" vertex="1" parent="1">
          <mxGeometry x="15.5" y="-584" width="60" height="30" as="geometry" />
        </mxCell>
        <mxCell id="F3PNHzyJ3Ug69kJnkNaL-290" value="CikisTarih" style="ellipse;whiteSpace=wrap;html=1;align=center;" vertex="1" parent="1">
          <mxGeometry x="83.5" y="-599" width="60" height="30" as="geometry" />
        </mxCell>
        <mxCell id="F3PNHzyJ3Ug69kJnkNaL-291" value="Kisi" style="ellipse;whiteSpace=wrap;html=1;align=center;" vertex="1" parent="1">
          <mxGeometry x="145.5" y="-590" width="60" height="30" as="geometry" />
        </mxCell>
        <mxCell id="F3PNHzyJ3Ug69kJnkNaL-292" value="Telefon" style="ellipse;whiteSpace=wrap;html=1;align=center;" vertex="1" parent="1">
          <mxGeometry x="185.5" y="-554" width="60" height="30" as="geometry" />
        </mxCell>
        <mxCell id="F3PNHzyJ3Ug69kJnkNaL-293" value="Aciklama" style="ellipse;whiteSpace=wrap;html=1;align=center;" vertex="1" parent="1">
          <mxGeometry x="213.5" y="-510" width="60" height="30" as="geometry" />
        </mxCell>
        <mxCell id="F3PNHzyJ3Ug69kJnkNaL-294" value="Tarih" style="ellipse;whiteSpace=wrap;html=1;align=center;" vertex="1" parent="1">
          <mxGeometry x="223.5" y="-472.5" width="60" height="30" as="geometry" />
        </mxCell>
        <mxCell id="F3PNHzyJ3Ug69kJnkNaL-295" value="MesajID" style="ellipse;whiteSpace=wrap;html=1;align=center;fontStyle=4;" vertex="1" parent="1">
          <mxGeometry x="342" y="-485" width="60" height="35" as="geometry" />
        </mxCell>
        <mxCell id="F3PNHzyJ3Ug69kJnkNaL-296" value="Gonderen" style="ellipse;whiteSpace=wrap;html=1;align=center;" vertex="1" parent="1">
          <mxGeometry x="372" y="-530" width="60" height="30" as="geometry" />
        </mxCell>
        <mxCell id="F3PNHzyJ3Ug69kJnkNaL-297" value="Alici" style="ellipse;whiteSpace=wrap;html=1;align=center;" vertex="1" parent="1">
          <mxGeometry x="420" y="-554" width="60" height="30" as="geometry" />
        </mxCell>
        <mxCell id="F3PNHzyJ3Ug69kJnkNaL-298" value="Konu" style="ellipse;whiteSpace=wrap;html=1;align=center;" vertex="1" parent="1">
          <mxGeometry x="500" y="-554" width="60" height="30" as="geometry" />
        </mxCell>
        <mxCell id="F3PNHzyJ3Ug69kJnkNaL-299" value="Mesaj" style="ellipse;whiteSpace=wrap;html=1;align=center;" vertex="1" parent="1">
          <mxGeometry x="560" y="-524" width="60" height="30" as="geometry" />
        </mxCell>
        <mxCell id="F3PNHzyJ3Ug69kJnkNaL-300" value="Tarih" style="ellipse;whiteSpace=wrap;html=1;align=center;" vertex="1" parent="1">
          <mxGeometry x="580" y="-480" width="60" height="30" as="geometry" />
        </mxCell>
        <mxCell id="F3PNHzyJ3Ug69kJnkNaL-301" value="MesajID" style="ellipse;whiteSpace=wrap;html=1;align=center;fontStyle=4;" vertex="1" parent="1">
          <mxGeometry x="695" y="-480" width="60" height="35" as="geometry" />
        </mxCell>
        <mxCell id="F3PNHzyJ3Ug69kJnkNaL-302" value="Gonderen" style="ellipse;whiteSpace=wrap;html=1;align=center;" vertex="1" parent="1">
          <mxGeometry x="720" y="-532" width="60" height="30" as="geometry" />
        </mxCell>
        <mxCell id="F3PNHzyJ3Ug69kJnkNaL-303" value="Mail" style="ellipse;whiteSpace=wrap;html=1;align=center;" vertex="1" parent="1">
          <mxGeometry x="779" y="-552.5" width="60" height="30" as="geometry" />
        </mxCell>
        <mxCell id="F3PNHzyJ3Ug69kJnkNaL-304" value="Konu" style="ellipse;whiteSpace=wrap;html=1;align=center;" vertex="1" parent="1">
          <mxGeometry x="890" y="-534" width="60" height="30" as="geometry" />
        </mxCell>
        <mxCell id="F3PNHzyJ3Ug69kJnkNaL-305" value="Mesaj" style="ellipse;whiteSpace=wrap;html=1;align=center;" vertex="1" parent="1">
          <mxGeometry x="910" y="-480" width="60" height="30" as="geometry" />
        </mxCell>
        <mxCell id="F3PNHzyJ3Ug69kJnkNaL-306" value="UlkeID" style="ellipse;whiteSpace=wrap;html=1;align=center;fontStyle=4;" vertex="1" parent="1">
          <mxGeometry x="1130" y="-552.5" width="60" height="35" as="geometry" />
        </mxCell>
        <mxCell id="F3PNHzyJ3Ug69kJnkNaL-307" value="UlkeAd" style="ellipse;whiteSpace=wrap;html=1;align=center;" vertex="1" parent="1">
          <mxGeometry x="1260" y="-552.5" width="60" height="30" as="geometry" />
        </mxCell>
        <mxCell id="F3PNHzyJ3Ug69kJnkNaL-308" value="ID" style="ellipse;whiteSpace=wrap;html=1;align=center;fontStyle=4;" vertex="1" parent="1">
          <mxGeometry x="1530" y="-507.5" width="60" height="35" as="geometry" />
        </mxCell>
        <mxCell id="F3PNHzyJ3Ug69kJnkNaL-309" value="AdSoyad" style="ellipse;whiteSpace=wrap;html=1;align=center;" vertex="1" parent="1">
          <mxGeometry x="1590" y="-540" width="60" height="30" as="geometry" />
        </mxCell>
        <mxCell id="F3PNHzyJ3Ug69kJnkNaL-310" value="Unvan&lt;span style=&quot;color: rgba(0, 0, 0, 0); font-family: monospace; font-size: 0px; text-align: start; text-wrap-mode: nowrap;&quot;&gt;%3CmxGraphModel%3E%3Croot%3E%3CmxCell%20id%3D%220%22%2F%3E%3CmxCell%20id%3D%221%22%20parent%3D%220%22%2F%3E%3CmxCell%20id%3D%222%22%20value%3D%22Mail%22%20style%3D%22ellipse%3BwhiteSpace%3Dwrap%3Bhtml%3D1%3Balign%3Dcenter%3B%22%20vertex%3D%221%22%20parent%3D%221%22%3E%3CmxGeometry%20x%3D%22-64.5%22%20y%3D%22-520%22%20width%3D%2260%22%20height%3D%2230%22%20as%3D%22geometry%22%2F%3E%3C%2FmxCell%3E%3C%2Froot%3E%3C%2FmxGraphModel%3E&lt;/span&gt;" style="ellipse;whiteSpace=wrap;html=1;align=center;" vertex="1" parent="1">
          <mxGeometry x="1669.5" y="-537.5" width="60" height="30" as="geometry" />
        </mxCell>
        <mxCell id="F3PNHzyJ3Ug69kJnkNaL-311" value="Gorsel" style="ellipse;whiteSpace=wrap;html=1;align=center;" vertex="1" parent="1">
          <mxGeometry x="1720" y="-500" width="60" height="30" as="geometry" />
        </mxCell>
        <mxCell id="F3PNHzyJ3Ug69kJnkNaL-312" value="ID" style="ellipse;whiteSpace=wrap;html=1;align=center;fontStyle=4;" vertex="1" parent="1">
          <mxGeometry x="1950" y="-494" width="60" height="35" as="geometry" />
        </mxCell>
        <mxCell id="F3PNHzyJ3Ug69kJnkNaL-313" value="Kullanici" style="ellipse;whiteSpace=wrap;html=1;align=center;" vertex="1" parent="1">
          <mxGeometry x="1990" y="-532" width="60" height="30" as="geometry" />
        </mxCell>
        <mxCell id="F3PNHzyJ3Ug69kJnkNaL-314" value="Sifre" style="ellipse;whiteSpace=wrap;html=1;align=center;" vertex="1" parent="1">
          <mxGeometry x="2070" y="-537.5" width="60" height="30" as="geometry" />
        </mxCell>
        <mxCell id="F3PNHzyJ3Ug69kJnkNaL-315" value="Rol" style="ellipse;whiteSpace=wrap;html=1;align=center;" vertex="1" parent="1">
          <mxGeometry x="2140" y="-507.5" width="60" height="30" as="geometry" />
        </mxCell>
        <mxCell id="F3PNHzyJ3Ug69kJnkNaL-316" value="Hakkimda1" style="ellipse;whiteSpace=wrap;html=1;align=center;" vertex="1" parent="1">
          <mxGeometry x="1963" y="-180" width="60" height="30" as="geometry" />
        </mxCell>
        <mxCell id="F3PNHzyJ3Ug69kJnkNaL-317" value="Hakkimda3" style="ellipse;whiteSpace=wrap;html=1;align=center;" vertex="1" parent="1">
          <mxGeometry x="2110" y="-183.29" width="60" height="30" as="geometry" />
        </mxCell>
        <mxCell id="F3PNHzyJ3Ug69kJnkNaL-318" value="Hakkimda2" style="ellipse;whiteSpace=wrap;html=1;align=center;" vertex="1" parent="1">
          <mxGeometry x="2038" y="-200" width="60" height="30" as="geometry" />
        </mxCell>
        <mxCell id="F3PNHzyJ3Ug69kJnkNaL-319" value="Hakkimda4" style="ellipse;whiteSpace=wrap;html=1;align=center;" vertex="1" parent="1">
          <mxGeometry x="2160" y="-130" width="60" height="30" as="geometry" />
        </mxCell>
        <mxCell id="F3PNHzyJ3Ug69kJnkNaL-320" value="ID" style="ellipse;whiteSpace=wrap;html=1;align=center;fontStyle=4;" vertex="1" parent="1">
          <mxGeometry x="1910" y="-128.70999999999998" width="60" height="35" as="geometry" />
        </mxCell>
        <mxCell id="F3PNHzyJ3Ug69kJnkNaL-321" value="ID" style="ellipse;whiteSpace=wrap;html=1;align=center;fontStyle=4;" vertex="1" parent="1">
          <mxGeometry x="1930" y="195" width="60" height="35" as="geometry" />
        </mxCell>
        <mxCell id="F3PNHzyJ3Ug69kJnkNaL-322" value="Aciklama" style="ellipse;whiteSpace=wrap;html=1;align=center;" vertex="1" parent="1">
          <mxGeometry x="1950" y="150" width="60" height="30" as="geometry" />
        </mxCell>
        <mxCell id="F3PNHzyJ3Ug69kJnkNaL-323" value="Koordinat" style="ellipse;whiteSpace=wrap;html=1;align=center;" vertex="1" parent="1">
          <mxGeometry x="2010" y="125" width="60" height="30" as="geometry" />
        </mxCell>
        <mxCell id="F3PNHzyJ3Ug69kJnkNaL-324" value="Telefon" style="ellipse;whiteSpace=wrap;html=1;align=center;" vertex="1" parent="1">
          <mxGeometry x="2080" y="122.19" width="60" height="30" as="geometry" />
        </mxCell>
        <mxCell id="F3PNHzyJ3Ug69kJnkNaL-325" value="Adres" style="ellipse;whiteSpace=wrap;html=1;align=center;" vertex="1" parent="1">
          <mxGeometry x="2170" y="202" width="60" height="30" as="geometry" />
        </mxCell>
        <mxCell id="F3PNHzyJ3Ug69kJnkNaL-326" value="Mail" style="ellipse;whiteSpace=wrap;html=1;align=center;" vertex="1" parent="1">
          <mxGeometry x="2150" y="152.19" width="60" height="30" as="geometry" />
        </mxCell>
        <mxCell id="F3PNHzyJ3Ug69kJnkNaL-327" value="ID" style="ellipse;whiteSpace=wrap;html=1;align=center;fontStyle=4;" vertex="1" parent="1">
          <mxGeometry x="1950" y="450" width="60" height="35" as="geometry" />
        </mxCell>
        <mxCell id="F3PNHzyJ3Ug69kJnkNaL-328" value="Misafir" style="ellipse;whiteSpace=wrap;html=1;align=center;" vertex="1" parent="1">
          <mxGeometry x="1998" y="401" width="60" height="30" as="geometry" />
        </mxCell>
        <mxCell id="F3PNHzyJ3Ug69kJnkNaL-329" value="Tarih" style="ellipse;whiteSpace=wrap;html=1;align=center;" vertex="1" parent="1">
          <mxGeometry x="2093" y="399" width="60" height="30" as="geometry" />
        </mxCell>
        <mxCell id="F3PNHzyJ3Ug69kJnkNaL-330" value="Tutar" style="ellipse;whiteSpace=wrap;html=1;align=center;" vertex="1" parent="1">
          <mxGeometry x="2149" y="446" width="60" height="30" as="geometry" />
        </mxCell>
        <mxCell id="F3PNHzyJ3Ug69kJnkNaL-331" value="ID" style="ellipse;whiteSpace=wrap;html=1;align=center;fontStyle=4;" vertex="1" parent="1">
          <mxGeometry x="1930" y="765" width="60" height="35" as="geometry" />
        </mxCell>
        <mxCell id="F3PNHzyJ3Ug69kJnkNaL-332" value="Aciklama" style="ellipse;whiteSpace=wrap;html=1;align=center;" vertex="1" parent="1">
          <mxGeometry x="1998" y="710" width="60" height="30" as="geometry" />
        </mxCell>
        <mxCell id="F3PNHzyJ3Ug69kJnkNaL-333" value="Tarih" style="ellipse;whiteSpace=wrap;html=1;align=center;" vertex="1" parent="1">
          <mxGeometry x="2100" y="720" width="60" height="30" as="geometry" />
        </mxCell>
        <mxCell id="F3PNHzyJ3Ug69kJnkNaL-334" value="Tutar" style="ellipse;whiteSpace=wrap;html=1;align=center;" vertex="1" parent="1">
          <mxGeometry x="2153" y="771.98" width="60" height="30" as="geometry" />
        </mxCell>
        <mxCell id="F3PNHzyJ3Ug69kJnkNaL-335" value="" style="endArrow=none;html=1;rounded=0;exitX=1;exitY=1;exitDx=0;exitDy=0;entryX=0;entryY=0.5;entryDx=0;entryDy=0;" edge="1" parent="1" source="F3PNHzyJ3Ug69kJnkNaL-281" target="F3PNHzyJ3Ug69kJnkNaL-270">
          <mxGeometry relative="1" as="geometry">
            <mxPoint x="20" y="40" as="sourcePoint" />
            <mxPoint x="20" y="160" as="targetPoint" />
          </mxGeometry>
        </mxCell>
        <mxCell id="F3PNHzyJ3Ug69kJnkNaL-336" value="" style="endArrow=none;html=1;rounded=0;exitX=0.5;exitY=1;exitDx=0;exitDy=0;entryX=0;entryY=0;entryDx=0;entryDy=0;" edge="1" parent="1" source="F3PNHzyJ3Ug69kJnkNaL-282" target="F3PNHzyJ3Ug69kJnkNaL-270">
          <mxGeometry relative="1" as="geometry">
            <mxPoint x="-374" y="-480" as="sourcePoint" />
            <mxPoint x="-325" y="-450" as="targetPoint" />
          </mxGeometry>
        </mxCell>
        <mxCell id="F3PNHzyJ3Ug69kJnkNaL-337" value="" style="endArrow=none;html=1;rounded=0;exitX=0.5;exitY=1;exitDx=0;exitDy=0;entryX=0.25;entryY=0;entryDx=0;entryDy=0;" edge="1" parent="1" source="F3PNHzyJ3Ug69kJnkNaL-283" target="F3PNHzyJ3Ug69kJnkNaL-270">
          <mxGeometry relative="1" as="geometry">
            <mxPoint x="-364" y="-470" as="sourcePoint" />
            <mxPoint x="-315" y="-440" as="targetPoint" />
          </mxGeometry>
        </mxCell>
        <mxCell id="F3PNHzyJ3Ug69kJnkNaL-338" value="" style="endArrow=none;html=1;rounded=0;exitX=0.75;exitY=0;exitDx=0;exitDy=0;entryX=0.5;entryY=1;entryDx=0;entryDy=0;" edge="1" parent="1" source="F3PNHzyJ3Ug69kJnkNaL-270" target="F3PNHzyJ3Ug69kJnkNaL-284">
          <mxGeometry relative="1" as="geometry">
            <mxPoint x="-354" y="-460" as="sourcePoint" />
            <mxPoint x="-305" y="-430" as="targetPoint" />
          </mxGeometry>
        </mxCell>
        <mxCell id="F3PNHzyJ3Ug69kJnkNaL-339" value="" style="endArrow=none;html=1;rounded=0;exitX=1;exitY=0.25;exitDx=0;exitDy=0;entryX=0.5;entryY=1;entryDx=0;entryDy=0;" edge="1" parent="1" source="F3PNHzyJ3Ug69kJnkNaL-270" target="F3PNHzyJ3Ug69kJnkNaL-285">
          <mxGeometry relative="1" as="geometry">
            <mxPoint x="-344" y="-450" as="sourcePoint" />
            <mxPoint x="-295" y="-420" as="targetPoint" />
          </mxGeometry>
        </mxCell>
        <mxCell id="F3PNHzyJ3Ug69kJnkNaL-340" value="" style="endArrow=none;html=1;rounded=0;exitX=0;exitY=0.5;exitDx=0;exitDy=0;entryX=1;entryY=0.5;entryDx=0;entryDy=0;" edge="1" parent="1" source="F3PNHzyJ3Ug69kJnkNaL-271" target="F3PNHzyJ3Ug69kJnkNaL-286">
          <mxGeometry relative="1" as="geometry">
            <mxPoint x="-334" y="-440" as="sourcePoint" />
            <mxPoint x="-285" y="-410" as="targetPoint" />
          </mxGeometry>
        </mxCell>
        <mxCell id="F3PNHzyJ3Ug69kJnkNaL-341" value="" style="endArrow=none;html=1;rounded=0;exitX=0;exitY=0.25;exitDx=0;exitDy=0;entryX=1;entryY=0.5;entryDx=0;entryDy=0;" edge="1" parent="1" source="F3PNHzyJ3Ug69kJnkNaL-271" target="F3PNHzyJ3Ug69kJnkNaL-287">
          <mxGeometry relative="1" as="geometry">
            <mxPoint x="-324" y="-430" as="sourcePoint" />
            <mxPoint x="-275" y="-400" as="targetPoint" />
          </mxGeometry>
        </mxCell>
        <mxCell id="F3PNHzyJ3Ug69kJnkNaL-342" value="" style="endArrow=none;html=1;rounded=0;exitX=1;exitY=1;exitDx=0;exitDy=0;entryX=0;entryY=0;entryDx=0;entryDy=0;" edge="1" parent="1" source="F3PNHzyJ3Ug69kJnkNaL-288" target="F3PNHzyJ3Ug69kJnkNaL-271">
          <mxGeometry relative="1" as="geometry">
            <mxPoint x="-314" y="-420" as="sourcePoint" />
            <mxPoint x="-265" y="-390" as="targetPoint" />
          </mxGeometry>
        </mxCell>
        <mxCell id="F3PNHzyJ3Ug69kJnkNaL-343" value="" style="endArrow=none;html=1;rounded=0;exitX=0.25;exitY=0;exitDx=0;exitDy=0;entryX=1;entryY=1;entryDx=0;entryDy=0;" edge="1" parent="1" source="F3PNHzyJ3Ug69kJnkNaL-271" target="F3PNHzyJ3Ug69kJnkNaL-289">
          <mxGeometry relative="1" as="geometry">
            <mxPoint x="-304" y="-410" as="sourcePoint" />
            <mxPoint x="-255" y="-380" as="targetPoint" />
          </mxGeometry>
        </mxCell>
        <mxCell id="F3PNHzyJ3Ug69kJnkNaL-344" value="" style="endArrow=none;html=1;rounded=0;exitX=0.5;exitY=0;exitDx=0;exitDy=0;entryX=0.5;entryY=1;entryDx=0;entryDy=0;" edge="1" parent="1" source="F3PNHzyJ3Ug69kJnkNaL-271" target="F3PNHzyJ3Ug69kJnkNaL-290">
          <mxGeometry relative="1" as="geometry">
            <mxPoint x="-294" y="-400" as="sourcePoint" />
            <mxPoint x="-245" y="-370" as="targetPoint" />
          </mxGeometry>
        </mxCell>
        <mxCell id="F3PNHzyJ3Ug69kJnkNaL-345" value="" style="endArrow=none;html=1;rounded=0;exitX=0.75;exitY=0;exitDx=0;exitDy=0;entryX=0.5;entryY=1;entryDx=0;entryDy=0;" edge="1" parent="1" source="F3PNHzyJ3Ug69kJnkNaL-271" target="F3PNHzyJ3Ug69kJnkNaL-291">
          <mxGeometry relative="1" as="geometry">
            <mxPoint x="-284" y="-390" as="sourcePoint" />
            <mxPoint x="-235" y="-360" as="targetPoint" />
          </mxGeometry>
        </mxCell>
        <mxCell id="F3PNHzyJ3Ug69kJnkNaL-346" value="" style="endArrow=none;html=1;rounded=0;exitX=1;exitY=0;exitDx=0;exitDy=0;entryX=0;entryY=1;entryDx=0;entryDy=0;" edge="1" parent="1" source="F3PNHzyJ3Ug69kJnkNaL-271" target="F3PNHzyJ3Ug69kJnkNaL-292">
          <mxGeometry relative="1" as="geometry">
            <mxPoint x="-274" y="-380" as="sourcePoint" />
            <mxPoint x="-225" y="-350" as="targetPoint" />
          </mxGeometry>
        </mxCell>
        <mxCell id="F3PNHzyJ3Ug69kJnkNaL-347" value="" style="endArrow=none;html=1;rounded=0;exitX=1;exitY=0.25;exitDx=0;exitDy=0;entryX=0;entryY=1;entryDx=0;entryDy=0;" edge="1" parent="1" source="F3PNHzyJ3Ug69kJnkNaL-271" target="F3PNHzyJ3Ug69kJnkNaL-293">
          <mxGeometry relative="1" as="geometry">
            <mxPoint x="-264" y="-370" as="sourcePoint" />
            <mxPoint x="-215" y="-340" as="targetPoint" />
          </mxGeometry>
        </mxCell>
        <mxCell id="F3PNHzyJ3Ug69kJnkNaL-348" value="" style="endArrow=none;html=1;rounded=0;exitX=1;exitY=0.75;exitDx=0;exitDy=0;entryX=0;entryY=0.5;entryDx=0;entryDy=0;" edge="1" parent="1" source="F3PNHzyJ3Ug69kJnkNaL-271" target="F3PNHzyJ3Ug69kJnkNaL-294">
          <mxGeometry relative="1" as="geometry">
            <mxPoint x="-254" y="-360" as="sourcePoint" />
            <mxPoint x="-205" y="-330" as="targetPoint" />
          </mxGeometry>
        </mxCell>
        <mxCell id="F3PNHzyJ3Ug69kJnkNaL-349" value="" style="endArrow=none;html=1;rounded=0;exitX=0;exitY=0.75;exitDx=0;exitDy=0;entryX=1;entryY=0.5;entryDx=0;entryDy=0;" edge="1" parent="1" source="F3PNHzyJ3Ug69kJnkNaL-272" target="F3PNHzyJ3Ug69kJnkNaL-295">
          <mxGeometry relative="1" as="geometry">
            <mxPoint x="-244" y="-350" as="sourcePoint" />
            <mxPoint x="-195" y="-320" as="targetPoint" />
          </mxGeometry>
        </mxCell>
        <mxCell id="F3PNHzyJ3Ug69kJnkNaL-350" value="" style="endArrow=none;html=1;rounded=0;exitX=0;exitY=0;exitDx=0;exitDy=0;entryX=1;entryY=1;entryDx=0;entryDy=0;" edge="1" parent="1" source="F3PNHzyJ3Ug69kJnkNaL-272" target="F3PNHzyJ3Ug69kJnkNaL-296">
          <mxGeometry relative="1" as="geometry">
            <mxPoint x="-234" y="-340" as="sourcePoint" />
            <mxPoint x="-185" y="-310" as="targetPoint" />
          </mxGeometry>
        </mxCell>
        <mxCell id="F3PNHzyJ3Ug69kJnkNaL-351" value="" style="endArrow=none;html=1;rounded=0;exitX=0.25;exitY=0;exitDx=0;exitDy=0;entryX=1;entryY=1;entryDx=0;entryDy=0;" edge="1" parent="1" source="F3PNHzyJ3Ug69kJnkNaL-272" target="F3PNHzyJ3Ug69kJnkNaL-297">
          <mxGeometry relative="1" as="geometry">
            <mxPoint x="-224" y="-330" as="sourcePoint" />
            <mxPoint x="-175" y="-300" as="targetPoint" />
          </mxGeometry>
        </mxCell>
        <mxCell id="F3PNHzyJ3Ug69kJnkNaL-352" value="" style="endArrow=none;html=1;rounded=0;exitX=0.75;exitY=0;exitDx=0;exitDy=0;entryX=0.5;entryY=1;entryDx=0;entryDy=0;" edge="1" parent="1" source="F3PNHzyJ3Ug69kJnkNaL-272" target="F3PNHzyJ3Ug69kJnkNaL-298">
          <mxGeometry relative="1" as="geometry">
            <mxPoint x="-214" y="-320" as="sourcePoint" />
            <mxPoint x="-165" y="-290" as="targetPoint" />
          </mxGeometry>
        </mxCell>
        <mxCell id="F3PNHzyJ3Ug69kJnkNaL-353" value="" style="endArrow=none;html=1;rounded=0;entryX=0.5;entryY=1;entryDx=0;entryDy=0;exitX=1;exitY=0.25;exitDx=0;exitDy=0;" edge="1" parent="1" source="F3PNHzyJ3Ug69kJnkNaL-272" target="F3PNHzyJ3Ug69kJnkNaL-299">
          <mxGeometry relative="1" as="geometry">
            <mxPoint x="540" y="-480" as="sourcePoint" />
            <mxPoint x="-155" y="-280" as="targetPoint" />
          </mxGeometry>
        </mxCell>
        <mxCell id="F3PNHzyJ3Ug69kJnkNaL-354" value="" style="endArrow=none;html=1;rounded=0;exitX=1;exitY=0.75;exitDx=0;exitDy=0;entryX=0;entryY=0.5;entryDx=0;entryDy=0;" edge="1" parent="1" source="F3PNHzyJ3Ug69kJnkNaL-272" target="F3PNHzyJ3Ug69kJnkNaL-300">
          <mxGeometry relative="1" as="geometry">
            <mxPoint x="-194" y="-300" as="sourcePoint" />
            <mxPoint x="-145" y="-270" as="targetPoint" />
          </mxGeometry>
        </mxCell>
        <mxCell id="F3PNHzyJ3Ug69kJnkNaL-355" value="" style="endArrow=none;html=1;rounded=0;exitX=0;exitY=0.5;exitDx=0;exitDy=0;entryX=1;entryY=0.5;entryDx=0;entryDy=0;" edge="1" parent="1" source="F3PNHzyJ3Ug69kJnkNaL-273" target="F3PNHzyJ3Ug69kJnkNaL-301">
          <mxGeometry relative="1" as="geometry">
            <mxPoint x="-184" y="-290" as="sourcePoint" />
            <mxPoint x="-135" y="-260" as="targetPoint" />
          </mxGeometry>
        </mxCell>
        <mxCell id="F3PNHzyJ3Ug69kJnkNaL-356" value="" style="endArrow=none;html=1;rounded=0;exitX=0;exitY=0;exitDx=0;exitDy=0;entryX=1;entryY=1;entryDx=0;entryDy=0;" edge="1" parent="1" source="F3PNHzyJ3Ug69kJnkNaL-273" target="F3PNHzyJ3Ug69kJnkNaL-302">
          <mxGeometry relative="1" as="geometry">
            <mxPoint x="-174" y="-280" as="sourcePoint" />
            <mxPoint x="-125" y="-250" as="targetPoint" />
          </mxGeometry>
        </mxCell>
        <mxCell id="F3PNHzyJ3Ug69kJnkNaL-357" value="" style="endArrow=none;html=1;rounded=0;exitX=0.371;exitY=-0.111;exitDx=0;exitDy=0;entryX=0.5;entryY=1;entryDx=0;entryDy=0;exitPerimeter=0;" edge="1" parent="1" source="F3PNHzyJ3Ug69kJnkNaL-273" target="F3PNHzyJ3Ug69kJnkNaL-303">
          <mxGeometry relative="1" as="geometry">
            <mxPoint x="-164" y="-270" as="sourcePoint" />
            <mxPoint x="-115" y="-240" as="targetPoint" />
          </mxGeometry>
        </mxCell>
        <mxCell id="F3PNHzyJ3Ug69kJnkNaL-358" value="" style="endArrow=none;html=1;rounded=0;exitX=0.75;exitY=0;exitDx=0;exitDy=0;entryX=0;entryY=1;entryDx=0;entryDy=0;" edge="1" parent="1" source="F3PNHzyJ3Ug69kJnkNaL-273" target="F3PNHzyJ3Ug69kJnkNaL-304">
          <mxGeometry relative="1" as="geometry">
            <mxPoint x="-154" y="-260" as="sourcePoint" />
            <mxPoint x="-105" y="-230" as="targetPoint" />
          </mxGeometry>
        </mxCell>
        <mxCell id="F3PNHzyJ3Ug69kJnkNaL-359" value="" style="endArrow=none;html=1;rounded=0;exitX=1;exitY=0.5;exitDx=0;exitDy=0;entryX=0;entryY=0.5;entryDx=0;entryDy=0;" edge="1" parent="1" source="F3PNHzyJ3Ug69kJnkNaL-273" target="F3PNHzyJ3Ug69kJnkNaL-305">
          <mxGeometry relative="1" as="geometry">
            <mxPoint x="-144" y="-250" as="sourcePoint" />
            <mxPoint x="-95" y="-220" as="targetPoint" />
          </mxGeometry>
        </mxCell>
        <mxCell id="F3PNHzyJ3Ug69kJnkNaL-360" value="" style="endArrow=none;html=1;rounded=0;exitX=0;exitY=0;exitDx=0;exitDy=0;entryX=0.5;entryY=1;entryDx=0;entryDy=0;" edge="1" parent="1" source="F3PNHzyJ3Ug69kJnkNaL-274" target="F3PNHzyJ3Ug69kJnkNaL-306">
          <mxGeometry relative="1" as="geometry">
            <mxPoint x="900" y="-450" as="sourcePoint" />
            <mxPoint x="920" y="-455" as="targetPoint" />
          </mxGeometry>
        </mxCell>
        <mxCell id="F3PNHzyJ3Ug69kJnkNaL-361" value="" style="endArrow=none;html=1;rounded=0;exitX=0.75;exitY=0;exitDx=0;exitDy=0;entryX=0.5;entryY=1;entryDx=0;entryDy=0;" edge="1" parent="1" source="F3PNHzyJ3Ug69kJnkNaL-274" target="F3PNHzyJ3Ug69kJnkNaL-307">
          <mxGeometry relative="1" as="geometry">
            <mxPoint x="910" y="-440" as="sourcePoint" />
            <mxPoint x="990" y="-430" as="targetPoint" />
          </mxGeometry>
        </mxCell>
        <mxCell id="F3PNHzyJ3Ug69kJnkNaL-362" value="" style="endArrow=none;html=1;rounded=0;exitX=0;exitY=0.25;exitDx=0;exitDy=0;entryX=0.5;entryY=1;entryDx=0;entryDy=0;" edge="1" parent="1" source="F3PNHzyJ3Ug69kJnkNaL-275" target="F3PNHzyJ3Ug69kJnkNaL-308">
          <mxGeometry relative="1" as="geometry">
            <mxPoint x="920" y="-430" as="sourcePoint" />
            <mxPoint x="940" y="-435" as="targetPoint" />
          </mxGeometry>
        </mxCell>
        <mxCell id="F3PNHzyJ3Ug69kJnkNaL-363" value="" style="endArrow=none;html=1;rounded=0;exitX=0.25;exitY=0;exitDx=0;exitDy=0;entryX=0.5;entryY=1;entryDx=0;entryDy=0;" edge="1" parent="1" source="F3PNHzyJ3Ug69kJnkNaL-275" target="F3PNHzyJ3Ug69kJnkNaL-309">
          <mxGeometry relative="1" as="geometry">
            <mxPoint x="930" y="-420" as="sourcePoint" />
            <mxPoint x="950" y="-425" as="targetPoint" />
          </mxGeometry>
        </mxCell>
        <mxCell id="F3PNHzyJ3Ug69kJnkNaL-364" value="" style="endArrow=none;html=1;rounded=0;exitX=0.5;exitY=0;exitDx=0;exitDy=0;entryX=0.5;entryY=1;entryDx=0;entryDy=0;" edge="1" parent="1" source="F3PNHzyJ3Ug69kJnkNaL-275" target="F3PNHzyJ3Ug69kJnkNaL-310">
          <mxGeometry relative="1" as="geometry">
            <mxPoint x="940" y="-410" as="sourcePoint" />
            <mxPoint x="960" y="-415" as="targetPoint" />
          </mxGeometry>
        </mxCell>
        <mxCell id="F3PNHzyJ3Ug69kJnkNaL-365" value="" style="endArrow=none;html=1;rounded=0;exitX=1;exitY=0.5;exitDx=0;exitDy=0;entryX=0;entryY=1;entryDx=0;entryDy=0;" edge="1" parent="1" source="F3PNHzyJ3Ug69kJnkNaL-275" target="F3PNHzyJ3Ug69kJnkNaL-311">
          <mxGeometry relative="1" as="geometry">
            <mxPoint x="950" y="-400" as="sourcePoint" />
            <mxPoint x="970" y="-405" as="targetPoint" />
          </mxGeometry>
        </mxCell>
        <mxCell id="F3PNHzyJ3Ug69kJnkNaL-366" value="" style="endArrow=none;html=1;rounded=0;exitX=0;exitY=0.5;exitDx=0;exitDy=0;entryX=1;entryY=1;entryDx=0;entryDy=0;" edge="1" parent="1" source="F3PNHzyJ3Ug69kJnkNaL-276" target="F3PNHzyJ3Ug69kJnkNaL-312">
          <mxGeometry relative="1" as="geometry">
            <mxPoint x="1720" y="-440" as="sourcePoint" />
            <mxPoint x="1738" y="-465" as="targetPoint" />
          </mxGeometry>
        </mxCell>
        <mxCell id="F3PNHzyJ3Ug69kJnkNaL-367" value="" style="endArrow=none;html=1;rounded=0;exitX=0.25;exitY=0;exitDx=0;exitDy=0;entryX=1;entryY=1;entryDx=0;entryDy=0;" edge="1" parent="1" source="F3PNHzyJ3Ug69kJnkNaL-276" target="F3PNHzyJ3Ug69kJnkNaL-313">
          <mxGeometry relative="1" as="geometry">
            <mxPoint x="1730" y="-430" as="sourcePoint" />
            <mxPoint x="1748" y="-455" as="targetPoint" />
          </mxGeometry>
        </mxCell>
        <mxCell id="F3PNHzyJ3Ug69kJnkNaL-368" value="" style="endArrow=none;html=1;rounded=0;exitX=0.5;exitY=0;exitDx=0;exitDy=0;entryX=0.5;entryY=1;entryDx=0;entryDy=0;" edge="1" parent="1" source="F3PNHzyJ3Ug69kJnkNaL-276" target="F3PNHzyJ3Ug69kJnkNaL-314">
          <mxGeometry relative="1" as="geometry">
            <mxPoint x="1740" y="-420" as="sourcePoint" />
            <mxPoint x="1758" y="-445" as="targetPoint" />
          </mxGeometry>
        </mxCell>
        <mxCell id="F3PNHzyJ3Ug69kJnkNaL-369" value="" style="endArrow=none;html=1;rounded=0;exitX=1;exitY=0.5;exitDx=0;exitDy=0;entryX=0;entryY=1;entryDx=0;entryDy=0;" edge="1" parent="1" source="F3PNHzyJ3Ug69kJnkNaL-276" target="F3PNHzyJ3Ug69kJnkNaL-315">
          <mxGeometry relative="1" as="geometry">
            <mxPoint x="1750" y="-410" as="sourcePoint" />
            <mxPoint x="1768" y="-435" as="targetPoint" />
          </mxGeometry>
        </mxCell>
        <mxCell id="F3PNHzyJ3Ug69kJnkNaL-370" value="" style="endArrow=none;html=1;rounded=0;exitX=0;exitY=0.5;exitDx=0;exitDy=0;entryX=1;entryY=0.5;entryDx=0;entryDy=0;" edge="1" parent="1" source="F3PNHzyJ3Ug69kJnkNaL-277" target="F3PNHzyJ3Ug69kJnkNaL-320">
          <mxGeometry relative="1" as="geometry">
            <mxPoint x="1760" y="-400" as="sourcePoint" />
            <mxPoint x="1778" y="-425" as="targetPoint" />
          </mxGeometry>
        </mxCell>
        <mxCell id="F3PNHzyJ3Ug69kJnkNaL-371" value="" style="endArrow=none;html=1;rounded=0;exitX=0;exitY=0;exitDx=0;exitDy=0;entryX=0.5;entryY=1;entryDx=0;entryDy=0;" edge="1" parent="1" source="F3PNHzyJ3Ug69kJnkNaL-277" target="F3PNHzyJ3Ug69kJnkNaL-316">
          <mxGeometry relative="1" as="geometry">
            <mxPoint x="1770" y="-390" as="sourcePoint" />
            <mxPoint x="1788" y="-415" as="targetPoint" />
          </mxGeometry>
        </mxCell>
        <mxCell id="F3PNHzyJ3Ug69kJnkNaL-372" value="" style="endArrow=none;html=1;rounded=0;exitX=0.5;exitY=0;exitDx=0;exitDy=0;entryX=0.5;entryY=1;entryDx=0;entryDy=0;" edge="1" parent="1" source="F3PNHzyJ3Ug69kJnkNaL-277" target="F3PNHzyJ3Ug69kJnkNaL-318">
          <mxGeometry relative="1" as="geometry">
            <mxPoint x="1780" y="-380" as="sourcePoint" />
            <mxPoint x="1798" y="-405" as="targetPoint" />
          </mxGeometry>
        </mxCell>
        <mxCell id="F3PNHzyJ3Ug69kJnkNaL-373" value="" style="endArrow=none;html=1;rounded=0;exitX=0.75;exitY=0;exitDx=0;exitDy=0;entryX=0.5;entryY=1;entryDx=0;entryDy=0;" edge="1" parent="1" source="F3PNHzyJ3Ug69kJnkNaL-277" target="F3PNHzyJ3Ug69kJnkNaL-317">
          <mxGeometry relative="1" as="geometry">
            <mxPoint x="1790" y="-370" as="sourcePoint" />
            <mxPoint x="1808" y="-395" as="targetPoint" />
          </mxGeometry>
        </mxCell>
        <mxCell id="F3PNHzyJ3Ug69kJnkNaL-374" value="" style="endArrow=none;html=1;rounded=0;exitX=1;exitY=0.25;exitDx=0;exitDy=0;entryX=0;entryY=0.5;entryDx=0;entryDy=0;" edge="1" parent="1" source="F3PNHzyJ3Ug69kJnkNaL-277" target="F3PNHzyJ3Ug69kJnkNaL-319">
          <mxGeometry relative="1" as="geometry">
            <mxPoint x="1800" y="-360" as="sourcePoint" />
            <mxPoint x="1818" y="-385" as="targetPoint" />
          </mxGeometry>
        </mxCell>
        <mxCell id="F3PNHzyJ3Ug69kJnkNaL-375" value="" style="endArrow=none;html=1;rounded=0;exitX=1;exitY=0.5;exitDx=0;exitDy=0;entryX=0;entryY=0.5;entryDx=0;entryDy=0;" edge="1" parent="1" source="F3PNHzyJ3Ug69kJnkNaL-321" target="F3PNHzyJ3Ug69kJnkNaL-278">
          <mxGeometry relative="1" as="geometry">
            <mxPoint x="2033" y="-82" as="sourcePoint" />
            <mxPoint x="1980" y="-101" as="targetPoint" />
          </mxGeometry>
        </mxCell>
        <mxCell id="F3PNHzyJ3Ug69kJnkNaL-376" value="" style="endArrow=none;html=1;rounded=0;exitX=1;exitY=1;exitDx=0;exitDy=0;entryX=0;entryY=0.25;entryDx=0;entryDy=0;" edge="1" parent="1" source="F3PNHzyJ3Ug69kJnkNaL-322" target="F3PNHzyJ3Ug69kJnkNaL-278">
          <mxGeometry relative="1" as="geometry">
            <mxPoint x="2043" y="-72" as="sourcePoint" />
            <mxPoint x="1990" y="-91" as="targetPoint" />
          </mxGeometry>
        </mxCell>
        <mxCell id="F3PNHzyJ3Ug69kJnkNaL-377" value="" style="endArrow=none;html=1;rounded=0;exitX=0.25;exitY=0;exitDx=0;exitDy=0;entryX=0.5;entryY=1;entryDx=0;entryDy=0;" edge="1" parent="1" source="F3PNHzyJ3Ug69kJnkNaL-278" target="F3PNHzyJ3Ug69kJnkNaL-323">
          <mxGeometry relative="1" as="geometry">
            <mxPoint x="2053" y="-62" as="sourcePoint" />
            <mxPoint x="2000" y="-81" as="targetPoint" />
          </mxGeometry>
        </mxCell>
        <mxCell id="F3PNHzyJ3Ug69kJnkNaL-378" value="" style="endArrow=none;html=1;rounded=0;exitX=0.75;exitY=0;exitDx=0;exitDy=0;entryX=0.5;entryY=1;entryDx=0;entryDy=0;" edge="1" parent="1" source="F3PNHzyJ3Ug69kJnkNaL-278" target="F3PNHzyJ3Ug69kJnkNaL-324">
          <mxGeometry relative="1" as="geometry">
            <mxPoint x="2063" y="-52" as="sourcePoint" />
            <mxPoint x="2010" y="-71" as="targetPoint" />
          </mxGeometry>
        </mxCell>
        <mxCell id="F3PNHzyJ3Ug69kJnkNaL-379" value="" style="endArrow=none;html=1;rounded=0;exitX=1;exitY=0;exitDx=0;exitDy=0;entryX=0;entryY=1;entryDx=0;entryDy=0;" edge="1" parent="1" source="F3PNHzyJ3Ug69kJnkNaL-278" target="F3PNHzyJ3Ug69kJnkNaL-326">
          <mxGeometry relative="1" as="geometry">
            <mxPoint x="2073" y="-42" as="sourcePoint" />
            <mxPoint x="2020" y="-61" as="targetPoint" />
          </mxGeometry>
        </mxCell>
        <mxCell id="F3PNHzyJ3Ug69kJnkNaL-380" value="" style="endArrow=none;html=1;rounded=0;exitX=1;exitY=0.75;exitDx=0;exitDy=0;entryX=0;entryY=0.5;entryDx=0;entryDy=0;" edge="1" parent="1" source="F3PNHzyJ3Ug69kJnkNaL-278" target="F3PNHzyJ3Ug69kJnkNaL-325">
          <mxGeometry relative="1" as="geometry">
            <mxPoint x="2083" y="-32" as="sourcePoint" />
            <mxPoint x="2030" y="-51" as="targetPoint" />
          </mxGeometry>
        </mxCell>
        <mxCell id="F3PNHzyJ3Ug69kJnkNaL-381" value="" style="endArrow=none;html=1;rounded=0;exitX=0;exitY=0.75;exitDx=0;exitDy=0;entryX=1;entryY=1;entryDx=0;entryDy=0;" edge="1" parent="1" source="F3PNHzyJ3Ug69kJnkNaL-279" target="F3PNHzyJ3Ug69kJnkNaL-327">
          <mxGeometry relative="1" as="geometry">
            <mxPoint x="2000" y="223" as="sourcePoint" />
            <mxPoint x="2047" y="219" as="targetPoint" />
          </mxGeometry>
        </mxCell>
        <mxCell id="F3PNHzyJ3Ug69kJnkNaL-382" value="" style="endArrow=none;html=1;rounded=0;exitX=0.25;exitY=0;exitDx=0;exitDy=0;entryX=0.5;entryY=1;entryDx=0;entryDy=0;" edge="1" parent="1" source="F3PNHzyJ3Ug69kJnkNaL-279" target="F3PNHzyJ3Ug69kJnkNaL-328">
          <mxGeometry relative="1" as="geometry">
            <mxPoint x="2010" y="233" as="sourcePoint" />
            <mxPoint x="2057" y="229" as="targetPoint" />
          </mxGeometry>
        </mxCell>
        <mxCell id="F3PNHzyJ3Ug69kJnkNaL-383" value="" style="endArrow=none;html=1;rounded=0;exitX=0.5;exitY=1;exitDx=0;exitDy=0;entryX=0.75;entryY=0;entryDx=0;entryDy=0;" edge="1" parent="1" source="F3PNHzyJ3Ug69kJnkNaL-329" target="F3PNHzyJ3Ug69kJnkNaL-279">
          <mxGeometry relative="1" as="geometry">
            <mxPoint x="2020" y="243" as="sourcePoint" />
            <mxPoint x="2067" y="239" as="targetPoint" />
          </mxGeometry>
        </mxCell>
        <mxCell id="F3PNHzyJ3Ug69kJnkNaL-384" value="" style="endArrow=none;html=1;rounded=0;exitX=0;exitY=1;exitDx=0;exitDy=0;entryX=1;entryY=0.5;entryDx=0;entryDy=0;" edge="1" parent="1" source="F3PNHzyJ3Ug69kJnkNaL-330" target="F3PNHzyJ3Ug69kJnkNaL-279">
          <mxGeometry relative="1" as="geometry">
            <mxPoint x="2030" y="253" as="sourcePoint" />
            <mxPoint x="2077" y="249" as="targetPoint" />
          </mxGeometry>
        </mxCell>
        <mxCell id="F3PNHzyJ3Ug69kJnkNaL-385" value="" style="endArrow=none;html=1;rounded=0;exitX=1;exitY=0.5;exitDx=0;exitDy=0;entryX=0;entryY=0.5;entryDx=0;entryDy=0;" edge="1" parent="1" source="F3PNHzyJ3Ug69kJnkNaL-331" target="F3PNHzyJ3Ug69kJnkNaL-280">
          <mxGeometry relative="1" as="geometry">
            <mxPoint x="2047" y="492" as="sourcePoint" />
            <mxPoint x="2011" y="490" as="targetPoint" />
          </mxGeometry>
        </mxCell>
        <mxCell id="F3PNHzyJ3Ug69kJnkNaL-386" value="" style="endArrow=none;html=1;rounded=0;exitX=0.5;exitY=1;exitDx=0;exitDy=0;entryX=0.25;entryY=0;entryDx=0;entryDy=0;" edge="1" parent="1" source="F3PNHzyJ3Ug69kJnkNaL-332" target="F3PNHzyJ3Ug69kJnkNaL-280">
          <mxGeometry relative="1" as="geometry">
            <mxPoint x="2057" y="502" as="sourcePoint" />
            <mxPoint x="2021" y="500" as="targetPoint" />
          </mxGeometry>
        </mxCell>
        <mxCell id="F3PNHzyJ3Ug69kJnkNaL-387" value="" style="endArrow=none;html=1;rounded=0;exitX=0.5;exitY=1;exitDx=0;exitDy=0;entryX=0.75;entryY=0;entryDx=0;entryDy=0;" edge="1" parent="1" source="F3PNHzyJ3Ug69kJnkNaL-333" target="F3PNHzyJ3Ug69kJnkNaL-280">
          <mxGeometry relative="1" as="geometry">
            <mxPoint x="2067" y="512" as="sourcePoint" />
            <mxPoint x="2031" y="510" as="targetPoint" />
          </mxGeometry>
        </mxCell>
        <mxCell id="F3PNHzyJ3Ug69kJnkNaL-388" value="" style="endArrow=none;html=1;rounded=0;exitX=0;exitY=0.5;exitDx=0;exitDy=0;entryX=1;entryY=0.5;entryDx=0;entryDy=0;" edge="1" parent="1" source="F3PNHzyJ3Ug69kJnkNaL-334" target="F3PNHzyJ3Ug69kJnkNaL-280">
          <mxGeometry relative="1" as="geometry">
            <mxPoint x="2077" y="522" as="sourcePoint" />
            <mxPoint x="2041" y="520" as="targetPoint" />
          </mxGeometry>
        </mxCell>
        <mxCell id="F3PNHzyJ3Ug69kJnkNaL-389" value="" style="endArrow=none;html=1;rounded=0;exitX=0.5;exitY=0;exitDx=0;exitDy=0;entryX=0.5;entryY=1;entryDx=0;entryDy=0;" edge="1" parent="1" source="F3PNHzyJ3Ug69kJnkNaL-13" target="F3PNHzyJ3Ug69kJnkNaL-2">
          <mxGeometry relative="1" as="geometry">
            <mxPoint x="1009" y="385" as="sourcePoint" />
            <mxPoint x="1020" y="250" as="targetPoint" />
          </mxGeometry>
        </mxCell>
        <mxCell id="F3PNHzyJ3Ug69kJnkNaL-390" value="(N)" style="resizable=0;html=1;whiteSpace=wrap;align=right;verticalAlign=bottom;" connectable="0" vertex="1" parent="1">
          <mxGeometry x="1017.7943331827514" y="220.93685257829884" as="geometry" />
        </mxCell>
        <mxCell id="F3PNHzyJ3Ug69kJnkNaL-391" value="&lt;b&gt;Varolma Bağımlılığı&lt;/b&gt;" style="points=[[0,0],[0.25,0],[0.5,0],[0.75,0],[1,0],[1,0.25],[1,0.5],[1,0.75],[1,1],[0.75,1],[0.5,1],[0.25,1],[0,1],[0,0.75],[0,0.5],[0,0.25]];outlineConnect=0;gradientColor=none;html=1;whiteSpace=wrap;fontSize=12;fontStyle=0;container=1;pointerEvents=0;collapsible=0;recursiveResize=0;shape=mxgraph.aws4.group;grIcon=mxgraph.aws4.group_spot_fleet;strokeColor=#D86613;fillColor=none;verticalAlign=top;align=left;spacingLeft=30;fontColor=#D86613;dashed=0;" vertex="1" parent="1">
          <mxGeometry x="920" y="-120" width="170" height="360" as="geometry" />
        </mxCell>
        <mxCell id="F3PNHzyJ3Ug69kJnkNaL-392" value="" style="endArrow=none;html=1;rounded=0;exitX=0.385;exitY=0.015;exitDx=0;exitDy=0;exitPerimeter=0;entryX=0.75;entryY=1;entryDx=0;entryDy=0;" edge="1" parent="1" source="F3PNHzyJ3Ug69kJnkNaL-396" target="F3PNHzyJ3Ug69kJnkNaL-401">
          <mxGeometry width="50" height="50" relative="1" as="geometry">
            <mxPoint x="-360.75" y="429" as="sourcePoint" />
            <mxPoint x="-587.75" y="367.02" as="targetPoint" />
          </mxGeometry>
        </mxCell>
        <mxCell id="F3PNHzyJ3Ug69kJnkNaL-393" value="" style="endArrow=none;html=1;rounded=0;exitX=0.5;exitY=0;exitDx=0;exitDy=0;entryX=0;entryY=0.75;entryDx=0;entryDy=0;" edge="1" parent="1" source="F3PNHzyJ3Ug69kJnkNaL-402" target="F3PNHzyJ3Ug69kJnkNaL-394">
          <mxGeometry width="50" height="50" relative="1" as="geometry">
            <mxPoint x="-343.25" y="335" as="sourcePoint" />
            <mxPoint x="-447.75" y="255" as="targetPoint" />
          </mxGeometry>
        </mxCell>
        <mxCell id="F3PNHzyJ3Ug69kJnkNaL-394" value="ISA" style="triangle;whiteSpace=wrap;html=1;direction=north;" vertex="1" parent="1">
          <mxGeometry x="-557.75" y="200" width="80" height="65" as="geometry" />
        </mxCell>
        <mxCell id="F3PNHzyJ3Ug69kJnkNaL-395" value="sözleşme numarası&amp;nbsp;" style="ellipse;whiteSpace=wrap;html=1;" vertex="1" parent="1">
          <mxGeometry x="-453.25" y="413.02" width="110" height="37.5" as="geometry" />
        </mxCell>
        <mxCell id="F3PNHzyJ3Ug69kJnkNaL-396" value="çalışılan saat" style="ellipse;whiteSpace=wrap;html=1;" vertex="1" parent="1">
          <mxGeometry x="-587.75" y="420.52" width="73" height="37.5" as="geometry" />
        </mxCell>
        <mxCell id="F3PNHzyJ3Ug69kJnkNaL-397" value="saat ücreti" style="ellipse;whiteSpace=wrap;html=1;" vertex="1" parent="1">
          <mxGeometry x="-707.75" y="428.52" width="80" height="27.5" as="geometry" />
        </mxCell>
        <mxCell id="F3PNHzyJ3Ug69kJnkNaL-398" value="" style="endArrow=none;html=1;rounded=0;exitX=0.5;exitY=0;exitDx=0;exitDy=0;entryX=0.013;entryY=0.388;entryDx=0;entryDy=0;entryPerimeter=0;" edge="1" parent="1" source="F3PNHzyJ3Ug69kJnkNaL-401" target="F3PNHzyJ3Ug69kJnkNaL-394">
          <mxGeometry width="50" height="50" relative="1" as="geometry">
            <mxPoint x="-647.75" y="323.02" as="sourcePoint" />
            <mxPoint x="-527.75" y="265" as="targetPoint" />
          </mxGeometry>
        </mxCell>
        <mxCell id="F3PNHzyJ3Ug69kJnkNaL-399" value="" style="endArrow=none;html=1;rounded=0;exitX=0.5;exitY=0;exitDx=0;exitDy=0;entryX=0.5;entryY=1;entryDx=0;entryDy=0;" edge="1" parent="1" source="F3PNHzyJ3Ug69kJnkNaL-395" target="F3PNHzyJ3Ug69kJnkNaL-402">
          <mxGeometry width="50" height="50" relative="1" as="geometry">
            <mxPoint x="-430.75" y="430" as="sourcePoint" />
            <mxPoint x="-403.25" y="380" as="targetPoint" />
          </mxGeometry>
        </mxCell>
        <mxCell id="F3PNHzyJ3Ug69kJnkNaL-400" value="" style="endArrow=none;html=1;rounded=0;exitX=0.5;exitY=0;exitDx=0;exitDy=0;entryX=0.25;entryY=1;entryDx=0;entryDy=0;" edge="1" parent="1" source="F3PNHzyJ3Ug69kJnkNaL-397" target="F3PNHzyJ3Ug69kJnkNaL-401">
          <mxGeometry width="50" height="50" relative="1" as="geometry">
            <mxPoint x="-597.75" y="429" as="sourcePoint" />
            <mxPoint x="-587.75" y="367.02" as="targetPoint" />
          </mxGeometry>
        </mxCell>
        <mxCell id="F3PNHzyJ3Ug69kJnkNaL-401" value="saatli çalışan&amp;nbsp;" style="shape=ext;margin=3;double=1;whiteSpace=wrap;html=1;align=center;" vertex="1" parent="1">
          <mxGeometry x="-647.75" y="327.02" width="90" height="45" as="geometry" />
        </mxCell>
        <mxCell id="F3PNHzyJ3Ug69kJnkNaL-402" value="sözleşmeli çalışan" style="rounded=0;whiteSpace=wrap;html=1;" vertex="1" parent="1">
          <mxGeometry x="-473.25" y="320.52" width="115.5" height="47.5" as="geometry" />
        </mxCell>
        <mxCell id="F3PNHzyJ3Ug69kJnkNaL-403" value="Taşıt" style="whiteSpace=wrap;html=1;align=center;" vertex="1" parent="1">
          <mxGeometry x="-575.5" y="-270.79" width="100" height="40" as="geometry" />
        </mxCell>
        <mxCell id="F3PNHzyJ3Ug69kJnkNaL-404" value="" style="endArrow=classic;html=1;rounded=0;exitX=0.5;exitY=1;exitDx=0;exitDy=0;entryX=0.5;entryY=0;entryDx=0;entryDy=0;" edge="1" parent="1" source="F3PNHzyJ3Ug69kJnkNaL-403" target="F3PNHzyJ3Ug69kJnkNaL-405">
          <mxGeometry width="50" height="50" relative="1" as="geometry">
            <mxPoint x="-295.5" y="-178.29" as="sourcePoint" />
            <mxPoint x="-525.5" y="-188.29" as="targetPoint" />
          </mxGeometry>
        </mxCell>
        <mxCell id="F3PNHzyJ3Ug69kJnkNaL-405" value="" style="ellipse;whiteSpace=wrap;html=1;aspect=fixed;" vertex="1" parent="1">
          <mxGeometry x="-545.5" y="-188" width="40" height="40" as="geometry" />
        </mxCell>
        <mxCell id="F3PNHzyJ3Ug69kJnkNaL-406" value="" style="endArrow=none;html=1;rounded=0;exitX=0.5;exitY=0;exitDx=0;exitDy=0;entryX=0.5;entryY=1;entryDx=0;entryDy=0;" edge="1" parent="1" source="F3PNHzyJ3Ug69kJnkNaL-405" target="F3PNHzyJ3Ug69kJnkNaL-405">
          <mxGeometry width="50" height="50" relative="1" as="geometry">
            <mxPoint x="-295.5" y="-178.29" as="sourcePoint" />
            <mxPoint x="-245.5" y="-228.29" as="targetPoint" />
          </mxGeometry>
        </mxCell>
        <mxCell id="F3PNHzyJ3Ug69kJnkNaL-407" value="" style="endArrow=none;html=1;rounded=0;exitX=0;exitY=0.5;exitDx=0;exitDy=0;entryX=1;entryY=0.5;entryDx=0;entryDy=0;" edge="1" parent="1" source="F3PNHzyJ3Ug69kJnkNaL-405" target="F3PNHzyJ3Ug69kJnkNaL-405">
          <mxGeometry width="50" height="50" relative="1" as="geometry">
            <mxPoint x="-515.5" y="-178.29" as="sourcePoint" />
            <mxPoint x="-515.5" y="-138.29" as="targetPoint" />
          </mxGeometry>
        </mxCell>
        <mxCell id="F3PNHzyJ3Ug69kJnkNaL-408" value="" style="endArrow=classic;html=1;rounded=0;exitX=0;exitY=1;exitDx=0;exitDy=0;entryX=0.5;entryY=0;entryDx=0;entryDy=0;" edge="1" parent="1" source="F3PNHzyJ3Ug69kJnkNaL-405" target="F3PNHzyJ3Ug69kJnkNaL-410">
          <mxGeometry width="50" height="50" relative="1" as="geometry">
            <mxPoint x="-515.5" y="-221.29" as="sourcePoint" />
            <mxPoint x="-575.5" y="-118.29" as="targetPoint" />
          </mxGeometry>
        </mxCell>
        <mxCell id="F3PNHzyJ3Ug69kJnkNaL-409" value="" style="endArrow=classic;html=1;rounded=0;exitX=1;exitY=1;exitDx=0;exitDy=0;entryX=0.5;entryY=0;entryDx=0;entryDy=0;" edge="1" parent="1" source="F3PNHzyJ3Ug69kJnkNaL-405" target="F3PNHzyJ3Ug69kJnkNaL-411">
          <mxGeometry width="50" height="50" relative="1" as="geometry">
            <mxPoint x="-529.5" y="-144.29" as="sourcePoint" />
            <mxPoint x="-475.5" y="-118.29" as="targetPoint" />
          </mxGeometry>
        </mxCell>
        <mxCell id="F3PNHzyJ3Ug69kJnkNaL-410" value="Taksi" style="whiteSpace=wrap;html=1;align=center;" vertex="1" parent="1">
          <mxGeometry x="-645.5" y="-93.60000000000001" width="100" height="40" as="geometry" />
        </mxCell>
        <mxCell id="F3PNHzyJ3Ug69kJnkNaL-411" value="Otobüs" style="whiteSpace=wrap;html=1;align=center;" vertex="1" parent="1">
          <mxGeometry x="-505.5" y="-93.29" width="100" height="40" as="geometry" />
        </mxCell>
        <mxCell id="F3PNHzyJ3Ug69kJnkNaL-412" value="" style="endArrow=none;html=1;rounded=0;entryX=0.25;entryY=0;entryDx=0;entryDy=0;exitX=0.722;exitY=1.017;exitDx=0;exitDy=0;exitPerimeter=0;" edge="1" parent="1" source="F3PNHzyJ3Ug69kJnkNaL-416" target="F3PNHzyJ3Ug69kJnkNaL-403">
          <mxGeometry relative="1" as="geometry">
            <mxPoint x="-595.5" y="-312.98" as="sourcePoint" />
            <mxPoint x="-490.5" y="-462.98" as="targetPoint" />
          </mxGeometry>
        </mxCell>
        <mxCell id="F3PNHzyJ3Ug69kJnkNaL-413" value="" style="endArrow=none;html=1;rounded=0;entryX=0.5;entryY=0;entryDx=0;entryDy=0;exitX=0.5;exitY=1;exitDx=0;exitDy=0;" edge="1" parent="1" source="F3PNHzyJ3Ug69kJnkNaL-415" target="F3PNHzyJ3Ug69kJnkNaL-403">
          <mxGeometry relative="1" as="geometry">
            <mxPoint x="-525.5" y="-312.98" as="sourcePoint" />
            <mxPoint x="-548.5" y="-258.98" as="targetPoint" />
          </mxGeometry>
        </mxCell>
        <mxCell id="F3PNHzyJ3Ug69kJnkNaL-414" value="" style="endArrow=none;html=1;rounded=0;entryX=0.75;entryY=0;entryDx=0;entryDy=0;exitX=0;exitY=1;exitDx=0;exitDy=0;" edge="1" parent="1" source="F3PNHzyJ3Ug69kJnkNaL-417" target="F3PNHzyJ3Ug69kJnkNaL-403">
          <mxGeometry relative="1" as="geometry">
            <mxPoint x="-465.5" y="-312.98" as="sourcePoint" />
            <mxPoint x="-515.5" y="-260.98" as="targetPoint" />
          </mxGeometry>
        </mxCell>
        <mxCell id="F3PNHzyJ3Ug69kJnkNaL-415" value="Plaka" style="ellipse;whiteSpace=wrap;html=1;align=center;" vertex="1" parent="1">
          <mxGeometry x="-555.5" y="-342.98" width="60" height="30" as="geometry" />
        </mxCell>
        <mxCell id="F3PNHzyJ3Ug69kJnkNaL-416" value="TasItID" style="ellipse;whiteSpace=wrap;html=1;align=center;fontStyle=4;" vertex="1" parent="1">
          <mxGeometry x="-645.5" y="-327.98" width="60" height="35" as="geometry" />
        </mxCell>
        <mxCell id="F3PNHzyJ3Ug69kJnkNaL-417" value="TasItTur" style="ellipse;whiteSpace=wrap;html=1;align=center;" vertex="1" parent="1">
          <mxGeometry x="-465.5" y="-322.97999999999996" width="60" height="30" as="geometry" />
        </mxCell>
        <mxCell id="F3PNHzyJ3Ug69kJnkNaL-418" value="" style="endArrow=none;html=1;rounded=0;entryX=0;entryY=0.5;entryDx=0;entryDy=0;exitX=1;exitY=1;exitDx=0;exitDy=0;" edge="1" parent="1" source="F3PNHzyJ3Ug69kJnkNaL-419" target="F3PNHzyJ3Ug69kJnkNaL-410">
          <mxGeometry relative="1" as="geometry">
            <mxPoint x="-690.5" y="-126.69000000000001" as="sourcePoint" />
            <mxPoint x="-645.5" y="-84.69000000000001" as="targetPoint" />
          </mxGeometry>
        </mxCell>
        <mxCell id="F3PNHzyJ3Ug69kJnkNaL-419" value="TaksiID" style="ellipse;whiteSpace=wrap;html=1;align=center;fontStyle=4;" vertex="1" parent="1">
          <mxGeometry x="-735.5" y="-112.98" width="60" height="35" as="geometry" />
        </mxCell>
        <mxCell id="F3PNHzyJ3Ug69kJnkNaL-420" value="" style="endArrow=none;html=1;rounded=0;entryX=0;entryY=0.75;entryDx=0;entryDy=0;exitX=1;exitY=0.5;exitDx=0;exitDy=0;" edge="1" parent="1" source="F3PNHzyJ3Ug69kJnkNaL-421" target="F3PNHzyJ3Ug69kJnkNaL-410">
          <mxGeometry relative="1" as="geometry">
            <mxPoint x="-701" y="-38.290000000000006" as="sourcePoint" />
            <mxPoint x="-701" y="3.7099999999999973" as="targetPoint" />
          </mxGeometry>
        </mxCell>
        <mxCell id="F3PNHzyJ3Ug69kJnkNaL-421" value="SarıRenk" style="ellipse;whiteSpace=wrap;html=1;align=center;" vertex="1" parent="1">
          <mxGeometry x="-731" y="-68.29" width="60" height="30" as="geometry" />
        </mxCell>
        <mxCell id="F3PNHzyJ3Ug69kJnkNaL-422" value="" style="endArrow=none;html=1;rounded=0;entryX=1;entryY=0;entryDx=0;entryDy=0;exitX=0;exitY=0.5;exitDx=0;exitDy=0;" edge="1" parent="1" source="F3PNHzyJ3Ug69kJnkNaL-423" target="F3PNHzyJ3Ug69kJnkNaL-411">
          <mxGeometry relative="1" as="geometry">
            <mxPoint x="-325" y="-138.75" as="sourcePoint" />
            <mxPoint x="-280" y="-86.04" as="targetPoint" />
          </mxGeometry>
        </mxCell>
        <mxCell id="F3PNHzyJ3Ug69kJnkNaL-423" value="OtobusID" style="ellipse;whiteSpace=wrap;html=1;align=center;fontStyle=4;" vertex="1" parent="1">
          <mxGeometry x="-370" y="-125.04" width="60" height="35" as="geometry" />
        </mxCell>
        <mxCell id="F3PNHzyJ3Ug69kJnkNaL-424" value="" style="endArrow=none;html=1;rounded=0;entryX=1;entryY=0.75;entryDx=0;entryDy=0;exitX=0;exitY=0.5;exitDx=0;exitDy=0;" edge="1" parent="1" source="F3PNHzyJ3Ug69kJnkNaL-425" target="F3PNHzyJ3Ug69kJnkNaL-411">
          <mxGeometry relative="1" as="geometry">
            <mxPoint x="-335.5" y="-50.35000000000001" as="sourcePoint" />
            <mxPoint x="-280" y="-76.04" as="targetPoint" />
          </mxGeometry>
        </mxCell>
        <mxCell id="F3PNHzyJ3Ug69kJnkNaL-425" value="YolcuKapasitesi" style="ellipse;whiteSpace=wrap;html=1;align=center;" vertex="1" parent="1">
          <mxGeometry x="-365.5" y="-82.98" width="70" height="32.63" as="geometry" />
        </mxCell>
        <mxCell id="F3PNHzyJ3Ug69kJnkNaL-426" value="Eşya" style="whiteSpace=wrap;html=1;align=center;" vertex="1" parent="1">
          <mxGeometry x="-50" y="-286.1" width="100" height="40" as="geometry" />
        </mxCell>
        <mxCell id="F3PNHzyJ3Ug69kJnkNaL-427" value="" style="endArrow=classic;html=1;rounded=0;exitX=0.5;exitY=1;exitDx=0;exitDy=0;entryX=1;entryY=0.5;entryDx=0;entryDy=0;" edge="1" parent="1" source="F3PNHzyJ3Ug69kJnkNaL-426" target="F3PNHzyJ3Ug69kJnkNaL-446">
          <mxGeometry width="50" height="50" relative="1" as="geometry">
            <mxPoint x="230" y="-193.6" as="sourcePoint" />
            <mxPoint y="-203.30999999999997" as="targetPoint" />
          </mxGeometry>
        </mxCell>
        <mxCell id="F3PNHzyJ3Ug69kJnkNaL-428" value="" style="endArrow=classic;html=1;rounded=0;exitX=-0.029;exitY=0.038;exitDx=0;exitDy=0;entryX=0.5;entryY=0;entryDx=0;entryDy=0;exitPerimeter=0;" edge="1" parent="1" source="F3PNHzyJ3Ug69kJnkNaL-446" target="F3PNHzyJ3Ug69kJnkNaL-430">
          <mxGeometry width="50" height="50" relative="1" as="geometry">
            <mxPoint x="-14.142135623731065" y="-169.1678643762689" as="sourcePoint" />
            <mxPoint x="-50" y="-133.6" as="targetPoint" />
          </mxGeometry>
        </mxCell>
        <mxCell id="F3PNHzyJ3Ug69kJnkNaL-429" value="" style="endArrow=classic;html=1;rounded=0;exitX=-0.064;exitY=1.001;exitDx=0;exitDy=0;entryX=0.5;entryY=0;entryDx=0;entryDy=0;exitPerimeter=0;" edge="1" parent="1" source="F3PNHzyJ3Ug69kJnkNaL-446" target="F3PNHzyJ3Ug69kJnkNaL-431">
          <mxGeometry width="50" height="50" relative="1" as="geometry">
            <mxPoint x="14.142135623731065" y="-169.16786437626868" as="sourcePoint" />
            <mxPoint x="50" y="-133.6" as="targetPoint" />
          </mxGeometry>
        </mxCell>
        <mxCell id="F3PNHzyJ3Ug69kJnkNaL-430" value="Mobilya" style="whiteSpace=wrap;html=1;align=center;" vertex="1" parent="1">
          <mxGeometry x="-120" y="-108.91000000000001" width="100" height="40" as="geometry" />
        </mxCell>
        <mxCell id="F3PNHzyJ3Ug69kJnkNaL-431" value="Elektronik" style="whiteSpace=wrap;html=1;align=center;" vertex="1" parent="1">
          <mxGeometry x="20" y="-108.60000000000001" width="100" height="40" as="geometry" />
        </mxCell>
        <mxCell id="F3PNHzyJ3Ug69kJnkNaL-432" value="" style="endArrow=none;html=1;rounded=0;entryX=0.25;entryY=0;entryDx=0;entryDy=0;exitX=0.722;exitY=1.017;exitDx=0;exitDy=0;exitPerimeter=0;" edge="1" parent="1" source="F3PNHzyJ3Ug69kJnkNaL-436" target="F3PNHzyJ3Ug69kJnkNaL-426">
          <mxGeometry relative="1" as="geometry">
            <mxPoint x="-70" y="-328.29" as="sourcePoint" />
            <mxPoint x="35" y="-478.29" as="targetPoint" />
          </mxGeometry>
        </mxCell>
        <mxCell id="F3PNHzyJ3Ug69kJnkNaL-433" value="" style="endArrow=none;html=1;rounded=0;entryX=0.5;entryY=0;entryDx=0;entryDy=0;exitX=0.5;exitY=1;exitDx=0;exitDy=0;" edge="1" parent="1" source="F3PNHzyJ3Ug69kJnkNaL-435" target="F3PNHzyJ3Ug69kJnkNaL-426">
          <mxGeometry relative="1" as="geometry">
            <mxPoint y="-328.29" as="sourcePoint" />
            <mxPoint x="-23" y="-274.29" as="targetPoint" />
          </mxGeometry>
        </mxCell>
        <mxCell id="F3PNHzyJ3Ug69kJnkNaL-434" value="" style="endArrow=none;html=1;rounded=0;entryX=0.75;entryY=0;entryDx=0;entryDy=0;exitX=0;exitY=1;exitDx=0;exitDy=0;" edge="1" parent="1" source="F3PNHzyJ3Ug69kJnkNaL-437" target="F3PNHzyJ3Ug69kJnkNaL-426">
          <mxGeometry relative="1" as="geometry">
            <mxPoint x="60" y="-328.29" as="sourcePoint" />
            <mxPoint x="10" y="-276.29" as="targetPoint" />
          </mxGeometry>
        </mxCell>
        <mxCell id="F3PNHzyJ3Ug69kJnkNaL-435" value="EsyaAd" style="ellipse;whiteSpace=wrap;html=1;align=center;" vertex="1" parent="1">
          <mxGeometry x="-30" y="-358.29" width="60" height="30" as="geometry" />
        </mxCell>
        <mxCell id="F3PNHzyJ3Ug69kJnkNaL-436" value="EsyaID" style="ellipse;whiteSpace=wrap;html=1;align=center;fontStyle=4;" vertex="1" parent="1">
          <mxGeometry x="-120" y="-343.29" width="60" height="35" as="geometry" />
        </mxCell>
        <mxCell id="F3PNHzyJ3Ug69kJnkNaL-437" value="EsyaTur" style="ellipse;whiteSpace=wrap;html=1;align=center;" vertex="1" parent="1">
          <mxGeometry x="60" y="-338.28999999999996" width="60" height="30" as="geometry" />
        </mxCell>
        <mxCell id="F3PNHzyJ3Ug69kJnkNaL-438" value="" style="endArrow=none;html=1;rounded=0;entryX=0;entryY=0.5;entryDx=0;entryDy=0;exitX=1;exitY=1;exitDx=0;exitDy=0;" edge="1" parent="1" source="F3PNHzyJ3Ug69kJnkNaL-439" target="F3PNHzyJ3Ug69kJnkNaL-430">
          <mxGeometry relative="1" as="geometry">
            <mxPoint x="-165" y="-142" as="sourcePoint" />
            <mxPoint x="-120" y="-100.00000000000001" as="targetPoint" />
          </mxGeometry>
        </mxCell>
        <mxCell id="F3PNHzyJ3Ug69kJnkNaL-439" value="MobilyaID" style="ellipse;whiteSpace=wrap;html=1;align=center;fontStyle=4;" vertex="1" parent="1">
          <mxGeometry x="-210" y="-128.29" width="60" height="35" as="geometry" />
        </mxCell>
        <mxCell id="F3PNHzyJ3Ug69kJnkNaL-440" value="" style="endArrow=none;html=1;rounded=0;entryX=0;entryY=0.75;entryDx=0;entryDy=0;exitX=1;exitY=0.5;exitDx=0;exitDy=0;" edge="1" parent="1" source="F3PNHzyJ3Ug69kJnkNaL-441" target="F3PNHzyJ3Ug69kJnkNaL-430">
          <mxGeometry relative="1" as="geometry">
            <mxPoint x="-175.5" y="-53.60000000000001" as="sourcePoint" />
            <mxPoint x="-175.5" y="-11.600000000000003" as="targetPoint" />
          </mxGeometry>
        </mxCell>
        <mxCell id="F3PNHzyJ3Ug69kJnkNaL-441" value="Malzeme" style="ellipse;whiteSpace=wrap;html=1;align=center;" vertex="1" parent="1">
          <mxGeometry x="-205.5" y="-83.60000000000001" width="60" height="30" as="geometry" />
        </mxCell>
        <mxCell id="F3PNHzyJ3Ug69kJnkNaL-442" value="" style="endArrow=none;html=1;rounded=0;entryX=1;entryY=0;entryDx=0;entryDy=0;exitX=0;exitY=0.5;exitDx=0;exitDy=0;" edge="1" parent="1" source="F3PNHzyJ3Ug69kJnkNaL-443" target="F3PNHzyJ3Ug69kJnkNaL-431">
          <mxGeometry relative="1" as="geometry">
            <mxPoint x="200.5" y="-154.06" as="sourcePoint" />
            <mxPoint x="245.5" y="-101.35000000000001" as="targetPoint" />
          </mxGeometry>
        </mxCell>
        <mxCell id="F3PNHzyJ3Ug69kJnkNaL-443" value="ElektronikID" style="ellipse;whiteSpace=wrap;html=1;align=center;fontStyle=4;" vertex="1" parent="1">
          <mxGeometry x="155.5" y="-140.35" width="60" height="35" as="geometry" />
        </mxCell>
        <mxCell id="F3PNHzyJ3Ug69kJnkNaL-444" value="" style="endArrow=none;html=1;rounded=0;entryX=1;entryY=0.75;entryDx=0;entryDy=0;exitX=0;exitY=0.5;exitDx=0;exitDy=0;" edge="1" parent="1" source="F3PNHzyJ3Ug69kJnkNaL-445" target="F3PNHzyJ3Ug69kJnkNaL-431">
          <mxGeometry relative="1" as="geometry">
            <mxPoint x="190" y="-65.66000000000001" as="sourcePoint" />
            <mxPoint x="245.5" y="-91.35000000000001" as="targetPoint" />
          </mxGeometry>
        </mxCell>
        <mxCell id="F3PNHzyJ3Ug69kJnkNaL-445" value="Voltaj" style="ellipse;whiteSpace=wrap;html=1;align=center;" vertex="1" parent="1">
          <mxGeometry x="160" y="-98.29" width="70" height="32.63" as="geometry" />
        </mxCell>
        <mxCell id="F3PNHzyJ3Ug69kJnkNaL-446" value="&lt;b&gt;D&lt;/b&gt;" style="triangle;whiteSpace=wrap;html=1;direction=north;" vertex="1" parent="1">
          <mxGeometry x="-32" y="-211.57999999999998" width="64.5" height="53.29" as="geometry" />
        </mxCell>
        <mxCell id="F3PNHzyJ3Ug69kJnkNaL-447" value="Rezervasyon Tipi" style="whiteSpace=wrap;html=1;align=center;" vertex="1" parent="1">
          <mxGeometry x="432" y="-298.21000000000004" width="100" height="40" as="geometry" />
        </mxCell>
        <mxCell id="F3PNHzyJ3Ug69kJnkNaL-448" value="" style="endArrow=classic;html=1;rounded=0;exitX=0.5;exitY=1;exitDx=0;exitDy=0;entryX=1;entryY=0.5;entryDx=0;entryDy=0;" edge="1" parent="1" source="F3PNHzyJ3Ug69kJnkNaL-447" target="F3PNHzyJ3Ug69kJnkNaL-465">
          <mxGeometry width="50" height="50" relative="1" as="geometry">
            <mxPoint x="712" y="-205.70999999999998" as="sourcePoint" />
            <mxPoint x="482" y="-215.41999999999996" as="targetPoint" />
          </mxGeometry>
        </mxCell>
        <mxCell id="F3PNHzyJ3Ug69kJnkNaL-449" value="" style="endArrow=classic;html=1;rounded=0;exitX=-0.029;exitY=0.038;exitDx=0;exitDy=0;entryX=0.5;entryY=0;entryDx=0;entryDy=0;exitPerimeter=0;" edge="1" parent="1" source="F3PNHzyJ3Ug69kJnkNaL-465" target="F3PNHzyJ3Ug69kJnkNaL-451">
          <mxGeometry width="50" height="50" relative="1" as="geometry">
            <mxPoint x="467.85786437626894" y="-181.2778643762689" as="sourcePoint" />
            <mxPoint x="432" y="-145.70999999999998" as="targetPoint" />
          </mxGeometry>
        </mxCell>
        <mxCell id="F3PNHzyJ3Ug69kJnkNaL-450" value="" style="endArrow=classic;html=1;rounded=0;exitX=-0.064;exitY=1.001;exitDx=0;exitDy=0;entryX=0.5;entryY=0;entryDx=0;entryDy=0;exitPerimeter=0;" edge="1" parent="1" source="F3PNHzyJ3Ug69kJnkNaL-465" target="F3PNHzyJ3Ug69kJnkNaL-452">
          <mxGeometry width="50" height="50" relative="1" as="geometry">
            <mxPoint x="496.14213562373106" y="-181.27786437626867" as="sourcePoint" />
            <mxPoint x="532" y="-145.70999999999998" as="targetPoint" />
          </mxGeometry>
        </mxCell>
        <mxCell id="F3PNHzyJ3Ug69kJnkNaL-451" value="Online Rezervasyon" style="whiteSpace=wrap;html=1;align=center;" vertex="1" parent="1">
          <mxGeometry x="362" y="-121.02000000000001" width="100" height="40" as="geometry" />
        </mxCell>
        <mxCell id="F3PNHzyJ3Ug69kJnkNaL-452" value="Telefonla Rezervasyon" style="whiteSpace=wrap;html=1;align=center;" vertex="1" parent="1">
          <mxGeometry x="502" y="-120.71000000000001" width="100" height="40" as="geometry" />
        </mxCell>
        <mxCell id="F3PNHzyJ3Ug69kJnkNaL-453" value="" style="endArrow=none;html=1;rounded=0;entryX=0.25;entryY=0;entryDx=0;entryDy=0;exitX=0.722;exitY=1.017;exitDx=0;exitDy=0;exitPerimeter=0;" edge="1" parent="1" source="F3PNHzyJ3Ug69kJnkNaL-456" target="F3PNHzyJ3Ug69kJnkNaL-447">
          <mxGeometry relative="1" as="geometry">
            <mxPoint x="412" y="-340.40000000000003" as="sourcePoint" />
            <mxPoint x="517" y="-490.40000000000003" as="targetPoint" />
          </mxGeometry>
        </mxCell>
        <mxCell id="F3PNHzyJ3Ug69kJnkNaL-454" value="" style="endArrow=none;html=1;rounded=0;entryX=0.75;entryY=0;entryDx=0;entryDy=0;exitX=0.5;exitY=1;exitDx=0;exitDy=0;" edge="1" parent="1" source="F3PNHzyJ3Ug69kJnkNaL-455" target="F3PNHzyJ3Ug69kJnkNaL-447">
          <mxGeometry relative="1" as="geometry">
            <mxPoint x="482" y="-340.40000000000003" as="sourcePoint" />
            <mxPoint x="459" y="-286.40000000000003" as="targetPoint" />
          </mxGeometry>
        </mxCell>
        <mxCell id="F3PNHzyJ3Ug69kJnkNaL-455" value="ReservationTypeName" style="ellipse;whiteSpace=wrap;html=1;align=center;" vertex="1" parent="1">
          <mxGeometry x="542" y="-352.90000000000003" width="60" height="30" as="geometry" />
        </mxCell>
        <mxCell id="F3PNHzyJ3Ug69kJnkNaL-456" value="ReservationType_ID" style="ellipse;whiteSpace=wrap;html=1;align=center;fontStyle=4;" vertex="1" parent="1">
          <mxGeometry x="362" y="-355.40000000000003" width="60" height="35" as="geometry" />
        </mxCell>
        <mxCell id="F3PNHzyJ3Ug69kJnkNaL-457" value="" style="endArrow=none;html=1;rounded=0;entryX=0;entryY=0.5;entryDx=0;entryDy=0;exitX=1;exitY=1;exitDx=0;exitDy=0;" edge="1" parent="1" source="F3PNHzyJ3Ug69kJnkNaL-458" target="F3PNHzyJ3Ug69kJnkNaL-451">
          <mxGeometry relative="1" as="geometry">
            <mxPoint x="317" y="-154.11" as="sourcePoint" />
            <mxPoint x="362" y="-112.11000000000001" as="targetPoint" />
          </mxGeometry>
        </mxCell>
        <mxCell id="F3PNHzyJ3Ug69kJnkNaL-458" value="Reservation_ID" style="ellipse;whiteSpace=wrap;html=1;align=center;fontStyle=4;" vertex="1" parent="1">
          <mxGeometry x="272" y="-140.39999999999998" width="60" height="35" as="geometry" />
        </mxCell>
        <mxCell id="F3PNHzyJ3Ug69kJnkNaL-459" value="" style="endArrow=none;html=1;rounded=0;entryX=0;entryY=0.75;entryDx=0;entryDy=0;exitX=1;exitY=0.5;exitDx=0;exitDy=0;" edge="1" parent="1" source="F3PNHzyJ3Ug69kJnkNaL-460" target="F3PNHzyJ3Ug69kJnkNaL-451">
          <mxGeometry relative="1" as="geometry">
            <mxPoint x="306.5" y="-65.71000000000001" as="sourcePoint" />
            <mxPoint x="306.5" y="-23.71" as="targetPoint" />
          </mxGeometry>
        </mxCell>
        <mxCell id="F3PNHzyJ3Ug69kJnkNaL-460" value="Start_Date" style="ellipse;whiteSpace=wrap;html=1;align=center;" vertex="1" parent="1">
          <mxGeometry x="276.5" y="-95.71000000000001" width="60" height="30" as="geometry" />
        </mxCell>
        <mxCell id="F3PNHzyJ3Ug69kJnkNaL-461" value="" style="endArrow=none;html=1;rounded=0;entryX=1;entryY=0;entryDx=0;entryDy=0;exitX=0;exitY=0.5;exitDx=0;exitDy=0;" edge="1" parent="1" source="F3PNHzyJ3Ug69kJnkNaL-462" target="F3PNHzyJ3Ug69kJnkNaL-452">
          <mxGeometry relative="1" as="geometry">
            <mxPoint x="682.5" y="-166.17000000000002" as="sourcePoint" />
            <mxPoint x="727.5" y="-113.46000000000001" as="targetPoint" />
          </mxGeometry>
        </mxCell>
        <mxCell id="F3PNHzyJ3Ug69kJnkNaL-462" value="Reservation_ID" style="ellipse;whiteSpace=wrap;html=1;align=center;fontStyle=4;" vertex="1" parent="1">
          <mxGeometry x="637.5" y="-152.45999999999998" width="60" height="35" as="geometry" />
        </mxCell>
        <mxCell id="F3PNHzyJ3Ug69kJnkNaL-463" value="" style="endArrow=none;html=1;rounded=0;entryX=1;entryY=0.75;entryDx=0;entryDy=0;exitX=0;exitY=0.5;exitDx=0;exitDy=0;" edge="1" parent="1" source="F3PNHzyJ3Ug69kJnkNaL-464" target="F3PNHzyJ3Ug69kJnkNaL-452">
          <mxGeometry relative="1" as="geometry">
            <mxPoint x="672" y="-77.77000000000001" as="sourcePoint" />
            <mxPoint x="727.5" y="-103.46000000000001" as="targetPoint" />
          </mxGeometry>
        </mxCell>
        <mxCell id="F3PNHzyJ3Ug69kJnkNaL-464" value="End_Date" style="ellipse;whiteSpace=wrap;html=1;align=center;" vertex="1" parent="1">
          <mxGeometry x="642" y="-110.4" width="70" height="32.63" as="geometry" />
        </mxCell>
        <mxCell id="F3PNHzyJ3Ug69kJnkNaL-465" value="&lt;b&gt;O&lt;/b&gt;" style="triangle;whiteSpace=wrap;html=1;direction=north;" vertex="1" parent="1">
          <mxGeometry x="450" y="-223.69" width="64.5" height="53.29" as="geometry" />
        </mxCell>
        <mxCell id="F3PNHzyJ3Ug69kJnkNaL-466" value="Start_Date" style="ellipse;whiteSpace=wrap;html=1;align=center;" vertex="1" parent="1">
          <mxGeometry x="276.5" y="-182.46" width="60" height="30" as="geometry" />
        </mxCell>
        <mxCell id="F3PNHzyJ3Ug69kJnkNaL-467" value="" style="endArrow=none;html=1;rounded=0;entryX=0;entryY=0;entryDx=0;entryDy=0;exitX=1;exitY=1;exitDx=0;exitDy=0;" edge="1" parent="1" source="F3PNHzyJ3Ug69kJnkNaL-466" target="F3PNHzyJ3Ug69kJnkNaL-451">
          <mxGeometry relative="1" as="geometry">
            <mxPoint x="333" y="-101" as="sourcePoint" />
            <mxPoint x="372" y="-91" as="targetPoint" />
          </mxGeometry>
        </mxCell>
        <mxCell id="F3PNHzyJ3Ug69kJnkNaL-468" value="" style="endArrow=none;html=1;rounded=0;entryX=0.75;entryY=0;entryDx=0;entryDy=0;exitX=0;exitY=1;exitDx=0;exitDy=0;" edge="1" parent="1" source="F3PNHzyJ3Ug69kJnkNaL-469" target="F3PNHzyJ3Ug69kJnkNaL-452">
          <mxGeometry relative="1" as="geometry">
            <mxPoint x="620" y="-170" as="sourcePoint" />
            <mxPoint x="372" y="-111" as="targetPoint" />
          </mxGeometry>
        </mxCell>
        <mxCell id="F3PNHzyJ3Ug69kJnkNaL-469" value="Start_Date" style="ellipse;whiteSpace=wrap;html=1;align=center;" vertex="1" parent="1">
          <mxGeometry x="612" y="-196" width="60" height="30" as="geometry" />
        </mxCell>
        <mxCell id="F3PNHzyJ3Ug69kJnkNaL-470" value="Telefon" style="ellipse;shape=doubleEllipse;margin=3;whiteSpace=wrap;html=1;align=center;" vertex="1" parent="1">
          <mxGeometry x="45.5" width="64.5" height="30" as="geometry" />
        </mxCell>
        <mxCell id="F3PNHzyJ3Ug69kJnkNaL-471" style="edgeStyle=orthogonalEdgeStyle;rounded=0;orthogonalLoop=1;jettySize=auto;html=1;exitX=0.5;exitY=1;exitDx=0;exitDy=0;" edge="1" parent="1">
          <mxGeometry relative="1" as="geometry">
            <mxPoint x="623" y="-267" as="sourcePoint" />
            <mxPoint x="623" y="-267" as="targetPoint" />
          </mxGeometry>
        </mxCell>
        <mxCell id="F3PNHzyJ3Ug69kJnkNaL-472" value="" style="endArrow=none;html=1;rounded=0;entryX=1;entryY=1;entryDx=0;entryDy=0;exitX=0;exitY=0.5;exitDx=0;exitDy=0;" edge="1" parent="1" source="F3PNHzyJ3Ug69kJnkNaL-475" target="F3PNHzyJ3Ug69kJnkNaL-305">
          <mxGeometry relative="1" as="geometry">
            <mxPoint x="1000" y="-450" as="sourcePoint" />
            <mxPoint x="920" y="-455" as="targetPoint" />
          </mxGeometry>
        </mxCell>
        <mxCell id="F3PNHzyJ3Ug69kJnkNaL-473" value="" style="endArrow=none;html=1;rounded=0;exitX=1;exitY=0;exitDx=0;exitDy=0;entryX=0;entryY=1;entryDx=0;entryDy=0;" edge="1" parent="1" source="F3PNHzyJ3Ug69kJnkNaL-305" target="F3PNHzyJ3Ug69kJnkNaL-474">
          <mxGeometry relative="1" as="geometry">
            <mxPoint x="910" y="-440" as="sourcePoint" />
            <mxPoint x="990" y="-490" as="targetPoint" />
          </mxGeometry>
        </mxCell>
        <mxCell id="F3PNHzyJ3Ug69kJnkNaL-474" value="SMS" style="ellipse;whiteSpace=wrap;html=1;align=center;" vertex="1" parent="1">
          <mxGeometry x="990" y="-504" width="50" height="20" as="geometry" />
        </mxCell>
        <mxCell id="F3PNHzyJ3Ug69kJnkNaL-475" value="MMS" style="ellipse;whiteSpace=wrap;html=1;align=center;" vertex="1" parent="1">
          <mxGeometry x="1000" y="-459" width="50" height="20" as="geometry" />
        </mxCell>
        <mxCell id="F3PNHzyJ3Ug69kJnkNaL-476" value="" style="endArrow=none;html=1;rounded=0;exitX=0.584;exitY=0.089;exitDx=0;exitDy=0;exitPerimeter=0;entryX=0.5;entryY=1;entryDx=0;entryDy=0;" edge="1" parent="1" source="F3PNHzyJ3Ug69kJnkNaL-273" target="F3PNHzyJ3Ug69kJnkNaL-477">
          <mxGeometry relative="1" as="geometry">
            <mxPoint x="837" y="-474" as="sourcePoint" />
            <mxPoint x="870" y="-523.9999999999998" as="targetPoint" />
          </mxGeometry>
        </mxCell>
        <mxCell id="F3PNHzyJ3Ug69kJnkNaL-477" value="Mesaj Sayısı" style="ellipse;whiteSpace=wrap;html=1;align=center;dashed=1;" vertex="1" parent="1">
          <mxGeometry x="850" y="-560" width="60" height="30" as="geometry" />
        </mxCell>
        <mxCell id="F3PNHzyJ3Ug69kJnkNaL-478" value="" style="endArrow=none;html=1;rounded=0;exitX=0;exitY=0;exitDx=0;exitDy=0;fillColor=#CC0000;strokeColor=#CC0000;entryX=1;entryY=0.25;entryDx=0;entryDy=0;" edge="1" parent="1" source="F3PNHzyJ3Ug69kJnkNaL-4" target="F3PNHzyJ3Ug69kJnkNaL-1">
          <mxGeometry relative="1" as="geometry">
            <mxPoint x="-220" y="130" as="sourcePoint" />
            <mxPoint x="-280" y="100" as="targetPoint" />
          </mxGeometry>
        </mxCell>
        <mxCell id="F3PNHzyJ3Ug69kJnkNaL-479" value="N" style="resizable=0;html=1;whiteSpace=wrap;align=right;verticalAlign=bottom;strokeColor=#CC0000;fillColor=#CC0000;" connectable="0" vertex="1" parent="F3PNHzyJ3Ug69kJnkNaL-478">
          <mxGeometry x="1" relative="1" as="geometry">
            <mxPoint x="-1" y="7" as="offset" />
          </mxGeometry>
        </mxCell>
        <mxCell id="F3PNHzyJ3Ug69kJnkNaL-480" value="1" style="resizable=0;html=1;whiteSpace=wrap;align=right;verticalAlign=bottom;" connectable="0" vertex="1" parent="1">
          <mxGeometry x="-24.04807230118513" y="154.9903855397631" as="geometry">
            <mxPoint x="5" y="10" as="offset" />
          </mxGeometry>
        </mxCell>
        <mxCell id="F3PNHzyJ3Ug69kJnkNaL-481" value="" style="endArrow=none;html=1;rounded=0;fillColor=#CC0000;strokeColor=#CC0000;entryX=0;entryY=0.25;entryDx=0;entryDy=0;exitX=1;exitY=0.5;exitDx=0;exitDy=0;" edge="1" parent="1" source="F3PNHzyJ3Ug69kJnkNaL-483" target="F3PNHzyJ3Ug69kJnkNaL-1">
          <mxGeometry relative="1" as="geometry">
            <mxPoint x="-570" y="60" as="sourcePoint" />
            <mxPoint x="-420" y="80" as="targetPoint" />
          </mxGeometry>
        </mxCell>
        <mxCell id="F3PNHzyJ3Ug69kJnkNaL-482" value="N" style="resizable=0;html=1;whiteSpace=wrap;align=right;verticalAlign=bottom;strokeColor=#CC0000;fillColor=#CC0000;" connectable="0" vertex="1" parent="F3PNHzyJ3Ug69kJnkNaL-481">
          <mxGeometry x="1" relative="1" as="geometry">
            <mxPoint x="14" y="7" as="offset" />
          </mxGeometry>
        </mxCell>
        <mxCell id="F3PNHzyJ3Ug69kJnkNaL-483" value="Projeler" style="rounded=0;whiteSpace=wrap;html=1;" vertex="1" parent="1">
          <mxGeometry x="-555.5" y="58.129999999999995" width="85.5" height="33.75" as="geometry" />
        </mxCell>
        <mxCell id="F3PNHzyJ3Ug69kJnkNaL-484" value="1" style="resizable=0;html=1;whiteSpace=wrap;align=right;verticalAlign=bottom;strokeColor=#CC0000;fillColor=#CC0000;" connectable="0" vertex="1" parent="1">
          <mxGeometry x="-358.58353231045066" y="90.33093048196338" as="geometry">
            <mxPoint x="-207" y="-31" as="offset" />
          </mxGeometry>
        </mxCell>
        <mxCell id="F3PNHzyJ3Ug69kJnkNaL-485" value="" style="endArrow=none;html=1;rounded=0;entryX=0;entryY=0.25;entryDx=0;entryDy=0;exitX=1;exitY=0.5;exitDx=0;exitDy=0;" edge="1" parent="1" source="F3PNHzyJ3Ug69kJnkNaL-486" target="F3PNHzyJ3Ug69kJnkNaL-483">
          <mxGeometry relative="1" as="geometry">
            <mxPoint x="-621" y="26.999999999999986" as="sourcePoint" />
            <mxPoint x="-575.5" y="79.69" as="targetPoint" />
          </mxGeometry>
        </mxCell>
        <mxCell id="F3PNHzyJ3Ug69kJnkNaL-486" value="ProjeID" style="ellipse;whiteSpace=wrap;html=1;align=center;fontStyle=4;" vertex="1" parent="1">
          <mxGeometry x="-666" y="40.709999999999994" width="60" height="35" as="geometry" />
        </mxCell>
        <mxCell id="F3PNHzyJ3Ug69kJnkNaL-487" value="" style="endArrow=none;html=1;rounded=0;entryX=0;entryY=0.75;entryDx=0;entryDy=0;exitX=1;exitY=0.5;exitDx=0;exitDy=0;" edge="1" parent="1" source="F3PNHzyJ3Ug69kJnkNaL-488" target="F3PNHzyJ3Ug69kJnkNaL-483">
          <mxGeometry relative="1" as="geometry">
            <mxPoint x="-617.75" y="127.99999999999999" as="sourcePoint" />
            <mxPoint x="-561.75" y="102.28999999999999" as="targetPoint" />
          </mxGeometry>
        </mxCell>
        <mxCell id="F3PNHzyJ3Ug69kJnkNaL-488" value="ProjeAd" style="ellipse;whiteSpace=wrap;html=1;align=center;" vertex="1" parent="1">
          <mxGeometry x="-647.75" y="84.99999999999999" width="60" height="30" as="geometry" />
        </mxCell>
        <mxCell id="F3PNHzyJ3Ug69kJnkNaL-489" value="" style="endArrow=none;html=1;rounded=0;entryX=0.25;entryY=1;entryDx=0;entryDy=0;exitX=1;exitY=0;exitDx=0;exitDy=0;" edge="1" parent="1" source="F3PNHzyJ3Ug69kJnkNaL-490" target="F3PNHzyJ3Ug69kJnkNaL-483">
          <mxGeometry relative="1" as="geometry">
            <mxPoint x="-576" y="154.99" as="sourcePoint" />
            <mxPoint x="-513.25" y="109.99" as="targetPoint" />
          </mxGeometry>
        </mxCell>
        <mxCell id="F3PNHzyJ3Ug69kJnkNaL-490" value="BaslangicTarih" style="ellipse;whiteSpace=wrap;html=1;align=center;" vertex="1" parent="1">
          <mxGeometry x="-613.75" y="120" width="56" height="30" as="geometry" />
        </mxCell>
        <mxCell id="F3PNHzyJ3Ug69kJnkNaL-491" value="" style="endArrow=none;html=1;rounded=0;entryX=0;entryY=0;entryDx=0;entryDy=0;exitX=1;exitY=1;exitDx=0;exitDy=0;" edge="1" parent="1" source="F3PNHzyJ3Ug69kJnkNaL-492" target="F3PNHzyJ3Ug69kJnkNaL-483">
          <mxGeometry relative="1" as="geometry">
            <mxPoint x="-581.5367965643889" y="29.874368670773038" as="sourcePoint" />
            <mxPoint x="-540" y="36.29" as="targetPoint" />
          </mxGeometry>
        </mxCell>
        <mxCell id="F3PNHzyJ3Ug69kJnkNaL-492" value="BitisTarih" style="ellipse;whiteSpace=wrap;html=1;align=center;" vertex="1" parent="1">
          <mxGeometry x="-627.75" y="3.119999999999993" width="60" height="30" as="geometry" />
        </mxCell>
        <mxCell id="F3PNHzyJ3Ug69kJnkNaL-493" value="&lt;span style=&quot;font-size: 48px;&quot;&gt;OSMAN DEMİR&amp;nbsp; &amp;nbsp; &amp;nbsp; &amp;nbsp; &amp;nbsp;&amp;nbsp;&lt;/span&gt;&lt;div&gt;&lt;span style=&quot;font-size: 48px;&quot;&gt;BÜŞRA AKSAKALLI&amp;nbsp; &amp;nbsp;&lt;/span&gt;&lt;/div&gt;" style="text;html=1;align=center;verticalAlign=middle;resizable=0;points=[];autosize=1;strokeColor=none;fillColor=none;" vertex="1" parent="1">
          <mxGeometry x="1650" y="975" width="500" height="130" as="geometry" />
        </mxCell>
      </root>
    </mxGraphModel>
  </diagram>
</mxfile>
